<?xml version="1.0" encoding="utf-8" standalone="no"?>
<!DOCTYPE svg PUBLIC "-//W3C//DTD SVG 1.1//EN"
  "http://www.w3.org/Graphics/SVG/1.1/DTD/svg11.dtd">
<!-- Created with matplotlib (https://matplotlib.org/) -->
<svg height="360pt" version="1.1" viewBox="0 0 576 360" width="576pt" xmlns="http://www.w3.org/2000/svg" xmlns:xlink="http://www.w3.org/1999/xlink">
 <metadata>
  <rdf:RDF xmlns:cc="http://creativecommons.org/ns#" xmlns:dc="http://purl.org/dc/elements/1.1/" xmlns:rdf="http://www.w3.org/1999/02/22-rdf-syntax-ns#">
   <cc:Work>
    <dc:type rdf:resource="http://purl.org/dc/dcmitype/StillImage"/>
    <dc:date>2021-06-14T00:20:13.129154</dc:date>
    <dc:format>image/svg+xml</dc:format>
    <dc:creator>
     <cc:Agent>
      <dc:title>Matplotlib v3.3.2, https://matplotlib.org/</dc:title>
     </cc:Agent>
    </dc:creator>
   </cc:Work>
  </rdf:RDF>
 </metadata>
 <defs>
  <style type="text/css">*{stroke-linecap:butt;stroke-linejoin:round;}</style>
 </defs>
 <g id="figure_1">
  <g id="patch_1">
   <path d="M 0 360 
L 576 360 
L 576 0 
L 0 0 
z
" style="fill:#ffffff;"/>
  </g>
  <g id="axes_1">
   <g id="patch_2">
    <path d="M 72 320.4 
L 518.4 320.4 
L 518.4 43.2 
L 72 43.2 
z
" style="fill:#ffffff;"/>
   </g>
   <g id="matplotlib.axis_1">
    <g id="xtick_1">
     <g id="line2d_1">
      <path clip-path="url(#p11f9cace6a)" d="M 92.252149 320.4 
L 92.252149 43.2 
" style="fill:none;stroke:#b0b0b0;stroke-linecap:square;stroke-width:0.8;"/>
     </g>
     <g id="line2d_2">
      <defs>
       <path d="M 0 0 
L 0 3.5 
" id="ma1a94fd484" style="stroke:#000000;stroke-width:0.8;"/>
      </defs>
      <g>
       <use style="stroke:#000000;stroke-width:0.8;" x="92.252149" xlink:href="#ma1a94fd484" y="320.4"/>
      </g>
     </g>
     <g id="text_1">
      <!-- 0 -->
      <g transform="translate(89.070899 334.998438)scale(0.1 -0.1)">
       <defs>
        <path d="M 31.78125 3.421875 
Q 39.265625 3.421875 42.96875 11.625 
Q 46.6875 19.828125 46.6875 36.375 
Q 46.6875 52.984375 42.96875 61.1875 
Q 39.265625 69.390625 31.78125 69.390625 
Q 24.3125 69.390625 20.59375 61.1875 
Q 16.890625 52.984375 16.890625 36.375 
Q 16.890625 19.828125 20.59375 11.625 
Q 24.3125 3.421875 31.78125 3.421875 
z
M 31.78125 -1.421875 
Q 19.921875 -1.421875 13.25 8.53125 
Q 6.59375 18.5 6.59375 36.375 
Q 6.59375 54.296875 13.25 64.25 
Q 19.921875 74.21875 31.78125 74.21875 
Q 43.703125 74.21875 50.34375 64.25 
Q 56.984375 54.296875 56.984375 36.375 
Q 56.984375 18.5 50.34375 8.53125 
Q 43.703125 -1.421875 31.78125 -1.421875 
z
" id="DejaVuSerif-48"/>
       </defs>
       <use xlink:href="#DejaVuSerif-48"/>
      </g>
     </g>
    </g>
    <g id="xtick_2">
     <g id="line2d_3">
      <path clip-path="url(#p11f9cace6a)" d="M 169.772337 320.4 
L 169.772337 43.2 
" style="fill:none;stroke:#b0b0b0;stroke-linecap:square;stroke-width:0.8;"/>
     </g>
     <g id="line2d_4">
      <g>
       <use style="stroke:#000000;stroke-width:0.8;" x="169.772337" xlink:href="#ma1a94fd484" y="320.4"/>
      </g>
     </g>
     <g id="text_2">
      <!-- 2000 -->
      <g transform="translate(157.047337 334.998438)scale(0.1 -0.1)">
       <defs>
        <path d="M 12.796875 55.515625 
L 7.328125 55.515625 
L 7.328125 68.5 
Q 12.546875 71.296875 17.84375 72.75 
Q 23.140625 74.21875 28.21875 74.21875 
Q 39.59375 74.21875 46.1875 68.703125 
Q 52.78125 63.1875 52.78125 53.71875 
Q 52.78125 43.015625 37.84375 28.125 
Q 36.671875 27 36.078125 26.421875 
L 17.671875 8.015625 
L 48.09375 8.015625 
L 48.09375 17 
L 53.8125 17 
L 53.8125 0 
L 6.78125 0 
L 6.78125 5.328125 
L 28.90625 27.390625 
Q 36.234375 34.71875 39.359375 40.84375 
Q 42.484375 46.96875 42.484375 53.71875 
Q 42.484375 61.078125 38.640625 65.234375 
Q 34.8125 69.390625 28.078125 69.390625 
Q 21.09375 69.390625 17.28125 65.921875 
Q 13.484375 62.453125 12.796875 55.515625 
z
" id="DejaVuSerif-50"/>
       </defs>
       <use xlink:href="#DejaVuSerif-50"/>
       <use x="63.623047" xlink:href="#DejaVuSerif-48"/>
       <use x="127.246094" xlink:href="#DejaVuSerif-48"/>
       <use x="190.869141" xlink:href="#DejaVuSerif-48"/>
      </g>
     </g>
    </g>
    <g id="xtick_3">
     <g id="line2d_5">
      <path clip-path="url(#p11f9cace6a)" d="M 247.292524 320.4 
L 247.292524 43.2 
" style="fill:none;stroke:#b0b0b0;stroke-linecap:square;stroke-width:0.8;"/>
     </g>
     <g id="line2d_6">
      <g>
       <use style="stroke:#000000;stroke-width:0.8;" x="247.292524" xlink:href="#ma1a94fd484" y="320.4"/>
      </g>
     </g>
     <g id="text_3">
      <!-- 4000 -->
      <g transform="translate(234.567524 334.998438)scale(0.1 -0.1)">
       <defs>
        <path d="M 34.90625 24.703125 
L 34.90625 63.484375 
L 10.015625 24.703125 
z
M 56.390625 0 
L 23.1875 0 
L 23.1875 5.171875 
L 34.90625 5.171875 
L 34.90625 19.484375 
L 3.078125 19.484375 
L 3.078125 24.8125 
L 35.015625 74.21875 
L 44.671875 74.21875 
L 44.671875 24.703125 
L 58.59375 24.703125 
L 58.59375 19.484375 
L 44.671875 19.484375 
L 44.671875 5.171875 
L 56.390625 5.171875 
z
" id="DejaVuSerif-52"/>
       </defs>
       <use xlink:href="#DejaVuSerif-52"/>
       <use x="63.623047" xlink:href="#DejaVuSerif-48"/>
       <use x="127.246094" xlink:href="#DejaVuSerif-48"/>
       <use x="190.869141" xlink:href="#DejaVuSerif-48"/>
      </g>
     </g>
    </g>
    <g id="xtick_4">
     <g id="line2d_7">
      <path clip-path="url(#p11f9cace6a)" d="M 324.812712 320.4 
L 324.812712 43.2 
" style="fill:none;stroke:#b0b0b0;stroke-linecap:square;stroke-width:0.8;"/>
     </g>
     <g id="line2d_8">
      <g>
       <use style="stroke:#000000;stroke-width:0.8;" x="324.812712" xlink:href="#ma1a94fd484" y="320.4"/>
      </g>
     </g>
     <g id="text_4">
      <!-- 6000 -->
      <g transform="translate(312.087712 334.998438)scale(0.1 -0.1)">
       <defs>
        <path d="M 32.71875 3.421875 
Q 39.59375 3.421875 43.296875 8.46875 
Q 47.015625 13.53125 47.015625 23 
Q 47.015625 32.46875 43.296875 37.515625 
Q 39.59375 42.578125 32.71875 42.578125 
Q 25.734375 42.578125 22.0625 37.6875 
Q 18.40625 32.8125 18.40625 23.578125 
Q 18.40625 13.875 22.109375 8.640625 
Q 25.828125 3.421875 32.71875 3.421875 
z
M 16.796875 40.140625 
Q 20.125 43.796875 24.3125 45.59375 
Q 28.515625 47.40625 33.796875 47.40625 
Q 44.671875 47.40625 51 40.859375 
Q 57.328125 34.328125 57.328125 23 
Q 57.328125 11.921875 50.515625 5.25 
Q 43.703125 -1.421875 32.328125 -1.421875 
Q 19.96875 -1.421875 13.328125 7.78125 
Q 6.6875 17 6.6875 34.078125 
Q 6.6875 53.21875 14.546875 63.71875 
Q 22.40625 74.21875 36.71875 74.21875 
Q 40.578125 74.21875 44.828125 73.484375 
Q 49.078125 72.75 53.515625 71.296875 
L 53.515625 59.28125 
L 48 59.28125 
Q 47.40625 64.203125 44.234375 66.796875 
Q 41.0625 69.390625 35.6875 69.390625 
Q 26.21875 69.390625 21.578125 62.203125 
Q 16.9375 55.03125 16.796875 40.140625 
z
" id="DejaVuSerif-54"/>
       </defs>
       <use xlink:href="#DejaVuSerif-54"/>
       <use x="63.623047" xlink:href="#DejaVuSerif-48"/>
       <use x="127.246094" xlink:href="#DejaVuSerif-48"/>
       <use x="190.869141" xlink:href="#DejaVuSerif-48"/>
      </g>
     </g>
    </g>
    <g id="xtick_5">
     <g id="line2d_9">
      <path clip-path="url(#p11f9cace6a)" d="M 402.332899 320.4 
L 402.332899 43.2 
" style="fill:none;stroke:#b0b0b0;stroke-linecap:square;stroke-width:0.8;"/>
     </g>
     <g id="line2d_10">
      <g>
       <use style="stroke:#000000;stroke-width:0.8;" x="402.332899" xlink:href="#ma1a94fd484" y="320.4"/>
      </g>
     </g>
     <g id="text_5">
      <!-- 8000 -->
      <g transform="translate(389.607899 334.998438)scale(0.1 -0.1)">
       <defs>
        <path d="M 46.578125 19.921875 
Q 46.578125 27.734375 42.6875 32.046875 
Q 38.8125 36.375 31.78125 36.375 
Q 24.75 36.375 20.875 32.046875 
Q 17 27.734375 17 19.921875 
Q 17 12.0625 20.875 7.734375 
Q 24.75 3.421875 31.78125 3.421875 
Q 38.8125 3.421875 42.6875 7.734375 
Q 46.578125 12.0625 46.578125 19.921875 
z
M 44.578125 55.328125 
Q 44.578125 61.96875 41.203125 65.671875 
Q 37.84375 69.390625 31.78125 69.390625 
Q 25.78125 69.390625 22.390625 65.671875 
Q 19 61.96875 19 55.328125 
Q 19 48.640625 22.390625 44.921875 
Q 25.78125 41.21875 31.78125 41.21875 
Q 37.84375 41.21875 41.203125 44.921875 
Q 44.578125 48.640625 44.578125 55.328125 
z
M 39.3125 38.8125 
Q 47.609375 37.703125 52.25 32.6875 
Q 56.890625 27.6875 56.890625 19.921875 
Q 56.890625 9.671875 50.390625 4.125 
Q 43.890625 -1.421875 31.78125 -1.421875 
Q 19.734375 -1.421875 13.203125 4.125 
Q 6.6875 9.671875 6.6875 19.921875 
Q 6.6875 27.6875 11.328125 32.6875 
Q 15.96875 37.703125 24.3125 38.8125 
Q 16.9375 40.140625 13 44.40625 
Q 9.078125 48.6875 9.078125 55.328125 
Q 9.078125 64.109375 15.125 69.15625 
Q 21.1875 74.21875 31.78125 74.21875 
Q 42.390625 74.21875 48.4375 69.15625 
Q 54.5 64.109375 54.5 55.328125 
Q 54.5 48.6875 50.5625 44.40625 
Q 46.625 40.140625 39.3125 38.8125 
z
" id="DejaVuSerif-56"/>
       </defs>
       <use xlink:href="#DejaVuSerif-56"/>
       <use x="63.623047" xlink:href="#DejaVuSerif-48"/>
       <use x="127.246094" xlink:href="#DejaVuSerif-48"/>
       <use x="190.869141" xlink:href="#DejaVuSerif-48"/>
      </g>
     </g>
    </g>
    <g id="xtick_6">
     <g id="line2d_11">
      <path clip-path="url(#p11f9cace6a)" d="M 479.853087 320.4 
L 479.853087 43.2 
" style="fill:none;stroke:#b0b0b0;stroke-linecap:square;stroke-width:0.8;"/>
     </g>
     <g id="line2d_12">
      <g>
       <use style="stroke:#000000;stroke-width:0.8;" x="479.853087" xlink:href="#ma1a94fd484" y="320.4"/>
      </g>
     </g>
     <g id="text_6">
      <!-- 10000 -->
      <g transform="translate(463.946837 334.998438)scale(0.1 -0.1)">
       <defs>
        <path d="M 14.203125 0 
L 14.203125 5.171875 
L 26.90625 5.171875 
L 26.90625 65.828125 
L 12.203125 56.296875 
L 12.203125 62.703125 
L 29.984375 74.21875 
L 36.71875 74.21875 
L 36.71875 5.171875 
L 49.421875 5.171875 
L 49.421875 0 
z
" id="DejaVuSerif-49"/>
       </defs>
       <use xlink:href="#DejaVuSerif-49"/>
       <use x="63.623047" xlink:href="#DejaVuSerif-48"/>
       <use x="127.246094" xlink:href="#DejaVuSerif-48"/>
       <use x="190.869141" xlink:href="#DejaVuSerif-48"/>
       <use x="254.492188" xlink:href="#DejaVuSerif-48"/>
      </g>
     </g>
    </g>
    <g id="text_7">
     <!-- Epoch -->
     <g transform="translate(279.31875 348.676562)scale(0.1 -0.1)">
      <defs>
       <path d="M 5.515625 0 
L 5.515625 5.171875 
L 14.796875 5.171875 
L 14.796875 67.671875 
L 5.515625 67.671875 
L 5.515625 72.90625 
L 64.203125 72.90625 
L 64.203125 56.6875 
L 58.203125 56.6875 
L 58.203125 66.890625 
L 24.703125 66.890625 
L 24.703125 42.484375 
L 48.578125 42.484375 
L 48.578125 51.609375 
L 54.59375 51.609375 
L 54.59375 27.390625 
L 48.578125 27.390625 
L 48.578125 36.53125 
L 24.703125 36.53125 
L 24.703125 6 
L 58.984375 6 
L 58.984375 16.21875 
L 64.984375 16.21875 
L 64.984375 0 
z
" id="DejaVuSerif-69"/>
       <path d="M 20.515625 28.515625 
L 20.515625 23.390625 
Q 20.515625 14.015625 24.09375 9.109375 
Q 27.6875 4.203125 34.515625 4.203125 
Q 41.40625 4.203125 44.9375 9.71875 
Q 48.484375 15.234375 48.484375 25.984375 
Q 48.484375 36.765625 44.9375 42.234375 
Q 41.40625 47.703125 34.515625 47.703125 
Q 27.6875 47.703125 24.09375 42.765625 
Q 20.515625 37.84375 20.515625 28.515625 
z
M 11.53125 46.6875 
L 2.875 46.6875 
L 2.875 51.90625 
L 20.515625 51.90625 
L 20.515625 43.796875 
Q 23.140625 48.6875 27.21875 51 
Q 31.296875 53.328125 37.3125 53.328125 
Q 46.875 53.328125 52.921875 45.75 
Q 58.984375 38.1875 58.984375 25.984375 
Q 58.984375 13.765625 52.921875 6.171875 
Q 46.875 -1.421875 37.3125 -1.421875 
Q 31.296875 -1.421875 27.21875 0.890625 
Q 23.140625 3.21875 20.515625 8.109375 
L 20.515625 -15.578125 
L 29 -15.578125 
L 29 -20.796875 
L 2.875 -20.796875 
L 2.875 -15.578125 
L 11.53125 -15.578125 
z
" id="DejaVuSerif-112"/>
       <path d="M 30.078125 3.421875 
Q 37.3125 3.421875 40.984375 9.125 
Q 44.671875 14.84375 44.671875 25.984375 
Q 44.671875 37.109375 40.984375 42.796875 
Q 37.3125 48.484375 30.078125 48.484375 
Q 22.859375 48.484375 19.171875 42.796875 
Q 15.484375 37.109375 15.484375 25.984375 
Q 15.484375 14.84375 19.1875 9.125 
Q 22.90625 3.421875 30.078125 3.421875 
z
M 30.078125 -1.421875 
Q 18.75 -1.421875 11.859375 6.078125 
Q 4.984375 13.578125 4.984375 25.984375 
Q 4.984375 38.375 11.84375 45.84375 
Q 18.703125 53.328125 30.078125 53.328125 
Q 41.453125 53.328125 48.3125 45.84375 
Q 55.171875 38.375 55.171875 25.984375 
Q 55.171875 13.578125 48.3125 6.078125 
Q 41.453125 -1.421875 30.078125 -1.421875 
z
" id="DejaVuSerif-111"/>
       <path d="M 51.421875 15.578125 
Q 49.515625 7.28125 44.09375 2.921875 
Q 38.671875 -1.421875 30.078125 -1.421875 
Q 18.75 -1.421875 11.859375 6.078125 
Q 4.984375 13.578125 4.984375 25.984375 
Q 4.984375 38.421875 11.859375 45.875 
Q 18.75 53.328125 30.078125 53.328125 
Q 35.015625 53.328125 39.890625 52.171875 
Q 44.78125 51.03125 49.703125 48.6875 
L 49.703125 35.40625 
L 44.484375 35.40625 
Q 43.453125 42.234375 40.015625 45.359375 
Q 36.578125 48.484375 30.171875 48.484375 
Q 22.90625 48.484375 19.1875 42.84375 
Q 15.484375 37.203125 15.484375 25.984375 
Q 15.484375 14.75 19.171875 9.078125 
Q 22.859375 3.421875 30.171875 3.421875 
Q 35.984375 3.421875 39.453125 6.4375 
Q 42.921875 9.46875 44.1875 15.578125 
z
" id="DejaVuSerif-99"/>
       <path d="M 4.109375 0 
L 4.109375 5.171875 
L 12.203125 5.171875 
L 12.203125 70.796875 
L 3.609375 70.796875 
L 3.609375 75.984375 
L 21.1875 75.984375 
L 21.1875 42.671875 
Q 23.6875 47.953125 27.65625 50.640625 
Q 31.640625 53.328125 36.921875 53.328125 
Q 45.515625 53.328125 49.5625 48.390625 
Q 53.609375 43.453125 53.609375 33.015625 
L 53.609375 5.171875 
L 61.625 5.171875 
L 61.625 0 
L 36.8125 0 
L 36.8125 5.171875 
L 44.578125 5.171875 
L 44.578125 30.171875 
Q 44.578125 39.703125 42.25 43.1875 
Q 39.9375 46.6875 33.984375 46.6875 
Q 27.734375 46.6875 24.453125 42.140625 
Q 21.1875 37.59375 21.1875 28.90625 
L 21.1875 5.171875 
L 29 5.171875 
L 29 0 
z
" id="DejaVuSerif-104"/>
      </defs>
      <use xlink:href="#DejaVuSerif-69"/>
      <use x="72.998047" xlink:href="#DejaVuSerif-112"/>
      <use x="137.011719" xlink:href="#DejaVuSerif-111"/>
      <use x="197.216797" xlink:href="#DejaVuSerif-99"/>
      <use x="253.222656" xlink:href="#DejaVuSerif-104"/>
     </g>
    </g>
   </g>
   <g id="matplotlib.axis_2">
    <g id="ytick_1">
     <g id="line2d_13">
      <path clip-path="url(#p11f9cace6a)" d="M 72 306.516809 
L 518.4 306.516809 
" style="fill:none;stroke:#b0b0b0;stroke-linecap:square;stroke-width:0.8;"/>
     </g>
     <g id="line2d_14">
      <defs>
       <path d="M 0 0 
L -3.5 0 
" id="ma55054ef04" style="stroke:#000000;stroke-width:0.8;"/>
      </defs>
      <g>
       <use style="stroke:#000000;stroke-width:0.8;" x="72" xlink:href="#ma55054ef04" y="306.516809"/>
      </g>
     </g>
     <g id="text_8">
      <!-- −400 -->
      <g transform="translate(37.532812 310.316028)scale(0.1 -0.1)">
       <defs>
        <path d="M 10.59375 35.296875 
L 73.1875 35.296875 
L 73.1875 27.390625 
L 10.59375 27.390625 
z
" id="DejaVuSerif-8722"/>
       </defs>
       <use xlink:href="#DejaVuSerif-8722"/>
       <use x="83.789062" xlink:href="#DejaVuSerif-52"/>
       <use x="147.412109" xlink:href="#DejaVuSerif-48"/>
       <use x="211.035156" xlink:href="#DejaVuSerif-48"/>
      </g>
     </g>
    </g>
    <g id="ytick_2">
     <g id="line2d_15">
      <path clip-path="url(#p11f9cace6a)" d="M 72 266.584212 
L 518.4 266.584212 
" style="fill:none;stroke:#b0b0b0;stroke-linecap:square;stroke-width:0.8;"/>
     </g>
     <g id="line2d_16">
      <g>
       <use style="stroke:#000000;stroke-width:0.8;" x="72" xlink:href="#ma55054ef04" y="266.584212"/>
      </g>
     </g>
     <g id="text_9">
      <!-- −200 -->
      <g transform="translate(37.532812 270.383431)scale(0.1 -0.1)">
       <use xlink:href="#DejaVuSerif-8722"/>
       <use x="83.789062" xlink:href="#DejaVuSerif-50"/>
       <use x="147.412109" xlink:href="#DejaVuSerif-48"/>
       <use x="211.035156" xlink:href="#DejaVuSerif-48"/>
      </g>
     </g>
    </g>
    <g id="ytick_3">
     <g id="line2d_17">
      <path clip-path="url(#p11f9cace6a)" d="M 72 226.651616 
L 518.4 226.651616 
" style="fill:none;stroke:#b0b0b0;stroke-linecap:square;stroke-width:0.8;"/>
     </g>
     <g id="line2d_18">
      <g>
       <use style="stroke:#000000;stroke-width:0.8;" x="72" xlink:href="#ma55054ef04" y="226.651616"/>
      </g>
     </g>
     <g id="text_10">
      <!-- 0 -->
      <g transform="translate(58.6375 230.450834)scale(0.1 -0.1)">
       <use xlink:href="#DejaVuSerif-48"/>
      </g>
     </g>
    </g>
    <g id="ytick_4">
     <g id="line2d_19">
      <path clip-path="url(#p11f9cace6a)" d="M 72 186.719019 
L 518.4 186.719019 
" style="fill:none;stroke:#b0b0b0;stroke-linecap:square;stroke-width:0.8;"/>
     </g>
     <g id="line2d_20">
      <g>
       <use style="stroke:#000000;stroke-width:0.8;" x="72" xlink:href="#ma55054ef04" y="186.719019"/>
      </g>
     </g>
     <g id="text_11">
      <!-- 200 -->
      <g transform="translate(45.9125 190.518238)scale(0.1 -0.1)">
       <use xlink:href="#DejaVuSerif-50"/>
       <use x="63.623047" xlink:href="#DejaVuSerif-48"/>
       <use x="127.246094" xlink:href="#DejaVuSerif-48"/>
      </g>
     </g>
    </g>
    <g id="ytick_5">
     <g id="line2d_21">
      <path clip-path="url(#p11f9cace6a)" d="M 72 146.786422 
L 518.4 146.786422 
" style="fill:none;stroke:#b0b0b0;stroke-linecap:square;stroke-width:0.8;"/>
     </g>
     <g id="line2d_22">
      <g>
       <use style="stroke:#000000;stroke-width:0.8;" x="72" xlink:href="#ma55054ef04" y="146.786422"/>
      </g>
     </g>
     <g id="text_12">
      <!-- 400 -->
      <g transform="translate(45.9125 150.585641)scale(0.1 -0.1)">
       <use xlink:href="#DejaVuSerif-52"/>
       <use x="63.623047" xlink:href="#DejaVuSerif-48"/>
       <use x="127.246094" xlink:href="#DejaVuSerif-48"/>
      </g>
     </g>
    </g>
    <g id="ytick_6">
     <g id="line2d_23">
      <path clip-path="url(#p11f9cace6a)" d="M 72 106.853826 
L 518.4 106.853826 
" style="fill:none;stroke:#b0b0b0;stroke-linecap:square;stroke-width:0.8;"/>
     </g>
     <g id="line2d_24">
      <g>
       <use style="stroke:#000000;stroke-width:0.8;" x="72" xlink:href="#ma55054ef04" y="106.853826"/>
      </g>
     </g>
     <g id="text_13">
      <!-- 600 -->
      <g transform="translate(45.9125 110.653045)scale(0.1 -0.1)">
       <use xlink:href="#DejaVuSerif-54"/>
       <use x="63.623047" xlink:href="#DejaVuSerif-48"/>
       <use x="127.246094" xlink:href="#DejaVuSerif-48"/>
      </g>
     </g>
    </g>
    <g id="ytick_7">
     <g id="line2d_25">
      <path clip-path="url(#p11f9cace6a)" d="M 72 66.921229 
L 518.4 66.921229 
" style="fill:none;stroke:#b0b0b0;stroke-linecap:square;stroke-width:0.8;"/>
     </g>
     <g id="line2d_26">
      <g>
       <use style="stroke:#000000;stroke-width:0.8;" x="72" xlink:href="#ma55054ef04" y="66.921229"/>
      </g>
     </g>
     <g id="text_14">
      <!-- 800 -->
      <g transform="translate(45.9125 70.720448)scale(0.1 -0.1)">
       <use xlink:href="#DejaVuSerif-56"/>
       <use x="63.623047" xlink:href="#DejaVuSerif-48"/>
       <use x="127.246094" xlink:href="#DejaVuSerif-48"/>
      </g>
     </g>
    </g>
    <g id="text_15">
     <!-- HP Difference -->
     <g transform="translate(31.453125 217.710938)rotate(-90)scale(0.1 -0.1)">
      <defs>
       <path d="M 5.515625 0 
L 5.515625 5.171875 
L 14.796875 5.171875 
L 14.796875 67.671875 
L 5.515625 67.671875 
L 5.515625 72.90625 
L 33.984375 72.90625 
L 33.984375 67.671875 
L 24.703125 67.671875 
L 24.703125 42.484375 
L 62.5 42.484375 
L 62.5 67.671875 
L 53.21875 67.671875 
L 53.21875 72.90625 
L 81.6875 72.90625 
L 81.6875 67.671875 
L 72.40625 67.671875 
L 72.40625 5.171875 
L 81.6875 5.171875 
L 81.6875 0 
L 53.21875 0 
L 53.21875 5.171875 
L 62.5 5.171875 
L 62.5 36.53125 
L 24.703125 36.53125 
L 24.703125 5.171875 
L 33.984375 5.171875 
L 33.984375 0 
z
" id="DejaVuSerif-72"/>
       <path d="M 24.703125 37.109375 
L 37.59375 37.109375 
Q 44.875 37.109375 48.671875 41.03125 
Q 52.484375 44.96875 52.484375 52.390625 
Q 52.484375 59.859375 48.671875 63.765625 
Q 44.875 67.671875 37.59375 67.671875 
L 24.703125 67.671875 
z
M 5.515625 0 
L 5.515625 5.171875 
L 14.796875 5.171875 
L 14.796875 67.671875 
L 5.515625 67.671875 
L 5.515625 72.90625 
L 39.984375 72.90625 
Q 50.921875 72.90625 57.3125 67.359375 
Q 63.71875 61.8125 63.71875 52.390625 
Q 63.71875 43.015625 57.3125 37.453125 
Q 50.921875 31.890625 39.984375 31.890625 
L 24.703125 31.890625 
L 24.703125 5.171875 
L 35.984375 5.171875 
L 35.984375 0 
z
" id="DejaVuSerif-80"/>
       <path id="DejaVuSerif-32"/>
       <path d="M 24.703125 5.171875 
L 33.796875 5.171875 
Q 48 5.171875 55.59375 13.28125 
Q 63.1875 21.390625 63.1875 36.53125 
Q 63.1875 51.65625 55.609375 59.65625 
Q 48.046875 67.671875 33.796875 67.671875 
L 24.703125 67.671875 
z
M 5.515625 0 
L 5.515625 5.171875 
L 14.796875 5.171875 
L 14.796875 67.671875 
L 5.515625 67.671875 
L 5.515625 72.90625 
L 34.515625 72.90625 
Q 53.375 72.90625 63.890625 63.28125 
Q 74.421875 53.65625 74.421875 36.53125 
Q 74.421875 19.34375 63.875 9.671875 
Q 53.328125 0 34.515625 0 
z
" id="DejaVuSerif-68"/>
       <path d="M 9.71875 68.015625 
Q 9.71875 70.265625 11.34375 71.921875 
Q 12.984375 73.578125 15.28125 73.578125 
Q 17.53125 73.578125 19.15625 71.921875 
Q 20.796875 70.265625 20.796875 68.015625 
Q 20.796875 65.71875 19.1875 64.109375 
Q 17.578125 62.5 15.28125 62.5 
Q 12.984375 62.5 11.34375 64.109375 
Q 9.71875 65.71875 9.71875 68.015625 
z
M 21.1875 5.171875 
L 29.6875 5.171875 
L 29.6875 0 
L 3.609375 0 
L 3.609375 5.171875 
L 12.203125 5.171875 
L 12.203125 46.6875 
L 3.609375 46.6875 
L 3.609375 51.90625 
L 21.1875 51.90625 
z
" id="DejaVuSerif-105"/>
       <path d="M 43.015625 63.71875 
L 38.28125 63.71875 
Q 38.234375 67.390625 36.203125 69.28125 
Q 34.1875 71.1875 30.328125 71.1875 
Q 25.296875 71.1875 23.234375 68.421875 
Q 21.1875 65.671875 21.1875 58.59375 
L 21.1875 51.90625 
L 35.6875 51.90625 
L 35.6875 46.6875 
L 21.1875 46.6875 
L 21.1875 5.171875 
L 32.71875 5.171875 
L 32.71875 0 
L 3.609375 0 
L 3.609375 5.171875 
L 12.203125 5.171875 
L 12.203125 46.6875 
L 3.609375 46.6875 
L 3.609375 51.90625 
L 12.203125 51.90625 
L 12.203125 58.40625 
Q 12.203125 67.09375 16.71875 71.53125 
Q 21.234375 75.984375 29.984375 75.984375 
Q 33.25 75.984375 36.515625 75.390625 
Q 39.796875 74.8125 43.015625 73.578125 
z
" id="DejaVuSerif-102"/>
       <path d="M 54.203125 25 
L 15.484375 25 
L 15.484375 24.609375 
Q 15.484375 14.109375 19.4375 8.765625 
Q 23.390625 3.421875 31.109375 3.421875 
Q 37.015625 3.421875 40.796875 6.515625 
Q 44.578125 9.625 46.09375 15.71875 
L 53.328125 15.71875 
Q 51.171875 7.171875 45.375 2.875 
Q 39.59375 -1.421875 30.171875 -1.421875 
Q 18.796875 -1.421875 11.890625 6.078125 
Q 4.984375 13.578125 4.984375 25.984375 
Q 4.984375 38.28125 11.765625 45.796875 
Q 18.5625 53.328125 29.59375 53.328125 
Q 41.359375 53.328125 47.65625 46.0625 
Q 53.953125 38.8125 54.203125 25 
z
M 43.609375 30.171875 
Q 43.3125 39.265625 39.765625 43.875 
Q 36.234375 48.484375 29.59375 48.484375 
Q 23.390625 48.484375 19.828125 43.84375 
Q 16.265625 39.203125 15.484375 30.171875 
z
" id="DejaVuSerif-101"/>
       <path d="M 47.796875 52 
L 47.796875 39.015625 
L 42.625 39.015625 
Q 42.390625 42.875 40.484375 44.78125 
Q 38.578125 46.6875 34.90625 46.6875 
Q 28.265625 46.6875 24.71875 42.09375 
Q 21.1875 37.5 21.1875 28.90625 
L 21.1875 5.171875 
L 31.59375 5.171875 
L 31.59375 0 
L 4.109375 0 
L 4.109375 5.171875 
L 12.203125 5.171875 
L 12.203125 46.78125 
L 3.609375 46.78125 
L 3.609375 51.90625 
L 21.1875 51.90625 
L 21.1875 42.671875 
Q 23.828125 48.09375 27.96875 50.703125 
Q 32.125 53.328125 38.09375 53.328125 
Q 40.28125 53.328125 42.703125 52.984375 
Q 45.125 52.640625 47.796875 52 
z
" id="DejaVuSerif-114"/>
       <path d="M 4.109375 0 
L 4.109375 5.171875 
L 12.203125 5.171875 
L 12.203125 46.6875 
L 3.609375 46.6875 
L 3.609375 51.90625 
L 21.1875 51.90625 
L 21.1875 42.671875 
Q 23.6875 47.953125 27.65625 50.640625 
Q 31.640625 53.328125 36.921875 53.328125 
Q 45.515625 53.328125 49.5625 48.390625 
Q 53.609375 43.453125 53.609375 33.015625 
L 53.609375 5.171875 
L 61.625 5.171875 
L 61.625 0 
L 36.8125 0 
L 36.8125 5.171875 
L 44.578125 5.171875 
L 44.578125 30.171875 
Q 44.578125 39.703125 42.234375 43.234375 
Q 39.890625 46.78125 33.984375 46.78125 
Q 27.734375 46.78125 24.453125 42.203125 
Q 21.1875 37.640625 21.1875 28.90625 
L 21.1875 5.171875 
L 29 5.171875 
L 29 0 
z
" id="DejaVuSerif-110"/>
      </defs>
      <use xlink:href="#DejaVuSerif-72"/>
      <use x="87.207031" xlink:href="#DejaVuSerif-80"/>
      <use x="154.492188" xlink:href="#DejaVuSerif-32"/>
      <use x="186.279297" xlink:href="#DejaVuSerif-68"/>
      <use x="266.455078" xlink:href="#DejaVuSerif-105"/>
      <use x="298.4375" xlink:href="#DejaVuSerif-102"/>
      <use x="335.449219" xlink:href="#DejaVuSerif-102"/>
      <use x="372.460938" xlink:href="#DejaVuSerif-101"/>
      <use x="431.640625" xlink:href="#DejaVuSerif-114"/>
      <use x="479.443359" xlink:href="#DejaVuSerif-101"/>
      <use x="538.623047" xlink:href="#DejaVuSerif-110"/>
      <use x="603.027344" xlink:href="#DejaVuSerif-99"/>
      <use x="659.033203" xlink:href="#DejaVuSerif-101"/>
     </g>
    </g>
   </g>
   <g id="LineCollection_1">
    <path clip-path="url(#p11f9cace6a)" d="M 127.174993 243.748757 
L 127.174993 209.554475 
" style="fill:none;stroke:#66c2a5;stroke-dasharray:7.4,3.2;stroke-dashoffset:0;stroke-opacity:0.5;stroke-width:2;"/>
   </g>
   <g id="LineCollection_2">
    <path clip-path="url(#p11f9cace6a)" d="M 210.896796 178.23534 
L 210.896796 144.041058 
" style="fill:none;stroke:#66c2a5;stroke-dasharray:7.4,3.2;stroke-dashoffset:0;stroke-opacity:0.5;stroke-width:2;"/>
   </g>
   <g id="LineCollection_3">
    <path clip-path="url(#p11f9cace6a)" d="M 123.686585 242.440565 
L 123.686585 210.862666 
" style="fill:none;stroke:#fc8d62;stroke-dasharray:7.4,3.2;stroke-dashoffset:0;stroke-opacity:0.5;stroke-width:2;"/>
   </g>
   <g id="LineCollection_4">
    <path clip-path="url(#p11f9cace6a)" d="M 257.408909 165.783957 
L 257.408909 134.206059 
" style="fill:none;stroke:#fc8d62;stroke-dasharray:7.4,3.2;stroke-dashoffset:0;stroke-opacity:0.5;stroke-width:2;"/>
   </g>
   <g id="LineCollection_5">
    <path clip-path="url(#p11f9cace6a)" d="M 120.198177 244.783211 
L 120.198177 208.52002 
" style="fill:none;stroke:#8da0cb;stroke-dasharray:7.4,3.2;stroke-dashoffset:0;stroke-opacity:0.5;stroke-width:2;"/>
   </g>
   <g id="LineCollection_6">
    <path clip-path="url(#p11f9cace6a)" d="M 263.222923 177.476818 
L 263.222923 141.213627 
" style="fill:none;stroke:#8da0cb;stroke-dasharray:7.4,3.2;stroke-dashoffset:0;stroke-opacity:0.5;stroke-width:2;"/>
   </g>
   <g id="LineCollection_7">
    <path clip-path="url(#p11f9cace6a)" d="M 108.570148 249.097528 
L 108.570148 204.205703 
" style="fill:none;stroke:#e78ac3;stroke-dasharray:7.4,3.2;stroke-dashoffset:0;stroke-opacity:0.5;stroke-width:2;"/>
   </g>
   <g id="LineCollection_8">
    <path clip-path="url(#p11f9cace6a)" d="M 256.246106 157.034924 
L 256.246106 112.143099 
" style="fill:none;stroke:#e78ac3;stroke-dasharray:7.4,3.2;stroke-dashoffset:0;stroke-opacity:0.5;stroke-width:2;"/>
   </g>
   <g id="LineCollection_9">
    <path clip-path="url(#p11f9cace6a)" d="M 108.570148 253.931569 
L 108.570148 199.371663 
" style="fill:none;stroke:#a6d854;stroke-dasharray:7.4,3.2;stroke-dashoffset:0;stroke-opacity:0.5;stroke-width:2;"/>
   </g>
   <g id="LineCollection_10">
    <path clip-path="url(#p11f9cace6a)" d="M 435.317739 110.359906 
L 435.317739 55.8 
" style="fill:none;stroke:#a6d854;stroke-dasharray:7.4,3.2;stroke-dashoffset:0;stroke-opacity:0.5;stroke-width:2;"/>
   </g>
   <g id="LineCollection_11">
    <path clip-path="url(#p11f9cace6a)" d="M 105.08174 246.593755 
L 105.08174 206.709476 
" style="fill:none;stroke:#ffd92f;stroke-dasharray:7.4,3.2;stroke-dashoffset:0;stroke-opacity:0.5;stroke-width:2;"/>
   </g>
   <g id="LineCollection_12">
    <path clip-path="url(#p11f9cace6a)" d="M 224.85043 185.906189 
L 224.85043 146.02191 
" style="fill:none;stroke:#ffd92f;stroke-dasharray:7.4,3.2;stroke-dashoffset:0;stroke-opacity:0.5;stroke-width:2;"/>
   </g>
   <g id="line2d_27">
    <path clip-path="url(#p11f9cace6a)" d="M 92.290909 299.789602 
L 93.841313 295.09313 
L 95.391717 290.512781 
L 96.166918 287.98984 
L 97.717322 283.58224 
L 100.042928 276.248539 
L 103.143735 266.249257 
L 105.469341 263.254472 
L 106.244543 262.859938 
L 107.019745 261.678413 
L 107.794947 261.118638 
L 108.570148 260.820581 
L 109.34535 259.563503 
L 110.120552 258.723401 
L 111.670956 256.299492 
L 112.446158 255.553791 
L 113.22136 254.080597 
L 116.322167 249.323347 
L 117.872571 246.231925 
L 118.647773 245.060623 
L 120.198177 242.078456 
L 120.973378 240.439702 
L 121.74858 239.26233 
L 127.174993 227.584201 
L 127.950195 225.49389 
L 128.725397 224.439829 
L 129.500599 222.559004 
L 134.15181 213.722719 
L 134.927012 212.834937 
L 135.702214 211.372845 
L 137.252618 210.116566 
L 138.02782 208.723956 
L 138.803022 207.612792 
L 139.578223 207.052378 
L 140.353425 206.067321 
L 141.128627 204.291039 
L 141.903829 203.921503 
L 142.679031 203.363564 
L 144.229435 201.38155 
L 145.004637 200.862905 
L 145.779838 200.094602 
L 147.330242 198.835607 
L 148.105444 197.764136 
L 148.880646 197.035206 
L 149.655848 196.490126 
L 150.43105 195.780923 
L 151.206252 195.257567 
L 151.981454 194.314758 
L 152.756655 193.574568 
L 153.531857 192.442558 
L 155.082261 190.601346 
L 155.857463 189.198594 
L 156.632665 188.334612 
L 157.407867 187.994786 
L 158.95827 186.383106 
L 160.508674 186.00167 
L 161.283876 184.951523 
L 162.059078 184.293034 
L 163.609482 183.616416 
L 164.384684 182.688862 
L 169.035895 179.794787 
L 169.811097 179.394822 
L 170.586299 178.622366 
L 171.3615 178.562946 
L 172.136702 178.198841 
L 172.911904 178.13982 
L 173.687106 177.877543 
L 174.462308 177.370878 
L 175.23751 177.294127 
L 176.012712 176.807349 
L 177.563115 176.032178 
L 179.113519 174.31835 
L 179.888721 173.653872 
L 181.439125 173.516105 
L 182.214327 172.95625 
L 182.989529 172.544864 
L 184.539932 172.125572 
L 185.315134 171.611799 
L 186.090336 171.532812 
L 186.865538 170.998434 
L 188.415942 170.461501 
L 189.191144 170.128383 
L 191.516749 169.569167 
L 192.291951 169.660932 
L 193.067153 169.150194 
L 193.842355 169.264241 
L 194.617557 169.248588 
L 195.392759 168.969539 
L 196.16796 168.53651 
L 197.718364 168.539545 
L 198.493566 168.559431 
L 199.268768 168.412719 
L 200.819172 167.334459 
L 201.594374 167.13208 
L 202.369575 166.767656 
L 203.919979 166.199335 
L 205.470383 165.394054 
L 206.245585 165.35516 
L 207.020787 164.824855 
L 207.795989 164.747466 
L 208.57119 164.469295 
L 209.346392 164.40117 
L 210.121594 164.009911 
L 210.896796 164.012386 
L 211.671998 163.65491 
L 213.222402 163.340081 
L 213.997604 162.763215 
L 214.772805 162.378345 
L 215.548007 162.230434 
L 216.323209 161.867127 
L 217.098411 161.707956 
L 217.873613 161.778956 
L 220.199219 160.893251 
L 220.97442 160.868333 
L 221.749622 160.643193 
L 222.524824 160.721302 
L 223.300026 160.452954 
L 224.075228 160.632172 
L 224.85043 160.494644 
L 228.726439 160.376523 
L 230.276843 159.639687 
L 231.052045 159.671074 
L 231.827247 159.843982 
L 232.602449 159.422613 
L 233.37765 159.182139 
L 234.928054 158.475172 
L 236.478458 157.812132 
L 237.25366 157.099974 
L 239.579265 156.457219 
L 240.354467 156.085526 
L 241.129669 155.930029 
L 241.904871 155.399404 
L 241.904871 155.399404 
" style="fill:none;stroke:#66c2a5;stroke-linecap:square;stroke-width:2;"/>
    <defs>
     <path d="M 0 3 
C 0.795609 3 1.55874 2.683901 2.12132 2.12132 
C 2.683901 1.55874 3 0.795609 3 0 
C 3 -0.795609 2.683901 -1.55874 2.12132 -2.12132 
C 1.55874 -2.683901 0.795609 -3 0 -3 
C -0.795609 -3 -1.55874 -2.683901 -2.12132 -2.12132 
C -2.683901 -1.55874 -3 -0.795609 -3 0 
C -3 0.795609 -2.683901 1.55874 -2.12132 2.12132 
C -1.55874 2.683901 -0.795609 3 0 3 
z
" id="mec4192fd9a" style="stroke:#66c2a5;"/>
    </defs>
    <g clip-path="url(#p11f9cace6a)">
     <use style="fill:#66c2a5;stroke:#66c2a5;" x="92.290909" xlink:href="#mec4192fd9a" y="299.789602"/>
     <use style="fill:#66c2a5;stroke:#66c2a5;" x="107.794947" xlink:href="#mec4192fd9a" y="261.118638"/>
     <use style="fill:#66c2a5;stroke:#66c2a5;" x="123.298984" xlink:href="#mec4192fd9a" y="235.936583"/>
     <use style="fill:#66c2a5;stroke:#66c2a5;" x="138.803022" xlink:href="#mec4192fd9a" y="207.612792"/>
     <use style="fill:#66c2a5;stroke:#66c2a5;" x="154.307059" xlink:href="#mec4192fd9a" y="191.59423"/>
     <use style="fill:#66c2a5;stroke:#66c2a5;" x="169.811097" xlink:href="#mec4192fd9a" y="179.394822"/>
     <use style="fill:#66c2a5;stroke:#66c2a5;" x="185.315134" xlink:href="#mec4192fd9a" y="171.611799"/>
     <use style="fill:#66c2a5;stroke:#66c2a5;" x="200.819172" xlink:href="#mec4192fd9a" y="167.334459"/>
     <use style="fill:#66c2a5;stroke:#66c2a5;" x="216.323209" xlink:href="#mec4192fd9a" y="161.867127"/>
     <use style="fill:#66c2a5;stroke:#66c2a5;" x="231.827247" xlink:href="#mec4192fd9a" y="159.843982"/>
    </g>
   </g>
   <g id="line2d_28">
    <path clip-path="url(#p11f9cace6a)" d="M 92.290909 268.849748 
L 93.453712 267.819167 
L 95.779318 265.351892 
L 96.94212 264.450134 
L 99.267726 261.683444 
L 100.430529 260.58402 
L 101.593332 258.833614 
L 102.756134 257.511446 
L 105.08174 254.105276 
L 107.407346 250.831362 
L 108.570148 247.984567 
L 109.732951 245.870615 
L 110.895754 245.403723 
L 112.058557 244.321231 
L 113.22136 243.027335 
L 119.035374 235.12108 
L 120.198177 232.862332 
L 124.849388 225.203739 
L 126.012191 222.710987 
L 127.174993 220.911784 
L 128.337796 218.825465 
L 129.500599 216.47048 
L 134.15181 209.760766 
L 136.477416 205.963096 
L 138.803022 203.225637 
L 144.617036 194.950565 
L 145.779838 193.636463 
L 148.105444 189.814514 
L 149.268247 188.407688 
L 150.43105 187.995664 
L 151.593853 186.876832 
L 152.756655 185.945764 
L 153.919458 185.218112 
L 156.245064 183.308296 
L 159.733472 180.988531 
L 160.896275 179.730974 
L 162.059078 178.718922 
L 163.221881 178.163939 
L 166.710289 175.461461 
L 167.873092 174.83404 
L 169.035895 173.628235 
L 170.198698 173.255744 
L 171.3615 172.517949 
L 173.687106 172.043071 
L 174.849909 171.455902 
L 176.012712 171.630807 
L 177.175514 170.805879 
L 178.338317 170.563249 
L 179.50112 169.43691 
L 180.663923 168.748153 
L 181.826726 168.288848 
L 184.152331 167.208751 
L 185.315134 166.748328 
L 186.477937 166.553617 
L 187.64074 166.071471 
L 189.966345 164.462107 
L 192.291951 163.627197 
L 193.454754 163.588462 
L 194.617557 163.251351 
L 198.105965 161.895719 
L 199.268768 160.986694 
L 200.431571 160.439937 
L 201.594374 159.724185 
L 202.757176 158.686337 
L 203.919979 158.282778 
L 205.082782 157.356341 
L 206.245585 157.472306 
L 207.408388 156.565037 
L 208.57119 156.429746 
L 209.733993 156.434458 
L 213.222402 155.775969 
L 215.548007 154.950083 
L 216.71081 154.833879 
L 217.873613 154.841386 
L 219.036416 155.221225 
L 224.85043 153.490627 
L 227.176035 153.148085 
L 230.664444 153.181548 
L 231.827247 153.401896 
L 232.990049 153.071893 
L 234.152852 153.125802 
L 235.315655 152.669612 
L 236.478458 152.851226 
L 237.641261 152.501576 
L 238.804064 152.341366 
L 239.966866 152.020308 
L 241.129669 151.824718 
L 246.943683 151.647258 
L 248.106486 151.003385 
L 249.269289 150.620351 
L 250.432092 150.657888 
L 251.594895 150.545198 
L 252.757697 150.915613 
L 253.9205 151.134923 
L 255.083303 151.025348 
L 258.571711 150.219667 
L 259.734514 149.923208 
L 260.897317 150.146271 
L 266.711331 149.510145 
L 269.036937 149.772742 
L 270.19974 149.87449 
L 271.362542 149.703978 
L 274.850951 149.44833 
L 276.013754 149.121281 
L 277.176556 148.618051 
L 278.339359 149.102673 
L 279.502162 149.271348 
L 280.664965 148.912993 
L 282.99057 147.930412 
L 287.641782 148.142294 
L 288.804585 148.08543 
L 289.967387 147.545062 
L 292.292993 146.794729 
L 293.455796 146.719496 
L 294.618599 146.221855 
L 295.781401 146.02323 
L 296.944204 145.235919 
L 298.107007 144.811595 
L 299.26981 144.186331 
L 300.432613 143.941943 
L 305.083824 142.486719 
L 305.083824 142.486719 
" style="fill:none;stroke:#fc8d62;stroke-linecap:square;stroke-width:2;"/>
    <defs>
     <path d="M -0 3 
L 3 -3 
L -3 -3 
z
" id="m7836c66312" style="stroke:#fc8d62;stroke-linejoin:miter;"/>
    </defs>
    <g clip-path="url(#p11f9cace6a)">
     <use style="fill:#fc8d62;stroke:#fc8d62;stroke-linejoin:miter;" x="92.290909" xlink:href="#m7836c66312" y="268.849748"/>
     <use style="fill:#fc8d62;stroke:#fc8d62;stroke-linejoin:miter;" x="115.546965" xlink:href="#m7836c66312" y="239.814118"/>
     <use style="fill:#fc8d62;stroke:#fc8d62;stroke-linejoin:miter;" x="138.803022" xlink:href="#m7836c66312" y="203.225637"/>
     <use style="fill:#fc8d62;stroke:#fc8d62;stroke-linejoin:miter;" x="162.059078" xlink:href="#m7836c66312" y="178.718922"/>
     <use style="fill:#fc8d62;stroke:#fc8d62;stroke-linejoin:miter;" x="185.315134" xlink:href="#m7836c66312" y="166.748328"/>
     <use style="fill:#fc8d62;stroke:#fc8d62;stroke-linejoin:miter;" x="208.57119" xlink:href="#m7836c66312" y="156.429746"/>
     <use style="fill:#fc8d62;stroke:#fc8d62;stroke-linejoin:miter;" x="231.827247" xlink:href="#m7836c66312" y="153.401896"/>
     <use style="fill:#fc8d62;stroke:#fc8d62;stroke-linejoin:miter;" x="255.083303" xlink:href="#m7836c66312" y="151.025348"/>
     <use style="fill:#fc8d62;stroke:#fc8d62;stroke-linejoin:miter;" x="278.339359" xlink:href="#m7836c66312" y="149.102673"/>
     <use style="fill:#fc8d62;stroke:#fc8d62;stroke-linejoin:miter;" x="301.595415" xlink:href="#m7836c66312" y="143.578716"/>
    </g>
   </g>
   <g id="line2d_29">
    <path clip-path="url(#p11f9cace6a)" d="M 92.290909 297.664712 
L 95.779318 287.82548 
L 98.104923 280.896056 
L 99.267726 277.154212 
L 100.430529 273.853303 
L 105.08174 258.44523 
L 107.407346 250.097001 
L 109.732951 245.681095 
L 110.895754 244.141614 
L 116.709768 233.680711 
L 117.872571 232.013845 
L 119.035374 229.919859 
L 120.198177 228.131997 
L 123.686585 221.503745 
L 127.174993 215.701379 
L 128.337796 214.1956 
L 129.500599 211.803638 
L 130.663402 210.072001 
L 131.826205 207.851349 
L 132.989008 206.57111 
L 135.314613 203.207987 
L 137.640219 200.177023 
L 138.803022 199.167687 
L 139.965824 197.829306 
L 141.128627 196.898956 
L 142.29143 195.390941 
L 143.454233 194.511386 
L 146.942641 191.250969 
L 148.105444 189.95284 
L 149.268247 188.917867 
L 151.593853 187.76086 
L 155.082261 185.142959 
L 156.245064 184.128192 
L 157.407867 183.271398 
L 158.570669 182.86744 
L 160.896275 181.5404 
L 162.059078 180.517247 
L 166.710289 179.001007 
L 167.873092 178.654312 
L 169.035895 178.028728 
L 170.198698 177.544745 
L 171.3615 177.368961 
L 172.524303 176.953822 
L 174.849909 175.68117 
L 177.175514 174.95855 
L 178.338317 174.741556 
L 179.50112 174.383281 
L 181.826726 173.472099 
L 182.989529 173.138582 
L 184.152331 173.097052 
L 185.315134 173.295357 
L 187.64074 172.156 
L 188.803543 171.888132 
L 189.966345 172.081166 
L 191.129148 171.993874 
L 192.291951 171.773685 
L 193.454754 171.434418 
L 195.780359 170.332119 
L 196.943162 169.97576 
L 198.105965 169.751898 
L 199.268768 169.093409 
L 200.431571 168.997811 
L 202.757176 168.492743 
L 205.082782 168.725869 
L 206.245585 168.231744 
L 207.408388 167.986717 
L 208.57119 167.919311 
L 209.733993 167.693692 
L 210.896796 167.737138 
L 214.385204 166.123702 
L 215.548007 166.055896 
L 217.873613 165.486538 
L 219.036416 164.781727 
L 221.362021 164.053037 
L 222.524824 163.981798 
L 223.687627 164.085942 
L 228.338838 163.940588 
L 230.664444 163.454049 
L 231.827247 163.387122 
L 232.990049 162.672888 
L 234.152852 162.331224 
L 236.478458 161.87176 
L 237.641261 161.378912 
L 239.966866 161.001788 
L 243.455275 161.092275 
L 244.618078 160.727611 
L 245.78088 160.842297 
L 250.432092 160.373249 
L 252.757697 160.053628 
L 255.083303 160.032065 
L 256.246106 159.879202 
L 257.408909 160.213917 
L 258.571711 159.885432 
L 259.734514 159.702621 
L 260.897317 159.706534 
L 262.06012 159.952519 
L 263.222923 159.805167 
L 269.036937 159.843184 
L 271.362542 159.633937 
L 272.525345 159.374135 
L 273.688148 159.470373 
L 276.013754 159.042694 
L 277.176556 159.174712 
L 278.339359 159.016898 
L 279.502162 159.123359 
L 284.153373 158.07992 
L 285.316176 158.028007 
L 286.478979 157.47558 
L 288.804585 157.825469 
L 289.967387 157.609034 
L 291.13019 157.561993 
L 292.292993 157.633313 
L 293.455796 157.511599 
L 294.618599 157.080726 
L 295.781401 156.967956 
L 298.107007 157.028734 
L 300.432613 156.79385 
L 305.083824 157.747601 
L 306.246627 157.663663 
L 308.572232 158.057318 
L 316.711852 159.442901 
L 316.711852 159.442901 
" style="fill:none;stroke:#8da0cb;stroke-linecap:square;stroke-width:2;"/>
    <defs>
     <path d="M -3 3 
L 3 3 
L 3 -3 
L -3 -3 
z
" id="m836207567f" style="stroke:#8da0cb;stroke-linejoin:miter;"/>
    </defs>
    <g clip-path="url(#p11f9cace6a)">
     <use style="fill:#8da0cb;stroke:#8da0cb;stroke-linejoin:miter;" x="92.290909" xlink:href="#m836207567f" y="297.664712"/>
     <use style="fill:#8da0cb;stroke:#8da0cb;stroke-linejoin:miter;" x="115.546965" xlink:href="#m836207567f" y="235.755928"/>
     <use style="fill:#8da0cb;stroke:#8da0cb;stroke-linejoin:miter;" x="138.803022" xlink:href="#m836207567f" y="199.167687"/>
     <use style="fill:#8da0cb;stroke:#8da0cb;stroke-linejoin:miter;" x="162.059078" xlink:href="#m836207567f" y="180.517247"/>
     <use style="fill:#8da0cb;stroke:#8da0cb;stroke-linejoin:miter;" x="185.315134" xlink:href="#m836207567f" y="173.295357"/>
     <use style="fill:#8da0cb;stroke:#8da0cb;stroke-linejoin:miter;" x="208.57119" xlink:href="#m836207567f" y="167.919311"/>
     <use style="fill:#8da0cb;stroke:#8da0cb;stroke-linejoin:miter;" x="231.827247" xlink:href="#m836207567f" y="163.387122"/>
     <use style="fill:#8da0cb;stroke:#8da0cb;stroke-linejoin:miter;" x="255.083303" xlink:href="#m836207567f" y="160.032065"/>
     <use style="fill:#8da0cb;stroke:#8da0cb;stroke-linejoin:miter;" x="278.339359" xlink:href="#m836207567f" y="159.016898"/>
     <use style="fill:#8da0cb;stroke:#8da0cb;stroke-linejoin:miter;" x="301.595415" xlink:href="#m836207567f" y="157.008448"/>
    </g>
   </g>
   <g id="line2d_30">
    <path clip-path="url(#p11f9cace6a)" d="M 92.290909 307.8 
L 99.267726 278.041671 
L 101.593332 267.09463 
L 103.918937 254.346788 
L 106.244543 240.874808 
L 107.407346 233.553326 
L 108.570148 226.989126 
L 109.732951 222.079813 
L 110.895754 218.768522 
L 113.22136 211.509575 
L 115.546965 204.573123 
L 117.872571 196.947354 
L 119.035374 193.861364 
L 120.198177 190.45112 
L 122.523782 184.58558 
L 124.849388 179.126076 
L 127.174993 173.211339 
L 131.826205 165.181294 
L 132.989008 163.960954 
L 135.314613 162.066551 
L 136.477416 161.566835 
L 137.640219 160.84086 
L 138.803022 160.265272 
L 139.965824 159.47812 
L 141.128627 158.407927 
L 142.29143 157.65392 
L 144.617036 156.525025 
L 146.942641 156.162757 
L 148.105444 155.508022 
L 149.268247 155.427438 
L 152.756655 154.532548 
L 153.919458 153.987468 
L 156.245064 152.581521 
L 157.407867 152.082364 
L 158.570669 151.393527 
L 159.733472 150.842776 
L 162.059078 150.527468 
L 163.221881 149.816588 
L 164.384684 149.438905 
L 165.547486 149.239322 
L 166.710289 148.442108 
L 169.035895 147.815885 
L 170.198698 147.651203 
L 171.3615 147.184471 
L 173.687106 146.542195 
L 174.849909 146.141112 
L 176.012712 145.236958 
L 177.175514 144.588852 
L 179.50112 142.975335 
L 180.663923 142.417237 
L 181.826726 142.166301 
L 182.989529 142.102968 
L 184.152331 142.210626 
L 186.477937 142.116625 
L 188.803543 142.029332 
L 191.129148 141.164951 
L 192.291951 140.989966 
L 193.454754 140.674659 
L 194.617557 140.176539 
L 195.780359 140.090125 
L 196.943162 139.647113 
L 198.105965 139.414066 
L 199.268768 139.061062 
L 200.431571 139.140049 
L 201.594374 138.566058 
L 202.757176 138.693682 
L 203.919979 138.276386 
L 207.408388 138.382288 
L 209.733993 138.854131 
L 210.896796 138.582829 
L 212.059599 138.477887 
L 213.222402 138.183983 
L 214.385204 138.089902 
L 215.548007 137.842879 
L 216.71081 137.863244 
L 217.873613 137.317046 
L 221.362021 136.796645 
L 223.687627 136.4676 
L 224.85043 136.54499 
L 226.013233 136.49747 
L 227.176035 136.642026 
L 228.338838 136.642665 
L 229.501641 136.410896 
L 230.664444 136.575418 
L 231.827247 136.119628 
L 232.990049 136.320648 
L 234.152852 136.013806 
L 235.315655 135.924038 
L 236.478458 135.956543 
L 237.641261 135.748255 
L 238.804064 135.33599 
L 239.966866 135.491967 
L 241.129669 135.140161 
L 242.292472 135.102943 
L 243.455275 134.854483 
L 244.618078 134.795143 
L 245.78088 134.601709 
L 246.943683 134.637489 
L 253.9205 134.117007 
L 255.083303 133.913191 
L 256.246106 133.506517 
L 258.571711 133.082194 
L 259.734514 133.120209 
L 262.06012 132.736617 
L 264.385725 132.565386 
L 266.711331 132.210306 
L 269.036937 131.97071 
L 270.19974 132.163664 
L 271.362542 131.837255 
L 272.525345 132.072059 
L 278.339359 131.243937 
L 280.664965 131.39033 
L 284.153373 130.931824 
L 285.316176 130.988688 
L 287.641782 130.843653 
L 288.804585 130.560531 
L 289.967387 130.553263 
L 292.292993 129.971525 
L 298.107007 129.624191 
L 299.26981 129.219115 
L 300.432613 129.249863 
L 301.595415 128.945497 
L 302.758218 128.769554 
L 305.083824 128.919141 
L 309.735035 129.119523 
L 312.060641 129.380124 
L 313.223444 129.503915 
L 314.386246 129.501359 
L 316.711852 129.737441 
L 319.037458 129.827768 
L 319.037458 129.827768 
" style="fill:none;stroke:#e78ac3;stroke-linecap:square;stroke-width:2;"/>
    <defs>
     <path d="M 0 -3 
L -2.85317 -0.927051 
L -1.763356 2.427051 
L 1.763356 2.427051 
L 2.85317 -0.927051 
z
" id="mf2a2425e08" style="stroke:#e78ac3;stroke-linejoin:miter;"/>
    </defs>
    <g clip-path="url(#p11f9cace6a)">
     <use style="fill:#e78ac3;stroke:#e78ac3;stroke-linejoin:miter;" x="92.290909" xlink:href="#mf2a2425e08" y="307.8"/>
     <use style="fill:#e78ac3;stroke:#e78ac3;stroke-linejoin:miter;" x="115.546965" xlink:href="#mf2a2425e08" y="204.573123"/>
     <use style="fill:#e78ac3;stroke:#e78ac3;stroke-linejoin:miter;" x="138.803022" xlink:href="#mf2a2425e08" y="160.265272"/>
     <use style="fill:#e78ac3;stroke:#e78ac3;stroke-linejoin:miter;" x="162.059078" xlink:href="#mf2a2425e08" y="150.527468"/>
     <use style="fill:#e78ac3;stroke:#e78ac3;stroke-linejoin:miter;" x="185.315134" xlink:href="#mf2a2425e08" y="142.110475"/>
     <use style="fill:#e78ac3;stroke:#e78ac3;stroke-linejoin:miter;" x="208.57119" xlink:href="#mf2a2425e08" y="138.640572"/>
     <use style="fill:#e78ac3;stroke:#e78ac3;stroke-linejoin:miter;" x="231.827247" xlink:href="#mf2a2425e08" y="136.119628"/>
     <use style="fill:#e78ac3;stroke:#e78ac3;stroke-linejoin:miter;" x="255.083303" xlink:href="#mf2a2425e08" y="133.913191"/>
     <use style="fill:#e78ac3;stroke:#e78ac3;stroke-linejoin:miter;" x="278.339359" xlink:href="#mf2a2425e08" y="131.243937"/>
     <use style="fill:#e78ac3;stroke:#e78ac3;stroke-linejoin:miter;" x="301.595415" xlink:href="#mf2a2425e08" y="128.945497"/>
    </g>
   </g>
   <g id="line2d_31">
    <path clip-path="url(#p11f9cace6a)" d="M 92.290909 301.277571 
L 94.616515 291.849325 
L 96.94212 282.585762 
L 105.08174 243.443272 
L 108.570148 225.672948 
L 109.732951 220.968488 
L 112.058557 214.769592 
L 113.22136 212.164149 
L 115.546965 207.981849 
L 116.709768 206.414255 
L 119.035374 202.552533 
L 120.198177 200.883431 
L 121.360979 199.8467 
L 126.012191 193.246321 
L 128.337796 191.314303 
L 129.500599 190.155059 
L 131.826205 188.506482 
L 132.989008 187.817805 
L 134.15181 187.2994 
L 135.314613 186.650974 
L 137.640219 185.583735 
L 138.803022 184.80489 
L 139.965824 184.484311 
L 141.128627 184.022531 
L 142.29143 183.264929 
L 143.454233 182.736541 
L 144.617036 182.454457 
L 145.779838 181.823282 
L 146.942641 181.453027 
L 148.105444 180.760436 
L 149.268247 180.320859 
L 150.43105 179.701025 
L 151.593853 178.95157 
L 153.919458 178.231984 
L 156.245064 176.951665 
L 158.570669 175.951034 
L 159.733472 175.852321 
L 160.896275 175.39637 
L 163.221881 174.159338 
L 164.384684 173.969658 
L 166.710289 173.027888 
L 167.873092 172.516751 
L 169.035895 171.767455 
L 170.198698 171.405506 
L 171.3615 171.229004 
L 172.524303 170.418213 
L 173.687106 169.882557 
L 176.012712 168.490187 
L 178.338317 167.667097 
L 179.50112 167.099894 
L 180.663923 166.91844 
L 184.152331 165.458505 
L 185.315134 164.885792 
L 187.64074 164.251343 
L 188.803543 163.52433 
L 193.454754 161.296491 
L 195.780359 159.960745 
L 196.943162 159.467817 
L 198.105965 159.103951 
L 200.431571 157.887365 
L 201.594374 157.607118 
L 202.757176 156.494117 
L 203.919979 156.147342 
L 206.245585 154.624313 
L 207.408388 154.16373 
L 209.733993 152.70619 
L 213.222402 150.889576 
L 214.385204 150.587127 
L 221.362021 146.250207 
L 222.524824 145.472879 
L 223.687627 144.557624 
L 228.338838 142.049218 
L 230.664444 140.468287 
L 231.827247 139.925922 
L 232.990049 138.930882 
L 235.315655 137.939436 
L 237.641261 136.401791 
L 239.966866 135.114763 
L 241.129669 134.302934 
L 242.292472 134.066852 
L 243.455275 133.178512 
L 245.78088 131.927104 
L 246.943683 130.988768 
L 248.106486 130.535214 
L 251.594895 128.780336 
L 253.9205 127.677637 
L 255.083303 126.835778 
L 256.246106 126.454022 
L 258.571711 125.187999 
L 259.734514 124.600112 
L 260.897317 123.812401 
L 262.06012 123.543975 
L 262.06012 122.872548 
L 263.222923 122.211903 
L 264.385725 121.14722 
L 265.548528 120.554701 
L 266.711331 120.15785 
L 271.362542 117.758859 
L 273.688148 116.059168 
L 274.850951 115.908702 
L 276.013754 115.511213 
L 277.176556 114.849929 
L 278.339359 114.775096 
L 279.502162 113.989941 
L 281.827768 112.871828 
L 282.99057 112.594137 
L 284.153373 111.603808 
L 285.316176 111.228522 
L 286.478979 110.635523 
L 287.641782 110.185562 
L 289.967387 109.649267 
L 291.13019 109.812192 
L 292.292993 109.459747 
L 293.455796 109.411348 
L 294.618599 108.950207 
L 296.944204 107.32495 
L 298.107007 106.887848 
L 299.26981 106.073223 
L 300.432613 105.65441 
L 301.595415 105.496517 
L 302.758218 105.469842 
L 303.921021 104.740593 
L 305.083824 104.174349 
L 306.246627 104.028834 
L 307.40943 103.328017 
L 308.572232 103.08371 
L 309.735035 102.370034 
L 310.897838 102.194091 
L 312.060641 101.546704 
L 313.223444 101.383779 
L 314.386246 100.96816 
L 316.711852 100.644307 
L 317.874655 100.156331 
L 319.037458 99.433631 
L 320.20026 98.477405 
L 321.363063 98.010034 
L 323.688669 97.404736 
L 324.851472 97.018428 
L 326.014275 97.205552 
L 328.33988 96.899109 
L 329.502683 96.928979 
L 330.665486 96.407379 
L 331.828289 96.014842 
L 332.991091 95.882665 
L 334.153894 95.55402 
L 335.316697 95.052946 
L 337.642303 94.715275 
L 338.805105 94.983862 
L 339.967908 94.592443 
L 342.293514 94.41682 
L 343.456317 94.198548 
L 345.781922 93.195841 
L 346.944725 93.465705 
L 348.107528 93.129712 
L 349.270331 92.986194 
L 350.433134 92.657788 
L 351.595936 92.677914 
L 353.921542 92.287852 
L 356.247148 91.600932 
L 357.409951 91.797001 
L 358.572753 91.311261 
L 360.898359 91.417562 
L 362.061162 90.995075 
L 364.386767 90.718102 
L 365.54957 90.402395 
L 366.712373 90.273572 
L 367.875176 89.793343 
L 370.200781 89.374609 
L 371.363584 89.091327 
L 373.68919 88.934872 
L 374.851993 89.091248 
L 376.014796 88.811001 
L 378.340401 89.03678 
L 379.503204 88.885595 
L 380.666007 88.513263 
L 381.82881 88.605827 
L 384.154415 88.48595 
L 386.480021 88.127115 
L 391.131232 87.605276 
L 392.294035 87.641535 
L 393.456838 87.55536 
L 394.619641 87.627958 
L 395.782443 87.478451 
L 396.945246 87.866915 
L 398.108049 87.634667 
L 403.922063 87.412561 
L 405.084866 87.09957 
L 406.247669 86.928259 
L 407.410471 86.378706 
L 408.573274 86.415045 
L 410.89888 85.807191 
L 412.061683 85.947434 
L 413.224486 85.654489 
L 414.387288 85.17418 
L 415.550091 85.466087 
L 416.712894 85.222897 
L 417.875697 84.695228 
L 419.0385 84.504191 
L 420.201302 83.990897 
L 421.364105 83.868064 
L 422.526908 83.47361 
L 423.689711 83.362437 
L 424.852514 83.043775 
L 427.178119 82.793717 
L 428.340922 82.786051 
L 429.503725 82.584072 
L 430.666528 82.20631 
L 435.317739 82.121333 
L 436.480542 82.026692 
L 437.643345 82.043544 
L 441.131753 81.235308 
L 442.294556 81.393122 
L 443.457359 81.293929 
L 444.620162 80.871921 
L 445.782964 80.772729 
L 448.10857 80.907941 
L 450.434176 80.319894 
L 451.596978 80.607887 
L 455.085387 80.03166 
L 457.410992 79.050676 
L 458.573795 78.984867 
L 459.736598 79.158733 
L 460.899401 78.904602 
L 462.062204 78.784166 
L 463.225007 78.900849 
L 467.876218 78.812119 
L 469.039021 78.967936 
L 471.364626 78.746151 
L 472.527429 78.647038 
L 473.690232 78.235572 
L 474.853035 78.435235 
L 476.015837 78.180785 
L 477.17864 78.246833 
L 479.504246 78.530355 
L 480.667049 78.176792 
L 481.829852 78.150436 
L 482.992654 78.279978 
L 484.155457 78.210735 
L 486.481063 78.531953 
L 488.806668 78.064501 
L 494.620682 77.236459 
L 495.783485 77.261058 
L 496.946288 77.159549 
L 498.109091 76.839609 
L 498.109091 76.839609 
" style="fill:none;stroke:#a6d854;stroke-linecap:square;stroke-width:2;"/>
    <defs>
     <path d="M 0 -3 
L -0.673542 -0.927051 
L -2.85317 -0.927051 
L -1.089814 0.354102 
L -1.763356 2.427051 
L -0 1.145898 
L 1.763356 2.427051 
L 1.089814 0.354102 
L 2.85317 -0.927051 
L 0.673542 -0.927051 
z
" id="mdca9d963e2" style="stroke:#a6d854;stroke-linejoin:bevel;"/>
    </defs>
    <g clip-path="url(#p11f9cace6a)">
     <use style="fill:#a6d854;stroke:#a6d854;stroke-linejoin:bevel;" x="92.290909" xlink:href="#mdca9d963e2" y="301.277571"/>
     <use style="fill:#a6d854;stroke:#a6d854;stroke-linejoin:bevel;" x="115.546965" xlink:href="#mdca9d963e2" y="207.981849"/>
     <use style="fill:#a6d854;stroke:#a6d854;stroke-linejoin:bevel;" x="138.803022" xlink:href="#mdca9d963e2" y="184.80489"/>
     <use style="fill:#a6d854;stroke:#a6d854;stroke-linejoin:bevel;" x="162.059078" xlink:href="#mdca9d963e2" y="174.71544"/>
     <use style="fill:#a6d854;stroke:#a6d854;stroke-linejoin:bevel;" x="185.315134" xlink:href="#mdca9d963e2" y="164.885792"/>
     <use style="fill:#a6d854;stroke:#a6d854;stroke-linejoin:bevel;" x="208.57119" xlink:href="#mdca9d963e2" y="153.435839"/>
     <use style="fill:#a6d854;stroke:#a6d854;stroke-linejoin:bevel;" x="231.827247" xlink:href="#mdca9d963e2" y="139.925922"/>
     <use style="fill:#a6d854;stroke:#a6d854;stroke-linejoin:bevel;" x="255.083303" xlink:href="#mdca9d963e2" y="126.835778"/>
     <use style="fill:#a6d854;stroke:#a6d854;stroke-linejoin:bevel;" x="277.176556" xlink:href="#mdca9d963e2" y="114.849929"/>
     <use style="fill:#a6d854;stroke:#a6d854;stroke-linejoin:bevel;" x="300.432613" xlink:href="#mdca9d963e2" y="105.65441"/>
     <use style="fill:#a6d854;stroke:#a6d854;stroke-linejoin:bevel;" x="323.688669" xlink:href="#mdca9d963e2" y="97.404736"/>
     <use style="fill:#a6d854;stroke:#a6d854;stroke-linejoin:bevel;" x="346.944725" xlink:href="#mdca9d963e2" y="93.465705"/>
     <use style="fill:#a6d854;stroke:#a6d854;stroke-linejoin:bevel;" x="370.200781" xlink:href="#mdca9d963e2" y="89.374609"/>
     <use style="fill:#a6d854;stroke:#a6d854;stroke-linejoin:bevel;" x="393.456838" xlink:href="#mdca9d963e2" y="87.55536"/>
     <use style="fill:#a6d854;stroke:#a6d854;stroke-linejoin:bevel;" x="415.550091" xlink:href="#mdca9d963e2" y="85.466087"/>
     <use style="fill:#a6d854;stroke:#a6d854;stroke-linejoin:bevel;" x="438.806147" xlink:href="#mdca9d963e2" y="81.745727"/>
     <use style="fill:#a6d854;stroke:#a6d854;stroke-linejoin:bevel;" x="462.062204" xlink:href="#mdca9d963e2" y="78.784166"/>
     <use style="fill:#a6d854;stroke:#a6d854;stroke-linejoin:bevel;" x="485.31826" xlink:href="#mdca9d963e2" y="78.427169"/>
    </g>
   </g>
   <g id="line2d_32">
    <path clip-path="url(#p11f9cace6a)" d="M 92.290909 296.671189 
L 95.779318 278.610474 
L 105.08174 228.147411 
L 107.407346 215.104786 
L 108.570148 212.132842 
L 109.732951 208.796873 
L 112.058557 203.066226 
L 113.22136 200.898765 
L 114.384163 199.157144 
L 116.709768 194.873415 
L 121.360979 190.562292 
L 123.686585 188.642492 
L 127.174993 185.85943 
L 128.337796 185.179378 
L 130.663402 183.013593 
L 131.826205 182.332902 
L 132.989008 181.7891 
L 134.15181 180.93007 
L 135.314613 179.904841 
L 136.477416 179.49609 
L 138.803022 177.919552 
L 142.29143 176.080815 
L 143.454233 175.305404 
L 144.617036 174.997763 
L 146.942641 173.309653 
L 148.105444 172.631996 
L 149.268247 172.137871 
L 150.43105 171.331552 
L 151.593853 170.82289 
L 153.919458 170.453114 
L 156.245064 169.891023 
L 157.407867 169.79838 
L 158.570669 169.518532 
L 160.896275 169.260728 
L 163.221881 168.614059 
L 165.547486 168.172724 
L 167.873092 167.735782 
L 172.524303 167.554887 
L 173.687106 167.431735 
L 174.849909 167.510642 
L 177.175514 167.442677 
L 178.338317 167.047504 
L 179.50112 167.20955 
L 180.663923 167.123535 
L 182.989529 166.65856 
L 185.315134 166.602095 
L 187.64074 166.157805 
L 189.966345 165.39637 
L 194.617557 164.965018 
L 195.780359 164.777814 
L 196.943162 164.890744 
L 203.919979 163.818154 
L 206.245585 163.682543 
L 207.408388 163.966304 
L 208.57119 163.801462 
L 209.733993 163.519618 
L 210.896796 163.521454 
L 213.222402 163.048892 
L 215.548007 162.450942 
L 216.71081 162.491993 
L 222.524824 162.028216 
L 223.687627 161.857304 
L 224.85043 161.958414 
L 228.338838 161.799402 
L 237.641261 160.242749 
L 238.804064 160.295301 
L 241.129669 159.968173 
L 243.455275 159.885752 
L 244.618078 160.033183 
L 249.269289 159.676425 
L 250.432092 159.814032 
L 251.594895 159.636013 
L 252.757697 159.822099 
L 253.9205 159.802532 
L 255.083303 159.549279 
L 257.408909 159.395619 
L 259.734514 159.446892 
L 262.06012 159.201706 
L 265.548528 159.179583 
L 266.711331 159.439784 
L 269.036937 159.2878 
L 271.362542 159.400011 
L 272.525345 159.476042 
L 274.850951 159.379965 
L 276.013754 159.574117 
L 277.176556 159.575235 
L 278.339359 159.6908 
L 278.339359 159.6908 
" style="fill:none;stroke:#ffd92f;stroke-linecap:square;stroke-width:2;"/>
    <defs>
     <path d="M 0 4.242641 
L 4.242641 0 
L 0 -4.242641 
L -4.242641 0 
z
" id="m29951acb3e" style="stroke:#ffd92f;stroke-linejoin:miter;"/>
    </defs>
    <g clip-path="url(#p11f9cace6a)">
     <use style="fill:#ffd92f;stroke:#ffd92f;stroke-linejoin:miter;" x="92.290909" xlink:href="#m29951acb3e" y="296.671189"/>
     <use style="fill:#ffd92f;stroke:#ffd92f;stroke-linejoin:miter;" x="115.546965" xlink:href="#m29951acb3e" y="196.98545"/>
     <use style="fill:#ffd92f;stroke:#ffd92f;stroke-linejoin:miter;" x="138.803022" xlink:href="#m29951acb3e" y="177.919552"/>
     <use style="fill:#ffd92f;stroke:#ffd92f;stroke-linejoin:miter;" x="162.059078" xlink:href="#m29951acb3e" y="168.892869"/>
     <use style="fill:#ffd92f;stroke:#ffd92f;stroke-linejoin:miter;" x="185.315134" xlink:href="#m29951acb3e" y="166.602095"/>
     <use style="fill:#ffd92f;stroke:#ffd92f;stroke-linejoin:miter;" x="208.57119" xlink:href="#m29951acb3e" y="163.801462"/>
     <use style="fill:#ffd92f;stroke:#ffd92f;stroke-linejoin:miter;" x="231.827247" xlink:href="#m29951acb3e" y="161.294175"/>
     <use style="fill:#ffd92f;stroke:#ffd92f;stroke-linejoin:miter;" x="255.083303" xlink:href="#m29951acb3e" y="159.549279"/>
     <use style="fill:#ffd92f;stroke:#ffd92f;stroke-linejoin:miter;" x="278.339359" xlink:href="#m29951acb3e" y="159.6908"/>
    </g>
   </g>
   <g id="patch_3">
    <path d="M 72 320.4 
L 72 43.2 
" style="fill:none;stroke:#000000;stroke-linecap:square;stroke-linejoin:miter;stroke-width:0.8;"/>
   </g>
   <g id="patch_4">
    <path d="M 518.4 320.4 
L 518.4 43.2 
" style="fill:none;stroke:#000000;stroke-linecap:square;stroke-linejoin:miter;stroke-width:0.8;"/>
   </g>
   <g id="patch_5">
    <path d="M 72 320.4 
L 518.4 320.4 
" style="fill:none;stroke:#000000;stroke-linecap:square;stroke-linejoin:miter;stroke-width:0.8;"/>
   </g>
   <g id="patch_6">
    <path d="M 72 43.2 
L 518.4 43.2 
" style="fill:none;stroke:#000000;stroke-linecap:square;stroke-linejoin:miter;stroke-width:0.8;"/>
   </g>
   <g id="text_16">
    <!-- HP Difference Of Different Method -->
    <g transform="translate(188.405625 37.2)scale(0.12 -0.12)">
     <defs>
      <path d="M 41.015625 3.8125 
Q 52.984375 3.8125 59.078125 12.03125 
Q 65.1875 20.265625 65.1875 36.375 
Q 65.1875 52.546875 59.078125 60.765625 
Q 52.984375 69 41.015625 69 
Q 29 69 22.890625 60.765625 
Q 16.796875 52.546875 16.796875 36.375 
Q 16.796875 20.265625 22.890625 12.03125 
Q 29 3.8125 41.015625 3.8125 
z
M 41.015625 -1.421875 
Q 33.59375 -1.421875 27.359375 1.015625 
Q 21.140625 3.46875 16.40625 8.203125 
Q 10.9375 13.671875 8.265625 20.609375 
Q 5.609375 27.546875 5.609375 36.375 
Q 5.609375 45.21875 8.265625 52.171875 
Q 10.9375 59.125 16.40625 64.59375 
Q 21.1875 69.390625 27.34375 71.796875 
Q 33.5 74.21875 41.015625 74.21875 
Q 56.890625 74.21875 66.65625 63.8125 
Q 76.421875 53.421875 76.421875 36.375 
Q 76.421875 27.640625 73.734375 20.625 
Q 71.046875 13.625 65.578125 8.203125 
Q 60.796875 3.421875 54.640625 1 
Q 48.484375 -1.421875 41.015625 -1.421875 
z
" id="DejaVuSerif-79"/>
      <path d="M 10.796875 46.6875 
L 2.875 46.6875 
L 2.875 51.90625 
L 10.796875 51.90625 
L 10.796875 68.015625 
L 19.828125 68.015625 
L 19.828125 51.90625 
L 36.71875 51.90625 
L 36.71875 46.6875 
L 19.828125 46.6875 
L 19.828125 13.71875 
Q 19.828125 7.125 21.09375 5.265625 
Q 22.359375 3.421875 25.78125 3.421875 
Q 29.296875 3.421875 30.90625 5.484375 
Q 32.515625 7.5625 32.625 12.203125 
L 39.40625 12.203125 
Q 39.015625 5.125 35.546875 1.84375 
Q 32.078125 -1.421875 25 -1.421875 
Q 17.234375 -1.421875 14.015625 2.015625 
Q 10.796875 5.46875 10.796875 13.71875 
z
" id="DejaVuSerif-116"/>
      <path d="M 5.515625 0 
L 5.515625 5.171875 
L 14.796875 5.171875 
L 14.796875 67.671875 
L 4.984375 67.671875 
L 4.984375 72.90625 
L 26.21875 72.90625 
L 51.8125 21 
L 77.390625 72.90625 
L 97.3125 72.90625 
L 97.3125 67.671875 
L 87.59375 67.671875 
L 87.59375 5.171875 
L 96.921875 5.171875 
L 96.921875 0 
L 68.40625 0 
L 68.40625 5.171875 
L 77.6875 5.171875 
L 77.6875 61.53125 
L 52.6875 10.6875 
L 45.796875 10.6875 
L 20.796875 61.53125 
L 20.796875 5.171875 
L 30.078125 5.171875 
L 30.078125 0 
z
" id="DejaVuSerif-77"/>
      <path d="M 52.484375 5.171875 
L 61.078125 5.171875 
L 61.078125 0 
L 43.5 0 
L 43.5 8.109375 
Q 40.875 3.21875 36.796875 0.890625 
Q 32.71875 -1.421875 26.703125 -1.421875 
Q 17.140625 -1.421875 11.0625 6.171875 
Q 4.984375 13.765625 4.984375 25.984375 
Q 4.984375 38.1875 11.03125 45.75 
Q 17.09375 53.328125 26.703125 53.328125 
Q 32.71875 53.328125 36.796875 51 
Q 40.875 48.6875 43.5 43.796875 
L 43.5 70.796875 
L 35.015625 70.796875 
L 35.015625 75.984375 
L 52.484375 75.984375 
z
M 43.5 23.390625 
L 43.5 28.515625 
Q 43.5 37.84375 39.90625 42.765625 
Q 36.328125 47.703125 29.5 47.703125 
Q 22.5625 47.703125 19.015625 42.234375 
Q 15.484375 36.765625 15.484375 25.984375 
Q 15.484375 15.234375 19.015625 9.71875 
Q 22.5625 4.203125 29.5 4.203125 
Q 36.328125 4.203125 39.90625 9.109375 
Q 43.5 14.015625 43.5 23.390625 
z
" id="DejaVuSerif-100"/>
     </defs>
     <use xlink:href="#DejaVuSerif-72"/>
     <use x="87.207031" xlink:href="#DejaVuSerif-80"/>
     <use x="154.492188" xlink:href="#DejaVuSerif-32"/>
     <use x="186.279297" xlink:href="#DejaVuSerif-68"/>
     <use x="266.455078" xlink:href="#DejaVuSerif-105"/>
     <use x="298.4375" xlink:href="#DejaVuSerif-102"/>
     <use x="335.449219" xlink:href="#DejaVuSerif-102"/>
     <use x="372.460938" xlink:href="#DejaVuSerif-101"/>
     <use x="431.640625" xlink:href="#DejaVuSerif-114"/>
     <use x="479.443359" xlink:href="#DejaVuSerif-101"/>
     <use x="538.623047" xlink:href="#DejaVuSerif-110"/>
     <use x="603.027344" xlink:href="#DejaVuSerif-99"/>
     <use x="659.033203" xlink:href="#DejaVuSerif-101"/>
     <use x="718.212891" xlink:href="#DejaVuSerif-32"/>
     <use x="750" xlink:href="#DejaVuSerif-79"/>
     <use x="831.982422" xlink:href="#DejaVuSerif-102"/>
     <use x="868.994141" xlink:href="#DejaVuSerif-32"/>
     <use x="900.78125" xlink:href="#DejaVuSerif-68"/>
     <use x="980.957031" xlink:href="#DejaVuSerif-105"/>
     <use x="1012.939453" xlink:href="#DejaVuSerif-102"/>
     <use x="1049.951172" xlink:href="#DejaVuSerif-102"/>
     <use x="1086.962891" xlink:href="#DejaVuSerif-101"/>
     <use x="1146.142578" xlink:href="#DejaVuSerif-114"/>
     <use x="1193.945312" xlink:href="#DejaVuSerif-101"/>
     <use x="1253.125" xlink:href="#DejaVuSerif-110"/>
     <use x="1317.529297" xlink:href="#DejaVuSerif-116"/>
     <use x="1357.714844" xlink:href="#DejaVuSerif-32"/>
     <use x="1389.501953" xlink:href="#DejaVuSerif-77"/>
     <use x="1491.894531" xlink:href="#DejaVuSerif-101"/>
     <use x="1551.074219" xlink:href="#DejaVuSerif-116"/>
     <use x="1591.259766" xlink:href="#DejaVuSerif-104"/>
     <use x="1655.664062" xlink:href="#DejaVuSerif-111"/>
     <use x="1715.869141" xlink:href="#DejaVuSerif-100"/>
    </g>
   </g>
   <g id="legend_1">
    <g id="patch_7">
     <path d="M 412.307812 315.4 
L 511.4 315.4 
Q 513.4 315.4 513.4 313.4 
L 513.4 225.904687 
Q 513.4 223.904687 511.4 223.904687 
L 412.307812 223.904687 
Q 410.307812 223.904687 410.307812 225.904687 
L 410.307812 313.4 
Q 410.307812 315.4 412.307812 315.4 
z
" style="fill:#ffffff;opacity:0.8;stroke:#cccccc;stroke-linejoin:miter;"/>
    </g>
    <g id="line2d_33">
     <path d="M 414.307812 232.003125 
L 434.307812 232.003125 
" style="fill:none;stroke:#66c2a5;stroke-linecap:square;stroke-width:2;"/>
    </g>
    <g id="line2d_34">
     <g>
      <use style="fill:#66c2a5;stroke:#66c2a5;" x="424.307812" xlink:href="#mec4192fd9a" y="232.003125"/>
     </g>
    </g>
    <g id="text_17">
     <!-- DQN -->
     <g transform="translate(442.307812 235.503125)scale(0.1 -0.1)">
      <defs>
       <path d="M 42.1875 -1.421875 
Q 25.4375 -1.421875 15.515625 8.859375 
Q 5.609375 19.140625 5.609375 36.375 
Q 5.609375 45.21875 8.265625 52.171875 
Q 10.9375 59.125 16.40625 64.59375 
Q 21.1875 69.390625 27.34375 71.796875 
Q 33.5 74.21875 41.015625 74.21875 
Q 56.890625 74.21875 66.65625 63.8125 
Q 76.421875 53.421875 76.421875 36.375 
Q 76.421875 21.921875 69.09375 12.078125 
Q 61.765625 2.25 48.875 -0.59375 
Q 51.515625 -3.859375 55.296875 -5.421875 
Q 59.078125 -6.984375 64.40625 -6.984375 
L 65.921875 -6.984375 
L 65.921875 -16.015625 
Q 57.671875 -15.625 51.78125 -11.984375 
Q 45.90625 -8.34375 42.1875 -1.421875 
z
M 41.015625 3.8125 
Q 52.984375 3.8125 59.078125 12.03125 
Q 65.1875 20.265625 65.1875 36.375 
Q 65.1875 52.546875 59.078125 60.765625 
Q 52.984375 69 41.015625 69 
Q 29 69 22.890625 60.765625 
Q 16.796875 52.546875 16.796875 36.375 
Q 16.796875 20.265625 22.890625 12.03125 
Q 29 3.8125 41.015625 3.8125 
z
" id="DejaVuSerif-81"/>
       <path d="M 4.890625 0 
L 4.890625 5.171875 
L 14.703125 5.171875 
L 14.703125 67.671875 
L 4.890625 67.671875 
L 4.890625 72.90625 
L 23.578125 72.90625 
L 67.28125 15.375 
L 67.28125 67.671875 
L 57.515625 67.671875 
L 57.515625 72.90625 
L 83.109375 72.90625 
L 83.109375 67.671875 
L 73.296875 67.671875 
L 73.296875 -1.421875 
L 67.390625 -1.421875 
L 20.703125 60.015625 
L 20.703125 5.171875 
L 30.515625 5.171875 
L 30.515625 0 
z
" id="DejaVuSerif-78"/>
      </defs>
      <use xlink:href="#DejaVuSerif-68"/>
      <use x="80.175781" xlink:href="#DejaVuSerif-81"/>
      <use x="162.158203" xlink:href="#DejaVuSerif-78"/>
     </g>
    </g>
    <g id="line2d_35">
     <path d="M 414.307812 246.68125 
L 434.307812 246.68125 
" style="fill:none;stroke:#fc8d62;stroke-linecap:square;stroke-width:2;"/>
    </g>
    <g id="line2d_36">
     <g>
      <use style="fill:#fc8d62;stroke:#fc8d62;stroke-linejoin:miter;" x="424.307812" xlink:href="#m7836c66312" y="246.68125"/>
     </g>
    </g>
    <g id="text_18">
     <!-- +Double -->
     <g transform="translate(442.307812 250.18125)scale(0.1 -0.1)">
      <defs>
       <path d="M 45.796875 62.703125 
L 45.796875 35.296875 
L 73.1875 35.296875 
L 73.1875 27.390625 
L 45.796875 27.390625 
L 45.796875 0 
L 37.984375 0 
L 37.984375 27.390625 
L 10.59375 27.390625 
L 10.59375 35.296875 
L 37.984375 35.296875 
L 37.984375 62.703125 
z
" id="DejaVuSerif-43"/>
       <path d="M 35.40625 51.90625 
L 52.203125 51.90625 
L 52.203125 5.171875 
L 60.6875 5.171875 
L 60.6875 0 
L 43.21875 0 
L 43.21875 9.1875 
Q 40.71875 4 36.765625 1.28125 
Q 32.8125 -1.421875 27.59375 -1.421875 
Q 18.953125 -1.421875 14.875 3.484375 
Q 10.796875 8.40625 10.796875 18.890625 
L 10.796875 46.6875 
L 2.6875 46.6875 
L 2.6875 51.90625 
L 19.828125 51.90625 
L 19.828125 21.6875 
Q 19.828125 12.203125 22.140625 8.6875 
Q 24.46875 5.171875 30.421875 5.171875 
Q 36.671875 5.171875 39.9375 9.765625 
Q 43.21875 14.359375 43.21875 23.09375 
L 43.21875 46.6875 
L 35.40625 46.6875 
z
" id="DejaVuSerif-117"/>
       <path d="M 11.53125 5.171875 
L 11.53125 70.796875 
L 2.875 70.796875 
L 2.875 75.984375 
L 20.515625 75.984375 
L 20.515625 43.796875 
Q 23.140625 48.6875 27.21875 51 
Q 31.296875 53.328125 37.3125 53.328125 
Q 46.875 53.328125 52.921875 45.75 
Q 58.984375 38.1875 58.984375 25.984375 
Q 58.984375 13.765625 52.921875 6.171875 
Q 46.875 -1.421875 37.3125 -1.421875 
Q 31.296875 -1.421875 27.21875 0.890625 
Q 23.140625 3.21875 20.515625 8.109375 
L 20.515625 0 
L 2.875 0 
L 2.875 5.171875 
z
M 20.515625 23.390625 
Q 20.515625 14.015625 24.09375 9.109375 
Q 27.6875 4.203125 34.515625 4.203125 
Q 41.40625 4.203125 44.9375 9.71875 
Q 48.484375 15.234375 48.484375 25.984375 
Q 48.484375 36.765625 44.9375 42.234375 
Q 41.40625 47.703125 34.515625 47.703125 
Q 27.6875 47.703125 24.09375 42.765625 
Q 20.515625 37.84375 20.515625 28.515625 
z
" id="DejaVuSerif-98"/>
       <path d="M 20.515625 5.171875 
L 29 5.171875 
L 29 0 
L 2.875 0 
L 2.875 5.171875 
L 11.53125 5.171875 
L 11.53125 70.796875 
L 2.875 70.796875 
L 2.875 75.984375 
L 20.515625 75.984375 
z
" id="DejaVuSerif-108"/>
      </defs>
      <use xlink:href="#DejaVuSerif-43"/>
      <use x="83.789062" xlink:href="#DejaVuSerif-68"/>
      <use x="163.964844" xlink:href="#DejaVuSerif-111"/>
      <use x="224.169922" xlink:href="#DejaVuSerif-117"/>
      <use x="288.574219" xlink:href="#DejaVuSerif-98"/>
      <use x="352.587891" xlink:href="#DejaVuSerif-108"/>
      <use x="384.570312" xlink:href="#DejaVuSerif-101"/>
     </g>
    </g>
    <g id="line2d_37">
     <path d="M 414.307812 261.359375 
L 434.307812 261.359375 
" style="fill:none;stroke:#8da0cb;stroke-linecap:square;stroke-width:2;"/>
    </g>
    <g id="line2d_38">
     <g>
      <use style="fill:#8da0cb;stroke:#8da0cb;stroke-linejoin:miter;" x="424.307812" xlink:href="#m836207567f" y="261.359375"/>
     </g>
    </g>
    <g id="text_19">
     <!-- +Dueling -->
     <g transform="translate(442.307812 264.859375)scale(0.1 -0.1)">
      <defs>
       <path d="M 52.484375 46.6875 
L 52.484375 1.125 
Q 52.484375 -10.0625 46.328125 -16.140625 
Q 40.1875 -22.21875 28.8125 -22.21875 
Q 23.6875 -22.21875 19 -21.28125 
Q 14.3125 -20.359375 10.015625 -18.5 
L 10.015625 -7.625 
L 14.703125 -7.625 
Q 15.578125 -12.703125 18.84375 -15.046875 
Q 22.125 -17.390625 28.21875 -17.390625 
Q 36.140625 -17.390625 39.8125 -12.921875 
Q 43.5 -8.453125 43.5 1.125 
L 43.5 8.109375 
Q 40.875 3.21875 36.796875 0.890625 
Q 32.71875 -1.421875 26.703125 -1.421875 
Q 17.140625 -1.421875 11.0625 6.171875 
Q 4.984375 13.765625 4.984375 25.984375 
Q 4.984375 38.1875 11.03125 45.75 
Q 17.09375 53.328125 26.703125 53.328125 
Q 32.71875 53.328125 36.796875 51 
Q 40.875 48.6875 43.5 43.796875 
L 43.5 51.90625 
L 61.078125 51.90625 
L 61.078125 46.6875 
z
M 43.5 28.515625 
Q 43.5 37.84375 39.90625 42.765625 
Q 36.328125 47.703125 29.5 47.703125 
Q 22.5625 47.703125 19.015625 42.234375 
Q 15.484375 36.765625 15.484375 25.984375 
Q 15.484375 15.234375 19.015625 9.71875 
Q 22.5625 4.203125 29.5 4.203125 
Q 36.328125 4.203125 39.90625 9.109375 
Q 43.5 14.015625 43.5 23.390625 
z
" id="DejaVuSerif-103"/>
      </defs>
      <use xlink:href="#DejaVuSerif-43"/>
      <use x="83.789062" xlink:href="#DejaVuSerif-68"/>
      <use x="163.964844" xlink:href="#DejaVuSerif-117"/>
      <use x="228.369141" xlink:href="#DejaVuSerif-101"/>
      <use x="287.548828" xlink:href="#DejaVuSerif-108"/>
      <use x="319.53125" xlink:href="#DejaVuSerif-105"/>
      <use x="351.513672" xlink:href="#DejaVuSerif-110"/>
      <use x="415.917969" xlink:href="#DejaVuSerif-103"/>
     </g>
    </g>
    <g id="line2d_39">
     <path d="M 414.307812 276.179688 
L 434.307812 276.179688 
" style="fill:none;stroke:#e78ac3;stroke-linecap:square;stroke-width:2;"/>
    </g>
    <g id="line2d_40">
     <g>
      <use style="fill:#e78ac3;stroke:#e78ac3;stroke-linejoin:miter;" x="424.307812" xlink:href="#mf2a2425e08" y="276.179688"/>
     </g>
    </g>
    <g id="text_20">
     <!-- +Noisy -->
     <g transform="translate(442.307812 279.679688)scale(0.1 -0.1)">
      <defs>
       <path d="M 5.609375 2.875 
L 5.609375 14.984375 
L 10.796875 14.984375 
Q 10.984375 9.1875 14.421875 6.296875 
Q 17.875 3.421875 24.609375 3.421875 
Q 30.671875 3.421875 33.84375 5.6875 
Q 37.015625 7.953125 37.015625 12.3125 
Q 37.015625 15.71875 34.6875 17.8125 
Q 32.375 19.921875 24.90625 22.3125 
L 18.40625 24.515625 
Q 11.71875 26.65625 8.71875 29.875 
Q 5.71875 33.109375 5.71875 38.09375 
Q 5.71875 45.21875 10.9375 49.265625 
Q 16.15625 53.328125 25.390625 53.328125 
Q 29.5 53.328125 34.03125 52.25 
Q 38.578125 51.171875 43.40625 49.125 
L 43.40625 37.796875 
L 38.234375 37.796875 
Q 38.03125 42.828125 34.703125 45.65625 
Q 31.390625 48.484375 25.6875 48.484375 
Q 20.015625 48.484375 17.109375 46.484375 
Q 14.203125 44.484375 14.203125 40.484375 
Q 14.203125 37.203125 16.40625 35.21875 
Q 18.609375 33.25 25.203125 31.203125 
L 32.328125 29 
Q 39.703125 26.703125 42.9375 23.265625 
Q 46.1875 19.828125 46.1875 14.40625 
Q 46.1875 7.03125 40.546875 2.796875 
Q 34.90625 -1.421875 25 -1.421875 
Q 19.96875 -1.421875 15.1875 -0.34375 
Q 10.40625 0.734375 5.609375 2.875 
z
" id="DejaVuSerif-115"/>
       <path d="M 21.578125 -9.515625 
L 25 -0.875 
L 5.609375 46.6875 
L -0.296875 46.6875 
L -0.296875 51.90625 
L 23.578125 51.90625 
L 23.578125 46.6875 
L 15.28125 46.6875 
L 29.890625 10.984375 
L 44.484375 46.6875 
L 36.71875 46.6875 
L 36.71875 51.90625 
L 56.203125 51.90625 
L 56.203125 46.6875 
L 50.390625 46.6875 
L 26.609375 -11.71875 
Q 24.171875 -17.78125 21.1875 -20 
Q 18.21875 -22.21875 12.796875 -22.21875 
Q 10.5 -22.21875 8.078125 -21.828125 
Q 5.671875 -21.4375 3.21875 -20.703125 
L 3.21875 -10.796875 
L 7.8125 -10.796875 
Q 8.109375 -14.109375 9.5 -15.546875 
Q 10.890625 -17 13.8125 -17 
Q 16.5 -17 18.140625 -15.5 
Q 19.78125 -14.015625 21.578125 -9.515625 
z
" id="DejaVuSerif-121"/>
      </defs>
      <use xlink:href="#DejaVuSerif-43"/>
      <use x="83.789062" xlink:href="#DejaVuSerif-78"/>
      <use x="171.289062" xlink:href="#DejaVuSerif-111"/>
      <use x="231.494141" xlink:href="#DejaVuSerif-105"/>
      <use x="263.476562" xlink:href="#DejaVuSerif-115"/>
      <use x="314.794922" xlink:href="#DejaVuSerif-121"/>
     </g>
    </g>
    <g id="line2d_41">
     <path d="M 414.307812 291 
L 434.307812 291 
" style="fill:none;stroke:#a6d854;stroke-linecap:square;stroke-width:2;"/>
    </g>
    <g id="line2d_42">
     <g>
      <use style="fill:#a6d854;stroke:#a6d854;stroke-linejoin:bevel;" x="424.307812" xlink:href="#mdca9d963e2" y="291"/>
     </g>
    </g>
    <g id="text_21">
     <!-- +NSteps -->
     <g transform="translate(442.307812 294.5)scale(0.1 -0.1)">
      <defs>
       <path d="M 9.28125 3.515625 
L 9.28125 20.125 
L 14.890625 20.0625 
Q 15.140625 11.765625 19.703125 7.78125 
Q 24.265625 3.8125 33.59375 3.8125 
Q 42.28125 3.8125 46.84375 7.25 
Q 51.421875 10.6875 51.421875 17.28125 
Q 51.421875 22.5625 48.65625 25.390625 
Q 45.90625 28.21875 37.015625 30.90625 
L 27.390625 33.796875 
Q 16.9375 36.96875 12.671875 41.703125 
Q 8.40625 46.4375 8.40625 54.6875 
Q 8.40625 63.96875 14.984375 69.09375 
Q 21.578125 74.21875 33.5 74.21875 
Q 38.578125 74.21875 44.625 73.109375 
Q 50.6875 72.015625 57.515625 69.921875 
L 57.515625 54.390625 
L 52 54.390625 
Q 51.171875 62.109375 46.84375 65.546875 
Q 42.53125 69 33.6875 69 
Q 25.984375 69 21.953125 65.84375 
Q 17.921875 62.703125 17.921875 56.6875 
Q 17.921875 51.46875 20.9375 48.484375 
Q 23.96875 45.515625 33.796875 42.578125 
L 42.828125 39.890625 
Q 52.734375 36.921875 56.953125 32.296875 
Q 61.1875 27.6875 61.1875 19.921875 
Q 61.1875 9.328125 54.390625 3.953125 
Q 47.609375 -1.421875 34.1875 -1.421875 
Q 28.171875 -1.421875 21.9375 -0.1875 
Q 15.71875 1.03125 9.28125 3.515625 
z
" id="DejaVuSerif-83"/>
      </defs>
      <use xlink:href="#DejaVuSerif-43"/>
      <use x="83.789062" xlink:href="#DejaVuSerif-78"/>
      <use x="171.289062" xlink:href="#DejaVuSerif-83"/>
      <use x="239.794922" xlink:href="#DejaVuSerif-116"/>
      <use x="279.980469" xlink:href="#DejaVuSerif-101"/>
      <use x="339.160156" xlink:href="#DejaVuSerif-112"/>
      <use x="403.173828" xlink:href="#DejaVuSerif-115"/>
     </g>
    </g>
    <g id="line2d_43">
     <path d="M 414.307812 305.678125 
L 434.307812 305.678125 
" style="fill:none;stroke:#ffd92f;stroke-linecap:square;stroke-width:2;"/>
    </g>
    <g id="line2d_44">
     <g>
      <use style="fill:#ffd92f;stroke:#ffd92f;stroke-linejoin:miter;" x="424.307812" xlink:href="#m29951acb3e" y="305.678125"/>
     </g>
    </g>
    <g id="text_22">
     <!-- +Categorical -->
     <g transform="translate(442.307812 309.178125)scale(0.1 -0.1)">
      <defs>
       <path d="M 70.515625 19.28125 
Q 67.28125 9.078125 59.6875 3.828125 
Q 52.09375 -1.421875 40.484375 -1.421875 
Q 33.34375 -1.421875 27.234375 1.015625 
Q 21.140625 3.46875 16.40625 8.203125 
Q 10.9375 13.671875 8.265625 20.625 
Q 5.609375 27.59375 5.609375 36.375 
Q 5.609375 53.375 15.421875 63.796875 
Q 25.25 74.21875 41.3125 74.21875 
Q 47.265625 74.21875 54 72.65625 
Q 60.75 71.09375 68.5 67.921875 
L 68.5 51.125 
L 62.984375 51.125 
Q 61.1875 60.296875 55.734375 64.640625 
Q 50.296875 69 40.484375 69 
Q 28.8125 69 22.796875 60.71875 
Q 16.796875 52.4375 16.796875 36.375 
Q 16.796875 20.359375 22.796875 12.078125 
Q 28.8125 3.8125 40.484375 3.8125 
Q 48.640625 3.8125 53.90625 7.6875 
Q 59.1875 11.578125 61.53125 19.28125 
z
" id="DejaVuSerif-67"/>
       <path d="M 39.796875 16.3125 
L 39.796875 27.296875 
L 28.21875 27.296875 
Q 21.53125 27.296875 18.25 24.40625 
Q 14.984375 21.53125 14.984375 15.578125 
Q 14.984375 10.15625 18.296875 6.984375 
Q 21.625 3.8125 27.296875 3.8125 
Q 32.90625 3.8125 36.34375 7.28125 
Q 39.796875 10.75 39.796875 16.3125 
z
M 48.78125 32.421875 
L 48.78125 5.171875 
L 56.78125 5.171875 
L 56.78125 0 
L 39.796875 0 
L 39.796875 5.609375 
Q 36.8125 2 32.90625 0.28125 
Q 29 -1.421875 23.78125 -1.421875 
Q 15.140625 -1.421875 10.0625 3.171875 
Q 4.984375 7.765625 4.984375 15.578125 
Q 4.984375 23.640625 10.796875 28.078125 
Q 16.609375 32.515625 27.203125 32.515625 
L 39.796875 32.515625 
L 39.796875 36.078125 
Q 39.796875 42 36.203125 45.234375 
Q 32.625 48.484375 26.125 48.484375 
Q 20.75 48.484375 17.578125 46.046875 
Q 14.40625 43.609375 13.625 38.8125 
L 8.984375 38.8125 
L 8.984375 49.3125 
Q 13.671875 51.3125 18.09375 52.3125 
Q 22.515625 53.328125 26.703125 53.328125 
Q 37.5 53.328125 43.140625 47.96875 
Q 48.78125 42.625 48.78125 32.421875 
z
" id="DejaVuSerif-97"/>
      </defs>
      <use xlink:href="#DejaVuSerif-43"/>
      <use x="83.789062" xlink:href="#DejaVuSerif-67"/>
      <use x="160.302734" xlink:href="#DejaVuSerif-97"/>
      <use x="219.921875" xlink:href="#DejaVuSerif-116"/>
      <use x="260.107422" xlink:href="#DejaVuSerif-101"/>
      <use x="319.287109" xlink:href="#DejaVuSerif-103"/>
      <use x="383.300781" xlink:href="#DejaVuSerif-111"/>
      <use x="443.505859" xlink:href="#DejaVuSerif-114"/>
      <use x="491.308594" xlink:href="#DejaVuSerif-105"/>
      <use x="523.291016" xlink:href="#DejaVuSerif-99"/>
      <use x="579.296875" xlink:href="#DejaVuSerif-97"/>
      <use x="638.916016" xlink:href="#DejaVuSerif-108"/>
     </g>
    </g>
   </g>
  </g>
 </g>
 <defs>
  <clipPath id="p11f9cace6a">
   <rect height="277.2" width="446.4" x="72" y="43.2"/>
  </clipPath>
 </defs>
</svg>
