<?xml version="1.0" encoding="utf-8" standalone="no"?>
<!DOCTYPE svg PUBLIC "-//W3C//DTD SVG 1.1//EN"
  "http://www.w3.org/Graphics/SVG/1.1/DTD/svg11.dtd">
<!-- Created with matplotlib (https://matplotlib.org/) -->
<svg height="360pt" version="1.1" viewBox="0 0 576 360" width="576pt" xmlns="http://www.w3.org/2000/svg" xmlns:xlink="http://www.w3.org/1999/xlink">
 <metadata>
  <rdf:RDF xmlns:cc="http://creativecommons.org/ns#" xmlns:dc="http://purl.org/dc/elements/1.1/" xmlns:rdf="http://www.w3.org/1999/02/22-rdf-syntax-ns#">
   <cc:Work>
    <dc:type rdf:resource="http://purl.org/dc/dcmitype/StillImage"/>
    <dc:date>2021-06-14T00:20:13.542243</dc:date>
    <dc:format>image/svg+xml</dc:format>
    <dc:creator>
     <cc:Agent>
      <dc:title>Matplotlib v3.3.2, https://matplotlib.org/</dc:title>
     </cc:Agent>
    </dc:creator>
   </cc:Work>
  </rdf:RDF>
 </metadata>
 <defs>
  <style type="text/css">*{stroke-linecap:butt;stroke-linejoin:round;}</style>
 </defs>
 <g id="figure_1">
  <g id="patch_1">
   <path d="M 0 360 
L 576 360 
L 576 0 
L 0 0 
z
" style="fill:#ffffff;"/>
  </g>
  <g id="axes_1">
   <g id="patch_2">
    <path d="M 72 320.4 
L 518.4 320.4 
L 518.4 43.2 
L 72 43.2 
z
" style="fill:#ffffff;"/>
   </g>
   <g id="matplotlib.axis_1">
    <g id="xtick_1">
     <g id="line2d_1">
      <path clip-path="url(#p8c4c1dc862)" d="M 92.254349 320.4 
L 92.254349 43.2 
" style="fill:none;stroke:#b0b0b0;stroke-linecap:square;stroke-width:0.8;"/>
     </g>
     <g id="line2d_2">
      <defs>
       <path d="M 0 0 
L 0 3.5 
" id="m6efce599a7" style="stroke:#000000;stroke-width:0.8;"/>
      </defs>
      <g>
       <use style="stroke:#000000;stroke-width:0.8;" x="92.254349" xlink:href="#m6efce599a7" y="320.4"/>
      </g>
     </g>
     <g id="text_1">
      <!-- 0 -->
      <g transform="translate(89.073099 334.998438)scale(0.1 -0.1)">
       <defs>
        <path d="M 31.78125 3.421875 
Q 39.265625 3.421875 42.96875 11.625 
Q 46.6875 19.828125 46.6875 36.375 
Q 46.6875 52.984375 42.96875 61.1875 
Q 39.265625 69.390625 31.78125 69.390625 
Q 24.3125 69.390625 20.59375 61.1875 
Q 16.890625 52.984375 16.890625 36.375 
Q 16.890625 19.828125 20.59375 11.625 
Q 24.3125 3.421875 31.78125 3.421875 
z
M 31.78125 -1.421875 
Q 19.921875 -1.421875 13.25 8.53125 
Q 6.59375 18.5 6.59375 36.375 
Q 6.59375 54.296875 13.25 64.25 
Q 19.921875 74.21875 31.78125 74.21875 
Q 43.703125 74.21875 50.34375 64.25 
Q 56.984375 54.296875 56.984375 36.375 
Q 56.984375 18.5 50.34375 8.53125 
Q 43.703125 -1.421875 31.78125 -1.421875 
z
" id="DejaVuSerif-48"/>
       </defs>
       <use xlink:href="#DejaVuSerif-48"/>
      </g>
     </g>
    </g>
    <g id="xtick_2">
     <g id="line2d_3">
      <path clip-path="url(#p8c4c1dc862)" d="M 165.374742 320.4 
L 165.374742 43.2 
" style="fill:none;stroke:#b0b0b0;stroke-linecap:square;stroke-width:0.8;"/>
     </g>
     <g id="line2d_4">
      <g>
       <use style="stroke:#000000;stroke-width:0.8;" x="165.374742" xlink:href="#m6efce599a7" y="320.4"/>
      </g>
     </g>
     <g id="text_2">
      <!-- 2000 -->
      <g transform="translate(152.649742 334.998438)scale(0.1 -0.1)">
       <defs>
        <path d="M 12.796875 55.515625 
L 7.328125 55.515625 
L 7.328125 68.5 
Q 12.546875 71.296875 17.84375 72.75 
Q 23.140625 74.21875 28.21875 74.21875 
Q 39.59375 74.21875 46.1875 68.703125 
Q 52.78125 63.1875 52.78125 53.71875 
Q 52.78125 43.015625 37.84375 28.125 
Q 36.671875 27 36.078125 26.421875 
L 17.671875 8.015625 
L 48.09375 8.015625 
L 48.09375 17 
L 53.8125 17 
L 53.8125 0 
L 6.78125 0 
L 6.78125 5.328125 
L 28.90625 27.390625 
Q 36.234375 34.71875 39.359375 40.84375 
Q 42.484375 46.96875 42.484375 53.71875 
Q 42.484375 61.078125 38.640625 65.234375 
Q 34.8125 69.390625 28.078125 69.390625 
Q 21.09375 69.390625 17.28125 65.921875 
Q 13.484375 62.453125 12.796875 55.515625 
z
" id="DejaVuSerif-50"/>
       </defs>
       <use xlink:href="#DejaVuSerif-50"/>
       <use x="63.623047" xlink:href="#DejaVuSerif-48"/>
       <use x="127.246094" xlink:href="#DejaVuSerif-48"/>
       <use x="190.869141" xlink:href="#DejaVuSerif-48"/>
      </g>
     </g>
    </g>
    <g id="xtick_3">
     <g id="line2d_5">
      <path clip-path="url(#p8c4c1dc862)" d="M 238.495135 320.4 
L 238.495135 43.2 
" style="fill:none;stroke:#b0b0b0;stroke-linecap:square;stroke-width:0.8;"/>
     </g>
     <g id="line2d_6">
      <g>
       <use style="stroke:#000000;stroke-width:0.8;" x="238.495135" xlink:href="#m6efce599a7" y="320.4"/>
      </g>
     </g>
     <g id="text_3">
      <!-- 4000 -->
      <g transform="translate(225.770135 334.998438)scale(0.1 -0.1)">
       <defs>
        <path d="M 34.90625 24.703125 
L 34.90625 63.484375 
L 10.015625 24.703125 
z
M 56.390625 0 
L 23.1875 0 
L 23.1875 5.171875 
L 34.90625 5.171875 
L 34.90625 19.484375 
L 3.078125 19.484375 
L 3.078125 24.8125 
L 35.015625 74.21875 
L 44.671875 74.21875 
L 44.671875 24.703125 
L 58.59375 24.703125 
L 58.59375 19.484375 
L 44.671875 19.484375 
L 44.671875 5.171875 
L 56.390625 5.171875 
z
" id="DejaVuSerif-52"/>
       </defs>
       <use xlink:href="#DejaVuSerif-52"/>
       <use x="63.623047" xlink:href="#DejaVuSerif-48"/>
       <use x="127.246094" xlink:href="#DejaVuSerif-48"/>
       <use x="190.869141" xlink:href="#DejaVuSerif-48"/>
      </g>
     </g>
    </g>
    <g id="xtick_4">
     <g id="line2d_7">
      <path clip-path="url(#p8c4c1dc862)" d="M 311.615528 320.4 
L 311.615528 43.2 
" style="fill:none;stroke:#b0b0b0;stroke-linecap:square;stroke-width:0.8;"/>
     </g>
     <g id="line2d_8">
      <g>
       <use style="stroke:#000000;stroke-width:0.8;" x="311.615528" xlink:href="#m6efce599a7" y="320.4"/>
      </g>
     </g>
     <g id="text_4">
      <!-- 6000 -->
      <g transform="translate(298.890528 334.998438)scale(0.1 -0.1)">
       <defs>
        <path d="M 32.71875 3.421875 
Q 39.59375 3.421875 43.296875 8.46875 
Q 47.015625 13.53125 47.015625 23 
Q 47.015625 32.46875 43.296875 37.515625 
Q 39.59375 42.578125 32.71875 42.578125 
Q 25.734375 42.578125 22.0625 37.6875 
Q 18.40625 32.8125 18.40625 23.578125 
Q 18.40625 13.875 22.109375 8.640625 
Q 25.828125 3.421875 32.71875 3.421875 
z
M 16.796875 40.140625 
Q 20.125 43.796875 24.3125 45.59375 
Q 28.515625 47.40625 33.796875 47.40625 
Q 44.671875 47.40625 51 40.859375 
Q 57.328125 34.328125 57.328125 23 
Q 57.328125 11.921875 50.515625 5.25 
Q 43.703125 -1.421875 32.328125 -1.421875 
Q 19.96875 -1.421875 13.328125 7.78125 
Q 6.6875 17 6.6875 34.078125 
Q 6.6875 53.21875 14.546875 63.71875 
Q 22.40625 74.21875 36.71875 74.21875 
Q 40.578125 74.21875 44.828125 73.484375 
Q 49.078125 72.75 53.515625 71.296875 
L 53.515625 59.28125 
L 48 59.28125 
Q 47.40625 64.203125 44.234375 66.796875 
Q 41.0625 69.390625 35.6875 69.390625 
Q 26.21875 69.390625 21.578125 62.203125 
Q 16.9375 55.03125 16.796875 40.140625 
z
" id="DejaVuSerif-54"/>
       </defs>
       <use xlink:href="#DejaVuSerif-54"/>
       <use x="63.623047" xlink:href="#DejaVuSerif-48"/>
       <use x="127.246094" xlink:href="#DejaVuSerif-48"/>
       <use x="190.869141" xlink:href="#DejaVuSerif-48"/>
      </g>
     </g>
    </g>
    <g id="xtick_5">
     <g id="line2d_9">
      <path clip-path="url(#p8c4c1dc862)" d="M 384.735921 320.4 
L 384.735921 43.2 
" style="fill:none;stroke:#b0b0b0;stroke-linecap:square;stroke-width:0.8;"/>
     </g>
     <g id="line2d_10">
      <g>
       <use style="stroke:#000000;stroke-width:0.8;" x="384.735921" xlink:href="#m6efce599a7" y="320.4"/>
      </g>
     </g>
     <g id="text_5">
      <!-- 8000 -->
      <g transform="translate(372.010921 334.998438)scale(0.1 -0.1)">
       <defs>
        <path d="M 46.578125 19.921875 
Q 46.578125 27.734375 42.6875 32.046875 
Q 38.8125 36.375 31.78125 36.375 
Q 24.75 36.375 20.875 32.046875 
Q 17 27.734375 17 19.921875 
Q 17 12.0625 20.875 7.734375 
Q 24.75 3.421875 31.78125 3.421875 
Q 38.8125 3.421875 42.6875 7.734375 
Q 46.578125 12.0625 46.578125 19.921875 
z
M 44.578125 55.328125 
Q 44.578125 61.96875 41.203125 65.671875 
Q 37.84375 69.390625 31.78125 69.390625 
Q 25.78125 69.390625 22.390625 65.671875 
Q 19 61.96875 19 55.328125 
Q 19 48.640625 22.390625 44.921875 
Q 25.78125 41.21875 31.78125 41.21875 
Q 37.84375 41.21875 41.203125 44.921875 
Q 44.578125 48.640625 44.578125 55.328125 
z
M 39.3125 38.8125 
Q 47.609375 37.703125 52.25 32.6875 
Q 56.890625 27.6875 56.890625 19.921875 
Q 56.890625 9.671875 50.390625 4.125 
Q 43.890625 -1.421875 31.78125 -1.421875 
Q 19.734375 -1.421875 13.203125 4.125 
Q 6.6875 9.671875 6.6875 19.921875 
Q 6.6875 27.6875 11.328125 32.6875 
Q 15.96875 37.703125 24.3125 38.8125 
Q 16.9375 40.140625 13 44.40625 
Q 9.078125 48.6875 9.078125 55.328125 
Q 9.078125 64.109375 15.125 69.15625 
Q 21.1875 74.21875 31.78125 74.21875 
Q 42.390625 74.21875 48.4375 69.15625 
Q 54.5 64.109375 54.5 55.328125 
Q 54.5 48.6875 50.5625 44.40625 
Q 46.625 40.140625 39.3125 38.8125 
z
" id="DejaVuSerif-56"/>
       </defs>
       <use xlink:href="#DejaVuSerif-56"/>
       <use x="63.623047" xlink:href="#DejaVuSerif-48"/>
       <use x="127.246094" xlink:href="#DejaVuSerif-48"/>
       <use x="190.869141" xlink:href="#DejaVuSerif-48"/>
      </g>
     </g>
    </g>
    <g id="xtick_6">
     <g id="line2d_11">
      <path clip-path="url(#p8c4c1dc862)" d="M 457.856314 320.4 
L 457.856314 43.2 
" style="fill:none;stroke:#b0b0b0;stroke-linecap:square;stroke-width:0.8;"/>
     </g>
     <g id="line2d_12">
      <g>
       <use style="stroke:#000000;stroke-width:0.8;" x="457.856314" xlink:href="#m6efce599a7" y="320.4"/>
      </g>
     </g>
     <g id="text_6">
      <!-- 10000 -->
      <g transform="translate(441.950064 334.998438)scale(0.1 -0.1)">
       <defs>
        <path d="M 14.203125 0 
L 14.203125 5.171875 
L 26.90625 5.171875 
L 26.90625 65.828125 
L 12.203125 56.296875 
L 12.203125 62.703125 
L 29.984375 74.21875 
L 36.71875 74.21875 
L 36.71875 5.171875 
L 49.421875 5.171875 
L 49.421875 0 
z
" id="DejaVuSerif-49"/>
       </defs>
       <use xlink:href="#DejaVuSerif-49"/>
       <use x="63.623047" xlink:href="#DejaVuSerif-48"/>
       <use x="127.246094" xlink:href="#DejaVuSerif-48"/>
       <use x="190.869141" xlink:href="#DejaVuSerif-48"/>
       <use x="254.492188" xlink:href="#DejaVuSerif-48"/>
      </g>
     </g>
    </g>
    <g id="text_7">
     <!-- Epoch -->
     <g transform="translate(279.31875 348.676562)scale(0.1 -0.1)">
      <defs>
       <path d="M 5.515625 0 
L 5.515625 5.171875 
L 14.796875 5.171875 
L 14.796875 67.671875 
L 5.515625 67.671875 
L 5.515625 72.90625 
L 64.203125 72.90625 
L 64.203125 56.6875 
L 58.203125 56.6875 
L 58.203125 66.890625 
L 24.703125 66.890625 
L 24.703125 42.484375 
L 48.578125 42.484375 
L 48.578125 51.609375 
L 54.59375 51.609375 
L 54.59375 27.390625 
L 48.578125 27.390625 
L 48.578125 36.53125 
L 24.703125 36.53125 
L 24.703125 6 
L 58.984375 6 
L 58.984375 16.21875 
L 64.984375 16.21875 
L 64.984375 0 
z
" id="DejaVuSerif-69"/>
       <path d="M 20.515625 28.515625 
L 20.515625 23.390625 
Q 20.515625 14.015625 24.09375 9.109375 
Q 27.6875 4.203125 34.515625 4.203125 
Q 41.40625 4.203125 44.9375 9.71875 
Q 48.484375 15.234375 48.484375 25.984375 
Q 48.484375 36.765625 44.9375 42.234375 
Q 41.40625 47.703125 34.515625 47.703125 
Q 27.6875 47.703125 24.09375 42.765625 
Q 20.515625 37.84375 20.515625 28.515625 
z
M 11.53125 46.6875 
L 2.875 46.6875 
L 2.875 51.90625 
L 20.515625 51.90625 
L 20.515625 43.796875 
Q 23.140625 48.6875 27.21875 51 
Q 31.296875 53.328125 37.3125 53.328125 
Q 46.875 53.328125 52.921875 45.75 
Q 58.984375 38.1875 58.984375 25.984375 
Q 58.984375 13.765625 52.921875 6.171875 
Q 46.875 -1.421875 37.3125 -1.421875 
Q 31.296875 -1.421875 27.21875 0.890625 
Q 23.140625 3.21875 20.515625 8.109375 
L 20.515625 -15.578125 
L 29 -15.578125 
L 29 -20.796875 
L 2.875 -20.796875 
L 2.875 -15.578125 
L 11.53125 -15.578125 
z
" id="DejaVuSerif-112"/>
       <path d="M 30.078125 3.421875 
Q 37.3125 3.421875 40.984375 9.125 
Q 44.671875 14.84375 44.671875 25.984375 
Q 44.671875 37.109375 40.984375 42.796875 
Q 37.3125 48.484375 30.078125 48.484375 
Q 22.859375 48.484375 19.171875 42.796875 
Q 15.484375 37.109375 15.484375 25.984375 
Q 15.484375 14.84375 19.1875 9.125 
Q 22.90625 3.421875 30.078125 3.421875 
z
M 30.078125 -1.421875 
Q 18.75 -1.421875 11.859375 6.078125 
Q 4.984375 13.578125 4.984375 25.984375 
Q 4.984375 38.375 11.84375 45.84375 
Q 18.703125 53.328125 30.078125 53.328125 
Q 41.453125 53.328125 48.3125 45.84375 
Q 55.171875 38.375 55.171875 25.984375 
Q 55.171875 13.578125 48.3125 6.078125 
Q 41.453125 -1.421875 30.078125 -1.421875 
z
" id="DejaVuSerif-111"/>
       <path d="M 51.421875 15.578125 
Q 49.515625 7.28125 44.09375 2.921875 
Q 38.671875 -1.421875 30.078125 -1.421875 
Q 18.75 -1.421875 11.859375 6.078125 
Q 4.984375 13.578125 4.984375 25.984375 
Q 4.984375 38.421875 11.859375 45.875 
Q 18.75 53.328125 30.078125 53.328125 
Q 35.015625 53.328125 39.890625 52.171875 
Q 44.78125 51.03125 49.703125 48.6875 
L 49.703125 35.40625 
L 44.484375 35.40625 
Q 43.453125 42.234375 40.015625 45.359375 
Q 36.578125 48.484375 30.171875 48.484375 
Q 22.90625 48.484375 19.1875 42.84375 
Q 15.484375 37.203125 15.484375 25.984375 
Q 15.484375 14.75 19.171875 9.078125 
Q 22.859375 3.421875 30.171875 3.421875 
Q 35.984375 3.421875 39.453125 6.4375 
Q 42.921875 9.46875 44.1875 15.578125 
z
" id="DejaVuSerif-99"/>
       <path d="M 4.109375 0 
L 4.109375 5.171875 
L 12.203125 5.171875 
L 12.203125 70.796875 
L 3.609375 70.796875 
L 3.609375 75.984375 
L 21.1875 75.984375 
L 21.1875 42.671875 
Q 23.6875 47.953125 27.65625 50.640625 
Q 31.640625 53.328125 36.921875 53.328125 
Q 45.515625 53.328125 49.5625 48.390625 
Q 53.609375 43.453125 53.609375 33.015625 
L 53.609375 5.171875 
L 61.625 5.171875 
L 61.625 0 
L 36.8125 0 
L 36.8125 5.171875 
L 44.578125 5.171875 
L 44.578125 30.171875 
Q 44.578125 39.703125 42.25 43.1875 
Q 39.9375 46.6875 33.984375 46.6875 
Q 27.734375 46.6875 24.453125 42.140625 
Q 21.1875 37.59375 21.1875 28.90625 
L 21.1875 5.171875 
L 29 5.171875 
L 29 0 
z
" id="DejaVuSerif-104"/>
      </defs>
      <use xlink:href="#DejaVuSerif-69"/>
      <use x="72.998047" xlink:href="#DejaVuSerif-112"/>
      <use x="137.011719" xlink:href="#DejaVuSerif-111"/>
      <use x="197.216797" xlink:href="#DejaVuSerif-99"/>
      <use x="253.222656" xlink:href="#DejaVuSerif-104"/>
     </g>
    </g>
   </g>
   <g id="matplotlib.axis_2">
    <g id="ytick_1">
     <g id="line2d_13">
      <path clip-path="url(#p8c4c1dc862)" d="M 72 309.37927 
L 518.4 309.37927 
" style="fill:none;stroke:#b0b0b0;stroke-linecap:square;stroke-width:0.8;"/>
     </g>
     <g id="line2d_14">
      <defs>
       <path d="M 0 0 
L -3.5 0 
" id="mf19cf968a1" style="stroke:#000000;stroke-width:0.8;"/>
      </defs>
      <g>
       <use style="stroke:#000000;stroke-width:0.8;" x="72" xlink:href="#mf19cf968a1" y="309.37927"/>
      </g>
     </g>
     <g id="text_8">
      <!-- −40 -->
      <g transform="translate(43.895313 313.178489)scale(0.1 -0.1)">
       <defs>
        <path d="M 10.59375 35.296875 
L 73.1875 35.296875 
L 73.1875 27.390625 
L 10.59375 27.390625 
z
" id="DejaVuSerif-8722"/>
       </defs>
       <use xlink:href="#DejaVuSerif-8722"/>
       <use x="83.789062" xlink:href="#DejaVuSerif-52"/>
       <use x="147.412109" xlink:href="#DejaVuSerif-48"/>
      </g>
     </g>
    </g>
    <g id="ytick_2">
     <g id="line2d_15">
      <path clip-path="url(#p8c4c1dc862)" d="M 72 267.874142 
L 518.4 267.874142 
" style="fill:none;stroke:#b0b0b0;stroke-linecap:square;stroke-width:0.8;"/>
     </g>
     <g id="line2d_16">
      <g>
       <use style="stroke:#000000;stroke-width:0.8;" x="72" xlink:href="#mf19cf968a1" y="267.874142"/>
      </g>
     </g>
     <g id="text_9">
      <!-- −20 -->
      <g transform="translate(43.895313 271.673361)scale(0.1 -0.1)">
       <use xlink:href="#DejaVuSerif-8722"/>
       <use x="83.789062" xlink:href="#DejaVuSerif-50"/>
       <use x="147.412109" xlink:href="#DejaVuSerif-48"/>
      </g>
     </g>
    </g>
    <g id="ytick_3">
     <g id="line2d_17">
      <path clip-path="url(#p8c4c1dc862)" d="M 72 226.369014 
L 518.4 226.369014 
" style="fill:none;stroke:#b0b0b0;stroke-linecap:square;stroke-width:0.8;"/>
     </g>
     <g id="line2d_18">
      <g>
       <use style="stroke:#000000;stroke-width:0.8;" x="72" xlink:href="#mf19cf968a1" y="226.369014"/>
      </g>
     </g>
     <g id="text_10">
      <!-- 0 -->
      <g transform="translate(58.6375 230.168233)scale(0.1 -0.1)">
       <use xlink:href="#DejaVuSerif-48"/>
      </g>
     </g>
    </g>
    <g id="ytick_4">
     <g id="line2d_19">
      <path clip-path="url(#p8c4c1dc862)" d="M 72 184.863886 
L 518.4 184.863886 
" style="fill:none;stroke:#b0b0b0;stroke-linecap:square;stroke-width:0.8;"/>
     </g>
     <g id="line2d_20">
      <g>
       <use style="stroke:#000000;stroke-width:0.8;" x="72" xlink:href="#mf19cf968a1" y="184.863886"/>
      </g>
     </g>
     <g id="text_11">
      <!-- 20 -->
      <g transform="translate(52.275 188.663105)scale(0.1 -0.1)">
       <use xlink:href="#DejaVuSerif-50"/>
       <use x="63.623047" xlink:href="#DejaVuSerif-48"/>
      </g>
     </g>
    </g>
    <g id="ytick_5">
     <g id="line2d_21">
      <path clip-path="url(#p8c4c1dc862)" d="M 72 143.358758 
L 518.4 143.358758 
" style="fill:none;stroke:#b0b0b0;stroke-linecap:square;stroke-width:0.8;"/>
     </g>
     <g id="line2d_22">
      <g>
       <use style="stroke:#000000;stroke-width:0.8;" x="72" xlink:href="#mf19cf968a1" y="143.358758"/>
      </g>
     </g>
     <g id="text_12">
      <!-- 40 -->
      <g transform="translate(52.275 147.157977)scale(0.1 -0.1)">
       <use xlink:href="#DejaVuSerif-52"/>
       <use x="63.623047" xlink:href="#DejaVuSerif-48"/>
      </g>
     </g>
    </g>
    <g id="ytick_6">
     <g id="line2d_23">
      <path clip-path="url(#p8c4c1dc862)" d="M 72 101.85363 
L 518.4 101.85363 
" style="fill:none;stroke:#b0b0b0;stroke-linecap:square;stroke-width:0.8;"/>
     </g>
     <g id="line2d_24">
      <g>
       <use style="stroke:#000000;stroke-width:0.8;" x="72" xlink:href="#mf19cf968a1" y="101.85363"/>
      </g>
     </g>
     <g id="text_13">
      <!-- 60 -->
      <g transform="translate(52.275 105.652849)scale(0.1 -0.1)">
       <use xlink:href="#DejaVuSerif-54"/>
       <use x="63.623047" xlink:href="#DejaVuSerif-48"/>
      </g>
     </g>
    </g>
    <g id="ytick_7">
     <g id="line2d_25">
      <path clip-path="url(#p8c4c1dc862)" d="M 72 60.348502 
L 518.4 60.348502 
" style="fill:none;stroke:#b0b0b0;stroke-linecap:square;stroke-width:0.8;"/>
     </g>
     <g id="line2d_26">
      <g>
       <use style="stroke:#000000;stroke-width:0.8;" x="72" xlink:href="#mf19cf968a1" y="60.348502"/>
      </g>
     </g>
     <g id="text_14">
      <!-- 80 -->
      <g transform="translate(52.275 64.14772)scale(0.1 -0.1)">
       <use xlink:href="#DejaVuSerif-56"/>
       <use x="63.623047" xlink:href="#DejaVuSerif-48"/>
      </g>
     </g>
    </g>
    <g id="text_15">
     <!-- Reward -->
     <g transform="translate(37.815625 201.375781)rotate(-90)scale(0.1 -0.1)">
      <defs>
       <path d="M 47.90625 36.1875 
Q 51.3125 35.25 53.78125 33.03125 
Q 56.25 30.8125 58.203125 26.8125 
L 68.796875 5.171875 
L 77.6875 5.171875 
L 77.6875 0 
L 60.5 0 
L 49.125 23.1875 
Q 45.84375 29.9375 43.109375 31.90625 
Q 40.375 33.890625 35.59375 33.890625 
L 24.703125 33.890625 
L 24.703125 5.171875 
L 35.015625 5.171875 
L 35.015625 0 
L 5.515625 0 
L 5.515625 5.171875 
L 14.796875 5.171875 
L 14.796875 67.671875 
L 5.515625 67.671875 
L 5.515625 72.90625 
L 42.484375 72.90625 
Q 53.125 72.90625 58.90625 67.828125 
Q 64.703125 62.75 64.703125 53.421875 
Q 64.703125 45.90625 60.46875 41.578125 
Q 56.25 37.25 47.90625 36.1875 
z
M 24.703125 39.109375 
L 39.109375 39.109375 
Q 46.484375 39.109375 50 42.59375 
Q 53.515625 46.09375 53.515625 53.421875 
Q 53.515625 60.75 50 64.203125 
Q 46.484375 67.671875 39.109375 67.671875 
L 24.703125 67.671875 
z
" id="DejaVuSerif-82"/>
       <path d="M 54.203125 25 
L 15.484375 25 
L 15.484375 24.609375 
Q 15.484375 14.109375 19.4375 8.765625 
Q 23.390625 3.421875 31.109375 3.421875 
Q 37.015625 3.421875 40.796875 6.515625 
Q 44.578125 9.625 46.09375 15.71875 
L 53.328125 15.71875 
Q 51.171875 7.171875 45.375 2.875 
Q 39.59375 -1.421875 30.171875 -1.421875 
Q 18.796875 -1.421875 11.890625 6.078125 
Q 4.984375 13.578125 4.984375 25.984375 
Q 4.984375 38.28125 11.765625 45.796875 
Q 18.5625 53.328125 29.59375 53.328125 
Q 41.359375 53.328125 47.65625 46.0625 
Q 53.953125 38.8125 54.203125 25 
z
M 43.609375 30.171875 
Q 43.3125 39.265625 39.765625 43.875 
Q 36.234375 48.484375 29.59375 48.484375 
Q 23.390625 48.484375 19.828125 43.84375 
Q 16.265625 39.203125 15.484375 30.171875 
z
" id="DejaVuSerif-101"/>
       <path d="M 48 51.90625 
L 61.28125 11.375 
L 73 46.6875 
L 65.484375 46.6875 
L 65.484375 51.90625 
L 84.28125 51.90625 
L 84.28125 46.6875 
L 78.515625 46.6875 
L 63.09375 0 
L 55.609375 0 
L 42.828125 38.8125 
L 29.984375 0 
L 22.796875 0 
L 7.421875 46.6875 
L 1.609375 46.6875 
L 1.609375 51.90625 
L 25.09375 51.90625 
L 25.09375 46.6875 
L 16.703125 46.6875 
L 28.328125 11.375 
L 41.703125 51.90625 
z
" id="DejaVuSerif-119"/>
       <path d="M 39.796875 16.3125 
L 39.796875 27.296875 
L 28.21875 27.296875 
Q 21.53125 27.296875 18.25 24.40625 
Q 14.984375 21.53125 14.984375 15.578125 
Q 14.984375 10.15625 18.296875 6.984375 
Q 21.625 3.8125 27.296875 3.8125 
Q 32.90625 3.8125 36.34375 7.28125 
Q 39.796875 10.75 39.796875 16.3125 
z
M 48.78125 32.421875 
L 48.78125 5.171875 
L 56.78125 5.171875 
L 56.78125 0 
L 39.796875 0 
L 39.796875 5.609375 
Q 36.8125 2 32.90625 0.28125 
Q 29 -1.421875 23.78125 -1.421875 
Q 15.140625 -1.421875 10.0625 3.171875 
Q 4.984375 7.765625 4.984375 15.578125 
Q 4.984375 23.640625 10.796875 28.078125 
Q 16.609375 32.515625 27.203125 32.515625 
L 39.796875 32.515625 
L 39.796875 36.078125 
Q 39.796875 42 36.203125 45.234375 
Q 32.625 48.484375 26.125 48.484375 
Q 20.75 48.484375 17.578125 46.046875 
Q 14.40625 43.609375 13.625 38.8125 
L 8.984375 38.8125 
L 8.984375 49.3125 
Q 13.671875 51.3125 18.09375 52.3125 
Q 22.515625 53.328125 26.703125 53.328125 
Q 37.5 53.328125 43.140625 47.96875 
Q 48.78125 42.625 48.78125 32.421875 
z
" id="DejaVuSerif-97"/>
       <path d="M 47.796875 52 
L 47.796875 39.015625 
L 42.625 39.015625 
Q 42.390625 42.875 40.484375 44.78125 
Q 38.578125 46.6875 34.90625 46.6875 
Q 28.265625 46.6875 24.71875 42.09375 
Q 21.1875 37.5 21.1875 28.90625 
L 21.1875 5.171875 
L 31.59375 5.171875 
L 31.59375 0 
L 4.109375 0 
L 4.109375 5.171875 
L 12.203125 5.171875 
L 12.203125 46.78125 
L 3.609375 46.78125 
L 3.609375 51.90625 
L 21.1875 51.90625 
L 21.1875 42.671875 
Q 23.828125 48.09375 27.96875 50.703125 
Q 32.125 53.328125 38.09375 53.328125 
Q 40.28125 53.328125 42.703125 52.984375 
Q 45.125 52.640625 47.796875 52 
z
" id="DejaVuSerif-114"/>
       <path d="M 52.484375 5.171875 
L 61.078125 5.171875 
L 61.078125 0 
L 43.5 0 
L 43.5 8.109375 
Q 40.875 3.21875 36.796875 0.890625 
Q 32.71875 -1.421875 26.703125 -1.421875 
Q 17.140625 -1.421875 11.0625 6.171875 
Q 4.984375 13.765625 4.984375 25.984375 
Q 4.984375 38.1875 11.03125 45.75 
Q 17.09375 53.328125 26.703125 53.328125 
Q 32.71875 53.328125 36.796875 51 
Q 40.875 48.6875 43.5 43.796875 
L 43.5 70.796875 
L 35.015625 70.796875 
L 35.015625 75.984375 
L 52.484375 75.984375 
z
M 43.5 23.390625 
L 43.5 28.515625 
Q 43.5 37.84375 39.90625 42.765625 
Q 36.328125 47.703125 29.5 47.703125 
Q 22.5625 47.703125 19.015625 42.234375 
Q 15.484375 36.765625 15.484375 25.984375 
Q 15.484375 15.234375 19.015625 9.71875 
Q 22.5625 4.203125 29.5 4.203125 
Q 36.328125 4.203125 39.90625 9.109375 
Q 43.5 14.015625 43.5 23.390625 
z
" id="DejaVuSerif-100"/>
      </defs>
      <use xlink:href="#DejaVuSerif-82"/>
      <use x="75.292969" xlink:href="#DejaVuSerif-101"/>
      <use x="134.472656" xlink:href="#DejaVuSerif-119"/>
      <use x="220.068359" xlink:href="#DejaVuSerif-97"/>
      <use x="279.6875" xlink:href="#DejaVuSerif-114"/>
      <use x="327.490234" xlink:href="#DejaVuSerif-100"/>
     </g>
    </g>
   </g>
   <g id="LineCollection_1">
    <path clip-path="url(#p8c4c1dc862)" d="M 125.195086 243.802682 
L 125.195086 208.935346 
" style="fill:none;stroke:#66c2a5;stroke-dasharray:7.4,3.2;stroke-dashoffset:0;stroke-opacity:0.5;stroke-width:2;"/>
   </g>
   <g id="LineCollection_2">
    <path clip-path="url(#p8c4c1dc862)" d="M 194.659459 183.906217 
L 194.659459 149.038881 
" style="fill:none;stroke:#66c2a5;stroke-dasharray:7.4,3.2;stroke-dashoffset:0;stroke-opacity:0.5;stroke-width:2;"/>
   </g>
   <g id="LineCollection_3">
    <path clip-path="url(#p8c4c1dc862)" d="M 121.904668 242.459452 
L 121.904668 210.278576 
" style="fill:none;stroke:#fc8d62;stroke-dasharray:7.4,3.2;stroke-dashoffset:0;stroke-opacity:0.5;stroke-width:2;"/>
   </g>
   <g id="LineCollection_4">
    <path clip-path="url(#p8c4c1dc862)" d="M 245.843735 166.327631 
L 245.843735 134.146755 
" style="fill:none;stroke:#fc8d62;stroke-dasharray:7.4,3.2;stroke-dashoffset:0;stroke-opacity:0.5;stroke-width:2;"/>
   </g>
   <g id="LineCollection_5">
    <path clip-path="url(#p8c4c1dc862)" d="M 118.614251 244.455351 
L 118.614251 208.282677 
" style="fill:none;stroke:#8da0cb;stroke-dasharray:7.4,3.2;stroke-dashoffset:0;stroke-opacity:0.5;stroke-width:2;"/>
   </g>
   <g id="LineCollection_6">
    <path clip-path="url(#p8c4c1dc862)" d="M 243.650123 174.967463 
L 243.650123 138.794789 
" style="fill:none;stroke:#8da0cb;stroke-dasharray:7.4,3.2;stroke-dashoffset:0;stroke-opacity:0.5;stroke-width:2;"/>
   </g>
   <g id="LineCollection_7">
    <path clip-path="url(#p8c4c1dc862)" d="M 107.646192 248.961085 
L 107.646192 203.776943 
" style="fill:none;stroke:#e78ac3;stroke-dasharray:7.4,3.2;stroke-dashoffset:0;stroke-opacity:0.5;stroke-width:2;"/>
   </g>
   <g id="LineCollection_8">
    <path clip-path="url(#p8c4c1dc862)" d="M 255.714988 149.066334 
L 255.714988 103.882192 
" style="fill:none;stroke:#e78ac3;stroke-dasharray:7.4,3.2;stroke-dashoffset:0;stroke-opacity:0.5;stroke-width:2;"/>
   </g>
   <g id="LineCollection_9">
    <path clip-path="url(#p8c4c1dc862)" d="M 107.646192 254.542446 
L 107.646192 198.195582 
" style="fill:none;stroke:#a6d854;stroke-dasharray:7.4,3.2;stroke-dashoffset:0;stroke-opacity:0.5;stroke-width:2;"/>
   </g>
   <g id="LineCollection_10">
    <path clip-path="url(#p8c4c1dc862)" d="M 384.041278 112.146864 
L 384.041278 55.8 
" style="fill:none;stroke:#a6d854;stroke-dasharray:7.4,3.2;stroke-dashoffset:0;stroke-opacity:0.5;stroke-width:2;"/>
   </g>
   <g id="LineCollection_11">
    <path clip-path="url(#p8c4c1dc862)" d="M 104.355774 246.922769 
L 104.355774 205.815259 
" style="fill:none;stroke:#ffd92f;stroke-dasharray:7.4,3.2;stroke-dashoffset:0;stroke-opacity:0.5;stroke-width:2;"/>
   </g>
   <g id="LineCollection_12">
    <path clip-path="url(#p8c4c1dc862)" d="M 221.714005 176.060858 
L 221.714005 134.953348 
" style="fill:none;stroke:#ffd92f;stroke-dasharray:7.4,3.2;stroke-dashoffset:0;stroke-opacity:0.5;stroke-width:2;"/>
   </g>
   <g id="line2d_27">
    <path clip-path="url(#p8c4c1dc862)" d="M 92.290909 300.498492 
L 93.753317 295.747715 
L 95.215725 291.127838 
L 96.678133 286.428718 
L 98.140541 281.78212 
L 99.602948 276.781856 
L 102.527764 266.598466 
L 103.990172 264.779213 
L 104.721376 263.529037 
L 105.45258 263.13888 
L 106.183784 261.941424 
L 106.914988 261.347743 
L 107.646192 261.045038 
L 108.377396 259.795833 
L 109.1086 258.928143 
L 110.571007 256.437919 
L 111.302211 255.71187 
L 112.033415 254.240513 
L 114.958231 249.419161 
L 116.420639 246.234024 
L 117.151843 245.029695 
L 120.807862 237.469195 
L 123.732678 230.680276 
L 124.463882 229.136659 
L 125.92629 225.144937 
L 126.657494 224.004293 
L 127.388698 222.063737 
L 128.851106 218.953608 
L 129.58231 217.186328 
L 130.313514 216.11401 
L 131.775921 213.02739 
L 132.507125 212.144717 
L 133.238329 210.66359 
L 134.700737 209.336887 
L 135.431941 207.898502 
L 136.163145 206.73801 
L 136.894349 206.144653 
L 137.625553 205.112561 
L 138.356757 203.366573 
L 139.087961 202.993774 
L 139.819165 202.41198 
L 141.281572 200.424814 
L 142.012776 199.908208 
L 142.74398 199.082555 
L 144.206388 197.777094 
L 144.937592 196.728044 
L 145.668796 196.025918 
L 146.4 195.48587 
L 147.131204 194.767068 
L 147.862408 194.279457 
L 151.518428 189.407087 
L 152.249631 188.000279 
L 152.980835 187.154579 
L 153.712039 186.818105 
L 155.174447 185.205498 
L 156.636855 184.773563 
L 157.368059 183.681081 
L 158.099263 183.037262 
L 158.830467 182.609253 
L 159.561671 182.33761 
L 160.292875 181.407322 
L 161.755283 180.327459 
L 162.486486 179.758581 
L 163.948894 178.97933 
L 164.680098 178.386554 
L 165.411302 177.977729 
L 166.142506 177.158733 
L 166.87371 177.066309 
L 167.604914 176.656172 
L 168.336118 176.584609 
L 169.067322 176.303661 
L 169.798526 175.796004 
L 170.52973 175.741416 
L 171.260934 175.213064 
L 172.723342 174.448208 
L 174.185749 172.707317 
L 174.916953 172.073716 
L 176.379361 171.898298 
L 177.841769 170.90909 
L 179.304177 170.486999 
L 180.035381 169.974013 
L 180.766585 169.931304 
L 181.497789 169.391729 
L 182.960197 168.831708 
L 183.6914 168.479189 
L 185.885012 167.978786 
L 186.616216 168.09398 
L 187.34742 167.615658 
L 188.809828 167.691537 
L 189.541032 167.447994 
L 190.272236 167.002685 
L 193.197052 166.855018 
L 194.659459 165.789017 
L 195.390663 165.560631 
L 199.046683 163.753473 
L 199.777887 163.708174 
L 200.509091 163.127983 
L 201.240295 163.079422 
L 201.971499 162.798681 
L 202.702703 162.714293 
L 203.433907 162.31957 
L 204.165111 162.293563 
L 204.896314 161.927936 
L 206.358722 161.641426 
L 207.089926 161.027383 
L 207.82113 160.581551 
L 208.552334 160.409986 
L 209.283538 160.027284 
L 210.014742 159.868435 
L 210.745946 159.950383 
L 212.939558 159.046459 
L 213.670762 159.020128 
L 214.401966 158.801886 
L 215.13317 158.908364 
L 215.864373 158.662147 
L 216.595577 158.842603 
L 217.326781 158.671735 
L 219.520393 158.457386 
L 220.251597 158.650824 
L 220.982801 158.498775 
L 222.445209 157.755725 
L 223.176413 157.792689 
L 223.907617 157.958311 
L 224.638821 157.508969 
L 226.101229 156.865814 
L 228.29484 155.793139 
L 229.026044 155.041091 
L 230.488452 154.540772 
L 231.219656 154.318006 
L 231.95086 153.914725 
L 232.682064 153.725603 
L 233.413268 153.163342 
L 233.413268 153.163342 
" style="fill:none;stroke:#66c2a5;stroke-linecap:square;stroke-width:2;"/>
    <defs>
     <path d="M 0 3 
C 0.795609 3 1.55874 2.683901 2.12132 2.12132 
C 2.683901 1.55874 3 0.795609 3 0 
C 3 -0.795609 2.683901 -1.55874 2.12132 -2.12132 
C 1.55874 -2.683901 0.795609 -3 0 -3 
C -0.795609 -3 -1.55874 -2.683901 -2.12132 -2.12132 
C -2.683901 -1.55874 -3 -0.795609 -3 0 
C -3 0.795609 -2.683901 1.55874 -2.12132 2.12132 
C -1.55874 2.683901 -0.795609 3 0 3 
z
" id="mbdb43e65a1" style="stroke:#66c2a5;"/>
    </defs>
    <g clip-path="url(#p8c4c1dc862)">
     <use style="fill:#66c2a5;stroke:#66c2a5;" x="92.290909" xlink:href="#mbdb43e65a1" y="300.498492"/>
     <use style="fill:#66c2a5;stroke:#66c2a5;" x="106.914988" xlink:href="#mbdb43e65a1" y="261.347743"/>
     <use style="fill:#66c2a5;stroke:#66c2a5;" x="121.539066" xlink:href="#mbdb43e65a1" y="235.740474"/>
     <use style="fill:#66c2a5;stroke:#66c2a5;" x="136.163145" xlink:href="#mbdb43e65a1" y="206.73801"/>
     <use style="fill:#66c2a5;stroke:#66c2a5;" x="150.787224" xlink:href="#mbdb43e65a1" y="190.45197"/>
     <use style="fill:#66c2a5;stroke:#66c2a5;" x="165.411302" xlink:href="#mbdb43e65a1" y="177.977729"/>
     <use style="fill:#66c2a5;stroke:#66c2a5;" x="180.035381" xlink:href="#mbdb43e65a1" y="169.974013"/>
     <use style="fill:#66c2a5;stroke:#66c2a5;" x="194.659459" xlink:href="#mbdb43e65a1" y="165.789017"/>
     <use style="fill:#66c2a5;stroke:#66c2a5;" x="209.283538" xlink:href="#mbdb43e65a1" y="160.027284"/>
     <use style="fill:#66c2a5;stroke:#66c2a5;" x="223.907617" xlink:href="#mbdb43e65a1" y="157.958311"/>
    </g>
   </g>
   <g id="line2d_28">
    <path clip-path="url(#p8c4c1dc862)" d="M 92.290909 269.297261 
L 93.387715 268.225915 
L 95.581327 265.753919 
L 96.678133 264.803311 
L 98.871744 262.018557 
L 99.96855 260.902144 
L 101.065356 259.109455 
L 102.162162 257.771213 
L 106.549386 251.107449 
L 107.646192 248.245097 
L 108.742998 246.09333 
L 109.839803 245.620197 
L 110.936609 244.513562 
L 112.033415 243.16462 
L 115.323833 237.957146 
L 117.517445 234.959007 
L 118.614251 232.642722 
L 119.711057 230.644233 
L 120.807862 228.891812 
L 123.001474 224.754265 
L 124.09828 222.282975 
L 125.195086 220.422616 
L 126.291892 218.30695 
L 127.388698 215.94222 
L 130.679115 211.110583 
L 133.969533 205.19763 
L 136.163145 202.343397 
L 141.647174 194.027861 
L 142.74398 192.650472 
L 144.937592 188.757191 
L 146.034398 187.307201 
L 147.131204 186.876552 
L 148.22801 185.725433 
L 149.324816 184.76033 
L 150.421622 184.097095 
L 152.615233 182.112527 
L 155.905651 179.695244 
L 157.002457 178.363203 
L 158.099263 177.251015 
L 159.196069 176.680942 
L 162.486486 174.008286 
L 163.583292 173.34833 
L 164.680098 172.129025 
L 165.776904 171.731498 
L 166.87371 170.936168 
L 169.067322 170.467492 
L 170.164128 169.873687 
L 171.260934 170.071948 
L 172.35774 169.177928 
L 173.454545 168.903122 
L 174.551351 167.763599 
L 175.648157 167.035989 
L 176.744963 166.550554 
L 178.938575 165.401326 
L 180.035381 164.923345 
L 181.132187 164.713902 
L 182.228993 164.191643 
L 184.422604 162.543923 
L 186.616216 161.694205 
L 187.713022 161.632512 
L 188.809828 161.277402 
L 191.00344 160.298786 
L 192.100246 159.96413 
L 193.197052 159.026404 
L 194.293857 158.472726 
L 195.390663 157.738998 
L 196.487469 156.707139 
L 197.584275 156.294329 
L 198.681081 155.282683 
L 199.777887 155.416405 
L 200.874693 154.494426 
L 201.971499 154.336873 
L 203.068305 154.358397 
L 206.358722 153.719857 
L 208.552334 152.879254 
L 210.745946 152.784447 
L 211.842752 153.175791 
L 212.939558 152.824798 
L 214.036364 152.353093 
L 218.423587 151.188143 
L 219.520393 151.030017 
L 221.714005 151.120955 
L 222.810811 151.026987 
L 223.907617 151.180182 
L 225.004423 150.844995 
L 226.101229 150.929832 
L 227.198034 150.473259 
L 228.29484 150.676252 
L 229.391646 150.34539 
L 230.488452 150.174165 
L 231.585258 149.847702 
L 232.682064 149.640492 
L 235.972482 149.500503 
L 237.069287 149.435697 
L 238.166093 149.512482 
L 239.262899 148.840613 
L 240.359705 148.464469 
L 241.456511 148.506306 
L 242.553317 148.355435 
L 243.650123 148.777667 
L 244.746929 148.967545 
L 248.037346 148.37437 
L 250.230958 147.719727 
L 251.327764 147.989444 
L 254.618182 147.477694 
L 255.714988 147.528621 
L 256.811794 147.313126 
L 257.9086 147.391264 
L 260.102211 147.70564 
L 261.199017 147.507761 
L 262.295823 147.4805 
L 264.489435 147.291536 
L 265.586241 146.923783 
L 266.683047 146.43096 
L 267.779853 146.970826 
L 268.876658 147.136547 
L 269.973464 146.793532 
L 271.07027 146.229677 
L 272.167076 145.798339 
L 274.360688 146.049229 
L 275.457494 145.914412 
L 276.5543 146.051304 
L 277.651106 146.018282 
L 278.747912 145.456038 
L 280.941523 144.648049 
L 282.038329 144.536051 
L 283.135135 143.993098 
L 284.231941 143.753414 
L 285.328747 142.92913 
L 286.425553 142.457657 
L 287.522359 141.798132 
L 288.619165 141.529992 
L 293.006388 139.907705 
L 293.006388 139.907705 
" style="fill:none;stroke:#fc8d62;stroke-linecap:square;stroke-width:2;"/>
    <defs>
     <path d="M -0 3 
L 3 -3 
L -3 -3 
z
" id="m5a59181c4c" style="stroke:#fc8d62;stroke-linejoin:miter;"/>
    </defs>
    <g clip-path="url(#p8c4c1dc862)">
     <use style="fill:#fc8d62;stroke:#fc8d62;stroke-linejoin:miter;" x="92.290909" xlink:href="#m5a59181c4c" y="269.297261"/>
     <use style="fill:#fc8d62;stroke:#fc8d62;stroke-linejoin:miter;" x="114.227027" xlink:href="#m5a59181c4c" y="239.75915"/>
     <use style="fill:#fc8d62;stroke:#fc8d62;stroke-linejoin:miter;" x="136.163145" xlink:href="#m5a59181c4c" y="202.343397"/>
     <use style="fill:#fc8d62;stroke:#fc8d62;stroke-linejoin:miter;" x="158.099263" xlink:href="#m5a59181c4c" y="177.251015"/>
     <use style="fill:#fc8d62;stroke:#fc8d62;stroke-linejoin:miter;" x="180.035381" xlink:href="#m5a59181c4c" y="164.923345"/>
     <use style="fill:#fc8d62;stroke:#fc8d62;stroke-linejoin:miter;" x="201.971499" xlink:href="#m5a59181c4c" y="154.336873"/>
     <use style="fill:#fc8d62;stroke:#fc8d62;stroke-linejoin:miter;" x="223.907617" xlink:href="#m5a59181c4c" y="151.180182"/>
     <use style="fill:#fc8d62;stroke:#fc8d62;stroke-linejoin:miter;" x="245.843735" xlink:href="#m5a59181c4c" y="148.806156"/>
     <use style="fill:#fc8d62;stroke:#fc8d62;stroke-linejoin:miter;" x="267.779853" xlink:href="#m5a59181c4c" y="146.970826"/>
     <use style="fill:#fc8d62;stroke:#fc8d62;stroke-linejoin:miter;" x="289.715971" xlink:href="#m5a59181c4c" y="141.105676"/>
    </g>
   </g>
   <g id="line2d_29">
    <path clip-path="url(#p8c4c1dc862)" d="M 92.290909 296.744654 
L 95.581327 287.207622 
L 97.774939 280.498177 
L 98.871744 276.873459 
L 99.96855 273.662249 
L 104.355774 258.571474 
L 106.549386 250.396391 
L 108.742998 245.845578 
L 109.839803 244.267544 
L 115.323833 233.552124 
L 116.420639 231.837381 
L 117.517445 229.704449 
L 118.614251 227.863979 
L 121.904668 221.01306 
L 125.195086 215.061556 
L 126.291892 213.493136 
L 127.388698 211.019579 
L 128.485504 209.17862 
L 129.58231 206.988585 
L 130.679115 205.711148 
L 132.872727 202.278558 
L 135.066339 199.24621 
L 136.163145 198.26639 
L 137.259951 196.890279 
L 138.356757 195.962026 
L 139.453563 194.466089 
L 140.550369 193.562573 
L 143.840786 190.128347 
L 144.937592 188.789782 
L 146.034398 187.740391 
L 148.22801 186.567107 
L 151.518428 183.934587 
L 153.712039 182.029011 
L 154.808845 181.657582 
L 157.002457 180.322071 
L 158.099263 179.263948 
L 161.389681 177.950493 
L 163.583292 177.287689 
L 165.776904 176.107059 
L 166.87371 175.871642 
L 167.970516 175.488824 
L 170.164128 174.257798 
L 172.35774 173.538141 
L 174.551351 172.945738 
L 176.744963 172.050099 
L 177.841769 171.674627 
L 178.938575 171.552478 
L 180.035381 171.74551 
L 182.228993 170.578576 
L 183.325799 170.321867 
L 184.422604 170.496347 
L 185.51941 170.424941 
L 187.713022 169.856196 
L 189.906634 168.694609 
L 192.100246 168.110449 
L 193.197052 167.47435 
L 194.293857 167.389546 
L 196.487469 166.863237 
L 198.681081 167.05939 
L 199.777887 166.532424 
L 200.874693 166.279483 
L 201.971499 166.167229 
L 203.068305 165.917808 
L 204.165111 165.948057 
L 207.455528 164.400795 
L 208.552334 164.365342 
L 210.745946 163.82233 
L 211.842752 163.125849 
L 214.036364 162.33032 
L 215.13317 162.2371 
L 216.229975 162.338729 
L 220.617199 162.126671 
L 222.810811 161.60369 
L 223.907617 161.472907 
L 225.004423 160.779498 
L 226.101229 160.43244 
L 228.29484 159.975543 
L 229.391646 159.490531 
L 231.585258 159.151675 
L 234.875676 159.250855 
L 235.972482 158.841831 
L 237.069287 158.912165 
L 238.166093 158.778195 
L 239.262899 158.784296 
L 240.359705 158.674316 
L 242.553317 158.301127 
L 243.650123 158.116147 
L 245.843735 158.094813 
L 246.940541 157.948881 
L 248.037346 158.267192 
L 249.134152 157.951612 
L 250.230958 157.768408 
L 251.327764 157.835904 
L 252.42457 158.069628 
L 253.521376 157.942323 
L 257.9086 158.077622 
L 261.199017 157.664114 
L 262.295823 157.369029 
L 263.392629 157.475307 
L 265.586241 157.024802 
L 266.683047 157.152763 
L 267.779853 156.977719 
L 268.876658 157.071039 
L 273.263882 156.025998 
L 274.360688 155.987365 
L 275.457494 155.421459 
L 277.651106 155.754928 
L 278.747912 155.525637 
L 282.038329 155.283189 
L 283.135135 154.882715 
L 284.231941 154.732292 
L 286.425553 154.830302 
L 288.619165 154.612192 
L 291.909582 155.278142 
L 293.006388 155.613296 
L 294.103194 155.533814 
L 296.296806 155.973635 
L 301.780835 156.898951 
L 302.877641 157.311554 
L 303.974447 157.416329 
L 303.974447 157.416329 
" style="fill:none;stroke:#8da0cb;stroke-linecap:square;stroke-width:2;"/>
    <defs>
     <path d="M -3 3 
L 3 3 
L 3 -3 
L -3 -3 
z
" id="m09b83bb50a" style="stroke:#8da0cb;stroke-linejoin:miter;"/>
    </defs>
    <g clip-path="url(#p8c4c1dc862)">
     <use style="fill:#8da0cb;stroke:#8da0cb;stroke-linejoin:miter;" x="92.290909" xlink:href="#m09b83bb50a" y="296.744654"/>
     <use style="fill:#8da0cb;stroke:#8da0cb;stroke-linejoin:miter;" x="114.227027" xlink:href="#m09b83bb50a" y="235.715014"/>
     <use style="fill:#8da0cb;stroke:#8da0cb;stroke-linejoin:miter;" x="136.163145" xlink:href="#m09b83bb50a" y="198.26639"/>
     <use style="fill:#8da0cb;stroke:#8da0cb;stroke-linejoin:miter;" x="158.099263" xlink:href="#m09b83bb50a" y="179.263948"/>
     <use style="fill:#8da0cb;stroke:#8da0cb;stroke-linejoin:miter;" x="180.035381" xlink:href="#m09b83bb50a" y="171.74551"/>
     <use style="fill:#8da0cb;stroke:#8da0cb;stroke-linejoin:miter;" x="201.971499" xlink:href="#m09b83bb50a" y="166.167229"/>
     <use style="fill:#8da0cb;stroke:#8da0cb;stroke-linejoin:miter;" x="223.907617" xlink:href="#m09b83bb50a" y="161.472907"/>
     <use style="fill:#8da0cb;stroke:#8da0cb;stroke-linejoin:miter;" x="245.843735" xlink:href="#m09b83bb50a" y="158.094813"/>
     <use style="fill:#8da0cb;stroke:#8da0cb;stroke-linejoin:miter;" x="267.779853" xlink:href="#m09b83bb50a" y="156.977719"/>
     <use style="fill:#8da0cb;stroke:#8da0cb;stroke-linejoin:miter;" x="289.715971" xlink:href="#m09b83bb50a" y="154.814961"/>
    </g>
   </g>
   <g id="line2d_30">
    <path clip-path="url(#p8c4c1dc862)" d="M 92.290909 307.8 
L 98.871744 278.188009 
L 101.065356 267.272841 
L 103.258968 254.471306 
L 105.45258 240.921907 
L 107.646192 226.924278 
L 108.742998 221.883547 
L 110.936609 214.724053 
L 117.517445 193.101268 
L 119.711057 186.487318 
L 125.195086 171.924671 
L 128.485504 165.396553 
L 129.58231 163.70668 
L 130.679115 162.469893 
L 132.872727 160.577334 
L 133.969533 160.037394 
L 135.066339 159.314906 
L 136.163145 158.728936 
L 137.259951 157.8968 
L 138.356757 156.816256 
L 140.550369 155.410759 
L 141.647174 154.865739 
L 143.840786 154.450272 
L 144.937592 153.774071 
L 146.034398 153.660853 
L 149.324816 152.716421 
L 150.421622 152.149593 
L 152.615233 150.760898 
L 153.712039 150.230172 
L 154.808845 149.515055 
L 155.905651 148.944368 
L 158.099263 148.554859 
L 159.196069 147.819106 
L 160.292875 147.405806 
L 161.389681 147.225765 
L 162.486486 146.403756 
L 164.680098 145.767217 
L 165.776904 145.576077 
L 166.87371 145.100611 
L 167.970516 144.856321 
L 170.164128 144.070156 
L 171.260934 143.152544 
L 172.35774 142.501893 
L 174.551351 140.845091 
L 175.648157 140.26709 
L 176.744963 140.02622 
L 177.841769 139.952781 
L 178.938575 140.06531 
L 180.035381 139.912629 
L 183.325799 139.829337 
L 186.616216 138.769047 
L 187.713022 138.481375 
L 188.809828 137.938114 
L 189.906634 137.833289 
L 191.00344 137.379231 
L 192.100246 137.165845 
L 193.197052 136.828392 
L 194.293857 136.901449 
L 195.390663 136.30033 
L 196.487469 136.411057 
L 197.584275 136.008026 
L 200.874693 136.119608 
L 203.068305 136.628577 
L 204.165111 136.325764 
L 205.261916 136.220009 
L 206.358722 135.916291 
L 207.455528 135.810245 
L 208.552334 135.580439 
L 209.64914 135.625198 
L 210.745946 135.038615 
L 214.036364 134.530442 
L 216.229975 134.210131 
L 217.326781 134.271716 
L 218.423587 134.206811 
L 219.520393 134.350883 
L 220.617199 134.316592 
L 221.714005 134.066324 
L 222.810811 134.259779 
L 223.907617 133.837241 
L 225.004423 134.041795 
L 226.101229 133.710103 
L 229.391646 133.419202 
L 230.488452 133.015904 
L 231.585258 133.226875 
L 232.682064 132.891355 
L 233.77887 132.844753 
L 234.875676 132.634671 
L 235.972482 132.570927 
L 237.069287 132.366183 
L 238.166093 132.381108 
L 239.262899 132.262137 
L 240.359705 132.294885 
L 243.650123 131.902935 
L 244.746929 131.857072 
L 245.843735 131.672839 
L 246.940541 131.249171 
L 249.134152 130.81575 
L 250.230958 130.832709 
L 252.42457 130.388197 
L 254.618182 130.216764 
L 256.811794 129.896419 
L 259.005405 129.617604 
L 260.102211 129.787111 
L 261.199017 129.477151 
L 262.295823 129.682652 
L 265.586241 129.259341 
L 266.683047 129.225597 
L 267.779853 128.87771 
L 269.973464 129.029361 
L 273.263882 128.5247 
L 274.360688 128.582193 
L 276.5543 128.439615 
L 277.651106 128.158733 
L 278.747912 128.122897 
L 280.941523 127.5314 
L 286.425553 127.154599 
L 287.522359 126.751966 
L 288.619165 126.740336 
L 290.812776 126.18582 
L 295.2 126.489147 
L 297.393612 126.489305 
L 299.587224 126.736193 
L 300.684029 126.85474 
L 301.780835 126.83774 
L 303.974447 127.059419 
L 306.168059 127.166859 
L 306.168059 127.166859 
" style="fill:none;stroke:#e78ac3;stroke-linecap:square;stroke-width:2;"/>
    <defs>
     <path d="M 0 -3 
L -2.85317 -0.927051 
L -1.763356 2.427051 
L 1.763356 2.427051 
L 2.85317 -0.927051 
z
" id="m9c68ec7fd7" style="stroke:#e78ac3;stroke-linejoin:miter;"/>
    </defs>
    <g clip-path="url(#p8c4c1dc862)">
     <use style="fill:#e78ac3;stroke:#e78ac3;stroke-linejoin:miter;" x="92.290909" xlink:href="#m9c68ec7fd7" y="307.8"/>
     <use style="fill:#e78ac3;stroke:#e78ac3;stroke-linejoin:miter;" x="114.227027" xlink:href="#m9c68ec7fd7" y="204.051773"/>
     <use style="fill:#e78ac3;stroke:#e78ac3;stroke-linejoin:miter;" x="136.163145" xlink:href="#m9c68ec7fd7" y="158.728936"/>
     <use style="fill:#e78ac3;stroke:#e78ac3;stroke-linejoin:miter;" x="158.099263" xlink:href="#m9c68ec7fd7" y="148.554859"/>
     <use style="fill:#e78ac3;stroke:#e78ac3;stroke-linejoin:miter;" x="180.035381" xlink:href="#m9c68ec7fd7" y="139.912629"/>
     <use style="fill:#e78ac3;stroke:#e78ac3;stroke-linejoin:miter;" x="201.971499" xlink:href="#m9c68ec7fd7" y="136.406732"/>
     <use style="fill:#e78ac3;stroke:#e78ac3;stroke-linejoin:miter;" x="223.907617" xlink:href="#m9c68ec7fd7" y="133.837241"/>
     <use style="fill:#e78ac3;stroke:#e78ac3;stroke-linejoin:miter;" x="245.843735" xlink:href="#m9c68ec7fd7" y="131.672839"/>
     <use style="fill:#e78ac3;stroke:#e78ac3;stroke-linejoin:miter;" x="267.779853" xlink:href="#m9c68ec7fd7" y="128.87771"/>
     <use style="fill:#e78ac3;stroke:#e78ac3;stroke-linejoin:miter;" x="289.715971" xlink:href="#m9c68ec7fd7" y="126.412678"/>
    </g>
   </g>
   <g id="line2d_31">
    <path clip-path="url(#p8c4c1dc862)" d="M 92.290909 302.599474 
L 95.581327 288.353246 
L 96.678133 283.705958 
L 104.355774 243.926024 
L 107.646192 225.802884 
L 108.742998 221.08009 
L 110.936609 214.638328 
L 112.033415 211.927811 
L 114.227027 207.653397 
L 115.323833 206.053474 
L 117.517445 202.081242 
L 118.614251 200.386679 
L 119.711057 199.322878 
L 124.09828 192.569811 
L 126.291892 190.626251 
L 127.388698 189.427898 
L 129.58231 187.71245 
L 130.679115 187.032645 
L 133.969533 185.308273 
L 135.066339 184.660993 
L 136.163145 183.813034 
L 138.356757 183.017929 
L 139.453563 182.225065 
L 140.550369 181.668855 
L 141.647174 181.356703 
L 142.74398 180.700432 
L 143.840786 180.323259 
L 144.937592 179.559415 
L 146.034398 179.110254 
L 147.131204 178.463488 
L 148.22801 177.678618 
L 150.421622 176.911313 
L 152.615233 175.570788 
L 154.808845 174.577122 
L 155.905651 174.429215 
L 157.002457 173.972874 
L 158.099263 173.258894 
L 159.196069 172.716945 
L 160.292875 172.507253 
L 162.486486 171.572425 
L 163.583292 171.070694 
L 164.680098 170.319991 
L 165.776904 169.914046 
L 166.87371 169.755339 
L 167.970516 168.91872 
L 169.067322 168.349934 
L 171.260934 166.88618 
L 173.454545 166.073992 
L 174.551351 165.459442 
L 175.648157 165.265571 
L 178.938575 163.746351 
L 180.035381 163.127883 
L 181.132187 162.870867 
L 182.228993 162.435926 
L 183.325799 161.703776 
L 185.51941 160.558674 
L 186.616216 160.119018 
L 189.906634 157.996463 
L 191.00344 157.485153 
L 192.100246 157.100409 
L 194.293857 155.851378 
L 195.390663 155.57434 
L 196.487469 154.446795 
L 197.584275 154.07808 
L 199.777887 152.544416 
L 200.874693 152.057096 
L 204.165111 149.928057 
L 206.358722 148.673373 
L 207.455528 148.38888 
L 211.842752 145.438007 
L 212.939558 144.830687 
L 214.036364 143.905513 
L 215.13317 143.145471 
L 216.229975 142.18696 
L 220.617199 139.575723 
L 222.810811 137.910164 
L 223.907617 137.367294 
L 225.004423 136.332338 
L 227.198034 135.270994 
L 229.391646 133.67567 
L 231.585258 132.40294 
L 232.682064 131.559746 
L 233.77887 131.323782 
L 234.875676 130.381159 
L 237.069287 129.123753 
L 238.166093 128.141152 
L 240.359705 127.138778 
L 241.456511 126.922528 
L 242.553317 126.994689 
L 243.650123 126.909786 
L 245.843735 126.055527 
L 246.940541 125.332184 
L 248.037346 124.899202 
L 249.134152 124.285582 
L 250.230958 124.090848 
L 251.327764 123.605487 
L 252.42457 123.507793 
L 252.42457 123.206291 
L 254.618182 122.294207 
L 255.714988 122.298408 
L 256.811794 121.714563 
L 259.005405 120.771617 
L 260.102211 119.73056 
L 261.199017 119.546501 
L 262.295823 118.820851 
L 263.392629 118.501759 
L 265.586241 117.254281 
L 266.683047 116.940386 
L 267.779853 116.334553 
L 268.876658 115.392694 
L 271.07027 114.037476 
L 272.167076 113.184455 
L 273.263882 112.537315 
L 274.360688 112.307269 
L 275.457494 112.220058 
L 276.5543 111.528832 
L 277.651106 111.485119 
L 278.747912 110.681223 
L 282.038329 109.244672 
L 283.135135 108.23736 
L 284.231941 107.841849 
L 285.328747 107.244831 
L 286.425553 106.789362 
L 288.619165 106.247778 
L 289.715971 106.453768 
L 290.812776 106.134834 
L 291.909582 106.103747 
L 293.006388 105.645771 
L 295.2 103.964714 
L 296.296806 103.553547 
L 297.393612 102.702709 
L 298.490418 102.267494 
L 300.684029 102.101449 
L 301.780835 101.326755 
L 302.877641 100.758426 
L 303.974447 100.616727 
L 305.071253 99.88896 
L 306.168059 99.587616 
L 307.264865 98.846567 
L 308.361671 98.675142 
L 309.458477 98.040512 
L 310.555283 97.856246 
L 311.652088 97.387046 
L 313.8457 97.019045 
L 314.942506 96.551648 
L 316.039312 95.822113 
L 317.136118 94.808267 
L 318.232924 94.294151 
L 320.426536 93.658143 
L 321.523342 93.266459 
L 322.620147 93.461989 
L 325.910565 93.10243 
L 327.007371 92.570119 
L 328.104177 92.166531 
L 329.200983 92.02563 
L 330.297789 91.674712 
L 331.394595 91.15667 
L 333.588206 90.790662 
L 334.685012 91.065052 
L 335.781818 90.675543 
L 337.97543 90.466797 
L 339.072236 90.297157 
L 341.265848 89.283071 
L 342.362654 89.548122 
L 343.459459 89.20597 
L 344.556265 89.070456 
L 345.653071 88.692743 
L 346.749877 88.713172 
L 348.943489 88.314399 
L 351.137101 87.606023 
L 352.233907 87.842951 
L 353.330713 87.372391 
L 355.524324 87.420279 
L 356.62113 86.99945 
L 358.814742 86.69467 
L 359.911548 86.380924 
L 361.008354 86.250424 
L 362.10516 85.739836 
L 366.492383 84.908663 
L 367.589189 84.850855 
L 368.685995 85.019831 
L 369.782801 84.730283 
L 371.976413 84.93419 
L 373.073219 84.802004 
L 374.170025 84.466485 
L 375.26683 84.578076 
L 377.460442 84.463181 
L 379.654054 84.096831 
L 384.041278 83.577877 
L 385.138084 83.61949 
L 386.234889 83.54762 
L 387.331695 83.63195 
L 388.428501 83.495266 
L 389.525307 83.925615 
L 390.622113 83.713416 
L 392.815725 83.558676 
L 393.912531 83.402973 
L 396.106143 83.546971 
L 397.202948 83.418164 
L 398.299754 83.663052 
L 399.39656 83.545103 
L 400.493366 83.862095 
L 401.590172 84.001453 
L 402.686978 83.704931 
L 403.783784 83.969884 
L 404.88059 84.07001 
L 404.88059 84.060232 
L 405.977396 83.955407 
L 408.171007 84.133024 
L 409.267813 83.775814 
L 410.364619 83.831091 
L 411.461425 83.318569 
L 412.558231 83.24928 
L 413.655037 82.842953 
L 414.751843 82.765819 
L 415.848649 82.435812 
L 418.04226 82.306117 
L 419.139066 82.068194 
L 420.235872 82.350627 
L 421.332678 82.017333 
L 422.429484 81.468386 
L 423.52629 81.113509 
L 424.623096 80.490642 
L 425.719902 80.243786 
L 426.816708 79.708743 
L 427.913514 79.3814 
L 429.010319 79.498935 
L 430.107125 79.023435 
L 431.203931 78.769349 
L 432.300737 78.785727 
L 433.397543 78.555697 
L 434.494349 78.176722 
L 441.075184 77.920054 
L 443.268796 77.325991 
L 444.365602 77.100411 
L 445.462408 77.27108 
L 446.559214 77.174257 
L 447.65602 76.734145 
L 448.752826 76.634699 
L 450.946437 76.750498 
L 453.140049 76.127314 
L 454.236855 76.45738 
L 457.527273 75.860421 
L 459.720885 74.851132 
L 460.81769 74.801849 
L 461.914496 74.982147 
L 463.011302 74.768163 
L 464.108108 74.686589 
L 465.204914 74.797731 
L 467.398526 74.740819 
L 468.495332 74.608401 
L 470.688943 74.959584 
L 473.979361 74.639762 
L 475.076167 74.205078 
L 476.172973 74.433863 
L 477.269779 74.178499 
L 478.366585 74.236847 
L 480.560197 74.545247 
L 481.657002 74.17361 
L 482.753808 74.152658 
L 483.850614 74.281897 
L 484.94742 74.215099 
L 486.044226 74.450674 
L 487.141032 74.553881 
L 489.334644 74.077884 
L 494.818673 73.179026 
L 495.915479 73.225553 
L 497.012285 73.116196 
L 498.109091 72.77255 
L 498.109091 72.77255 
" style="fill:none;stroke:#a6d854;stroke-linecap:square;stroke-width:2;"/>
    <defs>
     <path d="M 0 -3 
L -0.673542 -0.927051 
L -2.85317 -0.927051 
L -1.089814 0.354102 
L -1.763356 2.427051 
L -0 1.145898 
L 1.763356 2.427051 
L 1.089814 0.354102 
L 2.85317 -0.927051 
L 0.673542 -0.927051 
z
" id="maa4f230b94" style="stroke:#a6d854;stroke-linejoin:bevel;"/>
    </defs>
    <g clip-path="url(#p8c4c1dc862)">
     <use style="fill:#a6d854;stroke:#a6d854;stroke-linejoin:bevel;" x="92.290909" xlink:href="#maa4f230b94" y="302.599474"/>
     <use style="fill:#a6d854;stroke:#a6d854;stroke-linejoin:bevel;" x="114.227027" xlink:href="#maa4f230b94" y="207.653397"/>
     <use style="fill:#a6d854;stroke:#a6d854;stroke-linejoin:bevel;" x="136.163145" xlink:href="#maa4f230b94" y="183.813034"/>
     <use style="fill:#a6d854;stroke:#a6d854;stroke-linejoin:bevel;" x="158.099263" xlink:href="#maa4f230b94" y="173.258894"/>
     <use style="fill:#a6d854;stroke:#a6d854;stroke-linejoin:bevel;" x="180.035381" xlink:href="#maa4f230b94" y="163.127883"/>
     <use style="fill:#a6d854;stroke:#a6d854;stroke-linejoin:bevel;" x="201.971499" xlink:href="#maa4f230b94" y="151.337621"/>
     <use style="fill:#a6d854;stroke:#a6d854;stroke-linejoin:bevel;" x="223.907617" xlink:href="#maa4f230b94" y="137.367294"/>
     <use style="fill:#a6d854;stroke:#a6d854;stroke-linejoin:bevel;" x="245.843735" xlink:href="#maa4f230b94" y="126.055527"/>
     <use style="fill:#a6d854;stroke:#a6d854;stroke-linejoin:bevel;" x="266.683047" xlink:href="#maa4f230b94" y="116.940386"/>
     <use style="fill:#a6d854;stroke:#a6d854;stroke-linejoin:bevel;" x="288.619165" xlink:href="#maa4f230b94" y="106.247778"/>
     <use style="fill:#a6d854;stroke:#a6d854;stroke-linejoin:bevel;" x="310.555283" xlink:href="#maa4f230b94" y="97.856246"/>
     <use style="fill:#a6d854;stroke:#a6d854;stroke-linejoin:bevel;" x="332.4914" xlink:href="#maa4f230b94" y="90.931804"/>
     <use style="fill:#a6d854;stroke:#a6d854;stroke-linejoin:bevel;" x="354.427518" xlink:href="#maa4f230b94" y="87.382568"/>
     <use style="fill:#a6d854;stroke:#a6d854;stroke-linejoin:bevel;" x="376.363636" xlink:href="#maa4f230b94" y="84.517254"/>
     <use style="fill:#a6d854;stroke:#a6d854;stroke-linejoin:bevel;" x="398.299754" xlink:href="#maa4f230b94" y="83.663052"/>
     <use style="fill:#a6d854;stroke:#a6d854;stroke-linejoin:bevel;" x="419.139066" xlink:href="#maa4f230b94" y="82.068194"/>
     <use style="fill:#a6d854;stroke:#a6d854;stroke-linejoin:bevel;" x="441.075184" xlink:href="#maa4f230b94" y="77.920054"/>
     <use style="fill:#a6d854;stroke:#a6d854;stroke-linejoin:bevel;" x="463.011302" xlink:href="#maa4f230b94" y="74.768163"/>
     <use style="fill:#a6d854;stroke:#a6d854;stroke-linejoin:bevel;" x="484.94742" xlink:href="#maa4f230b94" y="74.215099"/>
    </g>
   </g>
   <g id="line2d_32">
    <path clip-path="url(#p8c4c1dc862)" d="M 92.290909 298.848359 
L 95.581327 280.172362 
L 105.45258 221.48753 
L 106.549386 214.555227 
L 107.646192 211.556207 
L 109.839803 205.062489 
L 110.936609 202.256145 
L 112.033415 200.00152 
L 113.130221 198.173028 
L 115.323833 193.835858 
L 119.711057 189.434015 
L 125.195086 184.660544 
L 126.291892 183.940604 
L 128.485504 181.727501 
L 131.775921 179.589978 
L 132.872727 178.566636 
L 133.969533 178.100708 
L 136.163145 176.4519 
L 138.356757 175.202737 
L 140.550369 173.745799 
L 141.647174 173.472737 
L 143.840786 171.710961 
L 144.937592 170.940468 
L 146.034398 170.450151 
L 147.131204 169.656996 
L 148.22801 169.155 
L 151.518428 168.503561 
L 152.615233 168.17821 
L 153.712039 168.098678 
L 154.808845 167.785879 
L 157.002457 167.59669 
L 159.196069 167.024666 
L 163.583292 166.066537 
L 167.970516 165.976886 
L 169.067322 165.822271 
L 170.164128 165.926964 
L 172.35774 165.85604 
L 173.454545 165.437386 
L 174.551351 165.600344 
L 175.648157 165.519998 
L 177.841769 165.026577 
L 180.035381 164.945957 
L 182.228993 164.558374 
L 183.325799 164.219526 
L 184.422604 163.736564 
L 189.906634 163.099901 
L 191.00344 163.211541 
L 196.487469 162.075388 
L 199.777887 161.865223 
L 200.874693 162.173772 
L 203.068305 161.631158 
L 204.165111 161.674764 
L 206.358722 161.196052 
L 208.552334 160.515376 
L 209.64914 160.529297 
L 216.229975 159.902868 
L 217.326781 160.021954 
L 220.617199 159.858142 
L 226.101229 158.866078 
L 227.198034 158.878662 
L 228.29484 158.688228 
L 229.391646 158.378998 
L 230.488452 158.4729 
L 232.682064 158.100682 
L 234.875676 157.966761 
L 235.972482 158.125468 
L 238.166093 157.912962 
L 239.262899 158.047348 
L 240.359705 157.821194 
L 241.456511 157.931366 
L 242.553317 157.774833 
L 243.650123 157.957921 
L 244.746929 157.931565 
L 245.843735 157.685564 
L 248.037346 157.49 
L 250.230958 157.527421 
L 252.42457 157.278988 
L 254.618182 157.250815 
L 255.714988 157.156507 
L 256.811794 157.391492 
L 257.9086 157.226294 
L 259.005405 157.178704 
L 262.295823 157.336017 
L 264.489435 157.185984 
L 265.586241 157.333054 
L 266.683047 157.291914 
L 267.779853 157.365536 
L 267.779853 157.365536 
" style="fill:none;stroke:#ffd92f;stroke-linecap:square;stroke-width:2;"/>
    <defs>
     <path d="M 0 4.242641 
L 4.242641 0 
L 0 -4.242641 
L -4.242641 0 
z
" id="mf636f79e05" style="stroke:#ffd92f;stroke-linejoin:miter;"/>
    </defs>
    <g clip-path="url(#p8c4c1dc862)">
     <use style="fill:#ffd92f;stroke:#ffd92f;stroke-linejoin:miter;" x="92.290909" xlink:href="#mf636f79e05" y="298.848359"/>
     <use style="fill:#ffd92f;stroke:#ffd92f;stroke-linejoin:miter;" x="114.227027" xlink:href="#mf636f79e05" y="195.994715"/>
     <use style="fill:#ffd92f;stroke:#ffd92f;stroke-linejoin:miter;" x="136.163145" xlink:href="#mf636f79e05" y="176.4519"/>
     <use style="fill:#ffd92f;stroke:#ffd92f;stroke-linejoin:miter;" x="158.099263" xlink:href="#mf636f79e05" y="167.264441"/>
     <use style="fill:#ffd92f;stroke:#ffd92f;stroke-linejoin:miter;" x="180.035381" xlink:href="#mf636f79e05" y="164.945957"/>
     <use style="fill:#ffd92f;stroke:#ffd92f;stroke-linejoin:miter;" x="201.971499" xlink:href="#mf636f79e05" y="161.948839"/>
     <use style="fill:#ffd92f;stroke:#ffd92f;stroke-linejoin:miter;" x="223.907617" xlink:href="#mf636f79e05" y="159.353763"/>
     <use style="fill:#ffd92f;stroke:#ffd92f;stroke-linejoin:miter;" x="245.843735" xlink:href="#mf636f79e05" y="157.685564"/>
     <use style="fill:#ffd92f;stroke:#ffd92f;stroke-linejoin:miter;" x="267.779853" xlink:href="#mf636f79e05" y="157.365536"/>
    </g>
   </g>
   <g id="patch_3">
    <path d="M 72 320.4 
L 72 43.2 
" style="fill:none;stroke:#000000;stroke-linecap:square;stroke-linejoin:miter;stroke-width:0.8;"/>
   </g>
   <g id="patch_4">
    <path d="M 518.4 320.4 
L 518.4 43.2 
" style="fill:none;stroke:#000000;stroke-linecap:square;stroke-linejoin:miter;stroke-width:0.8;"/>
   </g>
   <g id="patch_5">
    <path d="M 72 320.4 
L 518.4 320.4 
" style="fill:none;stroke:#000000;stroke-linecap:square;stroke-linejoin:miter;stroke-width:0.8;"/>
   </g>
   <g id="patch_6">
    <path d="M 72 43.2 
L 518.4 43.2 
" style="fill:none;stroke:#000000;stroke-linecap:square;stroke-linejoin:miter;stroke-width:0.8;"/>
   </g>
   <g id="text_16">
    <!-- Reward Of Different Method -->
    <g transform="translate(208.007812 37.2)scale(0.12 -0.12)">
     <defs>
      <path id="DejaVuSerif-32"/>
      <path d="M 41.015625 3.8125 
Q 52.984375 3.8125 59.078125 12.03125 
Q 65.1875 20.265625 65.1875 36.375 
Q 65.1875 52.546875 59.078125 60.765625 
Q 52.984375 69 41.015625 69 
Q 29 69 22.890625 60.765625 
Q 16.796875 52.546875 16.796875 36.375 
Q 16.796875 20.265625 22.890625 12.03125 
Q 29 3.8125 41.015625 3.8125 
z
M 41.015625 -1.421875 
Q 33.59375 -1.421875 27.359375 1.015625 
Q 21.140625 3.46875 16.40625 8.203125 
Q 10.9375 13.671875 8.265625 20.609375 
Q 5.609375 27.546875 5.609375 36.375 
Q 5.609375 45.21875 8.265625 52.171875 
Q 10.9375 59.125 16.40625 64.59375 
Q 21.1875 69.390625 27.34375 71.796875 
Q 33.5 74.21875 41.015625 74.21875 
Q 56.890625 74.21875 66.65625 63.8125 
Q 76.421875 53.421875 76.421875 36.375 
Q 76.421875 27.640625 73.734375 20.625 
Q 71.046875 13.625 65.578125 8.203125 
Q 60.796875 3.421875 54.640625 1 
Q 48.484375 -1.421875 41.015625 -1.421875 
z
" id="DejaVuSerif-79"/>
      <path d="M 43.015625 63.71875 
L 38.28125 63.71875 
Q 38.234375 67.390625 36.203125 69.28125 
Q 34.1875 71.1875 30.328125 71.1875 
Q 25.296875 71.1875 23.234375 68.421875 
Q 21.1875 65.671875 21.1875 58.59375 
L 21.1875 51.90625 
L 35.6875 51.90625 
L 35.6875 46.6875 
L 21.1875 46.6875 
L 21.1875 5.171875 
L 32.71875 5.171875 
L 32.71875 0 
L 3.609375 0 
L 3.609375 5.171875 
L 12.203125 5.171875 
L 12.203125 46.6875 
L 3.609375 46.6875 
L 3.609375 51.90625 
L 12.203125 51.90625 
L 12.203125 58.40625 
Q 12.203125 67.09375 16.71875 71.53125 
Q 21.234375 75.984375 29.984375 75.984375 
Q 33.25 75.984375 36.515625 75.390625 
Q 39.796875 74.8125 43.015625 73.578125 
z
" id="DejaVuSerif-102"/>
      <path d="M 24.703125 5.171875 
L 33.796875 5.171875 
Q 48 5.171875 55.59375 13.28125 
Q 63.1875 21.390625 63.1875 36.53125 
Q 63.1875 51.65625 55.609375 59.65625 
Q 48.046875 67.671875 33.796875 67.671875 
L 24.703125 67.671875 
z
M 5.515625 0 
L 5.515625 5.171875 
L 14.796875 5.171875 
L 14.796875 67.671875 
L 5.515625 67.671875 
L 5.515625 72.90625 
L 34.515625 72.90625 
Q 53.375 72.90625 63.890625 63.28125 
Q 74.421875 53.65625 74.421875 36.53125 
Q 74.421875 19.34375 63.875 9.671875 
Q 53.328125 0 34.515625 0 
z
" id="DejaVuSerif-68"/>
      <path d="M 9.71875 68.015625 
Q 9.71875 70.265625 11.34375 71.921875 
Q 12.984375 73.578125 15.28125 73.578125 
Q 17.53125 73.578125 19.15625 71.921875 
Q 20.796875 70.265625 20.796875 68.015625 
Q 20.796875 65.71875 19.1875 64.109375 
Q 17.578125 62.5 15.28125 62.5 
Q 12.984375 62.5 11.34375 64.109375 
Q 9.71875 65.71875 9.71875 68.015625 
z
M 21.1875 5.171875 
L 29.6875 5.171875 
L 29.6875 0 
L 3.609375 0 
L 3.609375 5.171875 
L 12.203125 5.171875 
L 12.203125 46.6875 
L 3.609375 46.6875 
L 3.609375 51.90625 
L 21.1875 51.90625 
z
" id="DejaVuSerif-105"/>
      <path d="M 4.109375 0 
L 4.109375 5.171875 
L 12.203125 5.171875 
L 12.203125 46.6875 
L 3.609375 46.6875 
L 3.609375 51.90625 
L 21.1875 51.90625 
L 21.1875 42.671875 
Q 23.6875 47.953125 27.65625 50.640625 
Q 31.640625 53.328125 36.921875 53.328125 
Q 45.515625 53.328125 49.5625 48.390625 
Q 53.609375 43.453125 53.609375 33.015625 
L 53.609375 5.171875 
L 61.625 5.171875 
L 61.625 0 
L 36.8125 0 
L 36.8125 5.171875 
L 44.578125 5.171875 
L 44.578125 30.171875 
Q 44.578125 39.703125 42.234375 43.234375 
Q 39.890625 46.78125 33.984375 46.78125 
Q 27.734375 46.78125 24.453125 42.203125 
Q 21.1875 37.640625 21.1875 28.90625 
L 21.1875 5.171875 
L 29 5.171875 
L 29 0 
z
" id="DejaVuSerif-110"/>
      <path d="M 10.796875 46.6875 
L 2.875 46.6875 
L 2.875 51.90625 
L 10.796875 51.90625 
L 10.796875 68.015625 
L 19.828125 68.015625 
L 19.828125 51.90625 
L 36.71875 51.90625 
L 36.71875 46.6875 
L 19.828125 46.6875 
L 19.828125 13.71875 
Q 19.828125 7.125 21.09375 5.265625 
Q 22.359375 3.421875 25.78125 3.421875 
Q 29.296875 3.421875 30.90625 5.484375 
Q 32.515625 7.5625 32.625 12.203125 
L 39.40625 12.203125 
Q 39.015625 5.125 35.546875 1.84375 
Q 32.078125 -1.421875 25 -1.421875 
Q 17.234375 -1.421875 14.015625 2.015625 
Q 10.796875 5.46875 10.796875 13.71875 
z
" id="DejaVuSerif-116"/>
      <path d="M 5.515625 0 
L 5.515625 5.171875 
L 14.796875 5.171875 
L 14.796875 67.671875 
L 4.984375 67.671875 
L 4.984375 72.90625 
L 26.21875 72.90625 
L 51.8125 21 
L 77.390625 72.90625 
L 97.3125 72.90625 
L 97.3125 67.671875 
L 87.59375 67.671875 
L 87.59375 5.171875 
L 96.921875 5.171875 
L 96.921875 0 
L 68.40625 0 
L 68.40625 5.171875 
L 77.6875 5.171875 
L 77.6875 61.53125 
L 52.6875 10.6875 
L 45.796875 10.6875 
L 20.796875 61.53125 
L 20.796875 5.171875 
L 30.078125 5.171875 
L 30.078125 0 
z
" id="DejaVuSerif-77"/>
     </defs>
     <use xlink:href="#DejaVuSerif-82"/>
     <use x="75.292969" xlink:href="#DejaVuSerif-101"/>
     <use x="134.472656" xlink:href="#DejaVuSerif-119"/>
     <use x="220.068359" xlink:href="#DejaVuSerif-97"/>
     <use x="279.6875" xlink:href="#DejaVuSerif-114"/>
     <use x="327.490234" xlink:href="#DejaVuSerif-100"/>
     <use x="391.503906" xlink:href="#DejaVuSerif-32"/>
     <use x="423.291016" xlink:href="#DejaVuSerif-79"/>
     <use x="505.273438" xlink:href="#DejaVuSerif-102"/>
     <use x="542.285156" xlink:href="#DejaVuSerif-32"/>
     <use x="574.072266" xlink:href="#DejaVuSerif-68"/>
     <use x="654.248047" xlink:href="#DejaVuSerif-105"/>
     <use x="686.230469" xlink:href="#DejaVuSerif-102"/>
     <use x="723.242188" xlink:href="#DejaVuSerif-102"/>
     <use x="760.253906" xlink:href="#DejaVuSerif-101"/>
     <use x="819.433594" xlink:href="#DejaVuSerif-114"/>
     <use x="867.236328" xlink:href="#DejaVuSerif-101"/>
     <use x="926.416016" xlink:href="#DejaVuSerif-110"/>
     <use x="990.820312" xlink:href="#DejaVuSerif-116"/>
     <use x="1031.005859" xlink:href="#DejaVuSerif-32"/>
     <use x="1062.792969" xlink:href="#DejaVuSerif-77"/>
     <use x="1165.185547" xlink:href="#DejaVuSerif-101"/>
     <use x="1224.365234" xlink:href="#DejaVuSerif-116"/>
     <use x="1264.550781" xlink:href="#DejaVuSerif-104"/>
     <use x="1328.955078" xlink:href="#DejaVuSerif-111"/>
     <use x="1389.160156" xlink:href="#DejaVuSerif-100"/>
    </g>
   </g>
   <g id="legend_1">
    <g id="patch_7">
     <path d="M 412.307812 315.4 
L 511.4 315.4 
Q 513.4 315.4 513.4 313.4 
L 513.4 225.904687 
Q 513.4 223.904687 511.4 223.904687 
L 412.307812 223.904687 
Q 410.307812 223.904687 410.307812 225.904687 
L 410.307812 313.4 
Q 410.307812 315.4 412.307812 315.4 
z
" style="fill:#ffffff;opacity:0.8;stroke:#cccccc;stroke-linejoin:miter;"/>
    </g>
    <g id="line2d_33">
     <path d="M 414.307812 232.003125 
L 434.307812 232.003125 
" style="fill:none;stroke:#66c2a5;stroke-linecap:square;stroke-width:2;"/>
    </g>
    <g id="line2d_34">
     <g>
      <use style="fill:#66c2a5;stroke:#66c2a5;" x="424.307812" xlink:href="#mbdb43e65a1" y="232.003125"/>
     </g>
    </g>
    <g id="text_17">
     <!-- DQN -->
     <g transform="translate(442.307812 235.503125)scale(0.1 -0.1)">
      <defs>
       <path d="M 42.1875 -1.421875 
Q 25.4375 -1.421875 15.515625 8.859375 
Q 5.609375 19.140625 5.609375 36.375 
Q 5.609375 45.21875 8.265625 52.171875 
Q 10.9375 59.125 16.40625 64.59375 
Q 21.1875 69.390625 27.34375 71.796875 
Q 33.5 74.21875 41.015625 74.21875 
Q 56.890625 74.21875 66.65625 63.8125 
Q 76.421875 53.421875 76.421875 36.375 
Q 76.421875 21.921875 69.09375 12.078125 
Q 61.765625 2.25 48.875 -0.59375 
Q 51.515625 -3.859375 55.296875 -5.421875 
Q 59.078125 -6.984375 64.40625 -6.984375 
L 65.921875 -6.984375 
L 65.921875 -16.015625 
Q 57.671875 -15.625 51.78125 -11.984375 
Q 45.90625 -8.34375 42.1875 -1.421875 
z
M 41.015625 3.8125 
Q 52.984375 3.8125 59.078125 12.03125 
Q 65.1875 20.265625 65.1875 36.375 
Q 65.1875 52.546875 59.078125 60.765625 
Q 52.984375 69 41.015625 69 
Q 29 69 22.890625 60.765625 
Q 16.796875 52.546875 16.796875 36.375 
Q 16.796875 20.265625 22.890625 12.03125 
Q 29 3.8125 41.015625 3.8125 
z
" id="DejaVuSerif-81"/>
       <path d="M 4.890625 0 
L 4.890625 5.171875 
L 14.703125 5.171875 
L 14.703125 67.671875 
L 4.890625 67.671875 
L 4.890625 72.90625 
L 23.578125 72.90625 
L 67.28125 15.375 
L 67.28125 67.671875 
L 57.515625 67.671875 
L 57.515625 72.90625 
L 83.109375 72.90625 
L 83.109375 67.671875 
L 73.296875 67.671875 
L 73.296875 -1.421875 
L 67.390625 -1.421875 
L 20.703125 60.015625 
L 20.703125 5.171875 
L 30.515625 5.171875 
L 30.515625 0 
z
" id="DejaVuSerif-78"/>
      </defs>
      <use xlink:href="#DejaVuSerif-68"/>
      <use x="80.175781" xlink:href="#DejaVuSerif-81"/>
      <use x="162.158203" xlink:href="#DejaVuSerif-78"/>
     </g>
    </g>
    <g id="line2d_35">
     <path d="M 414.307812 246.68125 
L 434.307812 246.68125 
" style="fill:none;stroke:#fc8d62;stroke-linecap:square;stroke-width:2;"/>
    </g>
    <g id="line2d_36">
     <g>
      <use style="fill:#fc8d62;stroke:#fc8d62;stroke-linejoin:miter;" x="424.307812" xlink:href="#m5a59181c4c" y="246.68125"/>
     </g>
    </g>
    <g id="text_18">
     <!-- +Double -->
     <g transform="translate(442.307812 250.18125)scale(0.1 -0.1)">
      <defs>
       <path d="M 45.796875 62.703125 
L 45.796875 35.296875 
L 73.1875 35.296875 
L 73.1875 27.390625 
L 45.796875 27.390625 
L 45.796875 0 
L 37.984375 0 
L 37.984375 27.390625 
L 10.59375 27.390625 
L 10.59375 35.296875 
L 37.984375 35.296875 
L 37.984375 62.703125 
z
" id="DejaVuSerif-43"/>
       <path d="M 35.40625 51.90625 
L 52.203125 51.90625 
L 52.203125 5.171875 
L 60.6875 5.171875 
L 60.6875 0 
L 43.21875 0 
L 43.21875 9.1875 
Q 40.71875 4 36.765625 1.28125 
Q 32.8125 -1.421875 27.59375 -1.421875 
Q 18.953125 -1.421875 14.875 3.484375 
Q 10.796875 8.40625 10.796875 18.890625 
L 10.796875 46.6875 
L 2.6875 46.6875 
L 2.6875 51.90625 
L 19.828125 51.90625 
L 19.828125 21.6875 
Q 19.828125 12.203125 22.140625 8.6875 
Q 24.46875 5.171875 30.421875 5.171875 
Q 36.671875 5.171875 39.9375 9.765625 
Q 43.21875 14.359375 43.21875 23.09375 
L 43.21875 46.6875 
L 35.40625 46.6875 
z
" id="DejaVuSerif-117"/>
       <path d="M 11.53125 5.171875 
L 11.53125 70.796875 
L 2.875 70.796875 
L 2.875 75.984375 
L 20.515625 75.984375 
L 20.515625 43.796875 
Q 23.140625 48.6875 27.21875 51 
Q 31.296875 53.328125 37.3125 53.328125 
Q 46.875 53.328125 52.921875 45.75 
Q 58.984375 38.1875 58.984375 25.984375 
Q 58.984375 13.765625 52.921875 6.171875 
Q 46.875 -1.421875 37.3125 -1.421875 
Q 31.296875 -1.421875 27.21875 0.890625 
Q 23.140625 3.21875 20.515625 8.109375 
L 20.515625 0 
L 2.875 0 
L 2.875 5.171875 
z
M 20.515625 23.390625 
Q 20.515625 14.015625 24.09375 9.109375 
Q 27.6875 4.203125 34.515625 4.203125 
Q 41.40625 4.203125 44.9375 9.71875 
Q 48.484375 15.234375 48.484375 25.984375 
Q 48.484375 36.765625 44.9375 42.234375 
Q 41.40625 47.703125 34.515625 47.703125 
Q 27.6875 47.703125 24.09375 42.765625 
Q 20.515625 37.84375 20.515625 28.515625 
z
" id="DejaVuSerif-98"/>
       <path d="M 20.515625 5.171875 
L 29 5.171875 
L 29 0 
L 2.875 0 
L 2.875 5.171875 
L 11.53125 5.171875 
L 11.53125 70.796875 
L 2.875 70.796875 
L 2.875 75.984375 
L 20.515625 75.984375 
z
" id="DejaVuSerif-108"/>
      </defs>
      <use xlink:href="#DejaVuSerif-43"/>
      <use x="83.789062" xlink:href="#DejaVuSerif-68"/>
      <use x="163.964844" xlink:href="#DejaVuSerif-111"/>
      <use x="224.169922" xlink:href="#DejaVuSerif-117"/>
      <use x="288.574219" xlink:href="#DejaVuSerif-98"/>
      <use x="352.587891" xlink:href="#DejaVuSerif-108"/>
      <use x="384.570312" xlink:href="#DejaVuSerif-101"/>
     </g>
    </g>
    <g id="line2d_37">
     <path d="M 414.307812 261.359375 
L 434.307812 261.359375 
" style="fill:none;stroke:#8da0cb;stroke-linecap:square;stroke-width:2;"/>
    </g>
    <g id="line2d_38">
     <g>
      <use style="fill:#8da0cb;stroke:#8da0cb;stroke-linejoin:miter;" x="424.307812" xlink:href="#m09b83bb50a" y="261.359375"/>
     </g>
    </g>
    <g id="text_19">
     <!-- +Dueling -->
     <g transform="translate(442.307812 264.859375)scale(0.1 -0.1)">
      <defs>
       <path d="M 52.484375 46.6875 
L 52.484375 1.125 
Q 52.484375 -10.0625 46.328125 -16.140625 
Q 40.1875 -22.21875 28.8125 -22.21875 
Q 23.6875 -22.21875 19 -21.28125 
Q 14.3125 -20.359375 10.015625 -18.5 
L 10.015625 -7.625 
L 14.703125 -7.625 
Q 15.578125 -12.703125 18.84375 -15.046875 
Q 22.125 -17.390625 28.21875 -17.390625 
Q 36.140625 -17.390625 39.8125 -12.921875 
Q 43.5 -8.453125 43.5 1.125 
L 43.5 8.109375 
Q 40.875 3.21875 36.796875 0.890625 
Q 32.71875 -1.421875 26.703125 -1.421875 
Q 17.140625 -1.421875 11.0625 6.171875 
Q 4.984375 13.765625 4.984375 25.984375 
Q 4.984375 38.1875 11.03125 45.75 
Q 17.09375 53.328125 26.703125 53.328125 
Q 32.71875 53.328125 36.796875 51 
Q 40.875 48.6875 43.5 43.796875 
L 43.5 51.90625 
L 61.078125 51.90625 
L 61.078125 46.6875 
z
M 43.5 28.515625 
Q 43.5 37.84375 39.90625 42.765625 
Q 36.328125 47.703125 29.5 47.703125 
Q 22.5625 47.703125 19.015625 42.234375 
Q 15.484375 36.765625 15.484375 25.984375 
Q 15.484375 15.234375 19.015625 9.71875 
Q 22.5625 4.203125 29.5 4.203125 
Q 36.328125 4.203125 39.90625 9.109375 
Q 43.5 14.015625 43.5 23.390625 
z
" id="DejaVuSerif-103"/>
      </defs>
      <use xlink:href="#DejaVuSerif-43"/>
      <use x="83.789062" xlink:href="#DejaVuSerif-68"/>
      <use x="163.964844" xlink:href="#DejaVuSerif-117"/>
      <use x="228.369141" xlink:href="#DejaVuSerif-101"/>
      <use x="287.548828" xlink:href="#DejaVuSerif-108"/>
      <use x="319.53125" xlink:href="#DejaVuSerif-105"/>
      <use x="351.513672" xlink:href="#DejaVuSerif-110"/>
      <use x="415.917969" xlink:href="#DejaVuSerif-103"/>
     </g>
    </g>
    <g id="line2d_39">
     <path d="M 414.307812 276.179688 
L 434.307812 276.179688 
" style="fill:none;stroke:#e78ac3;stroke-linecap:square;stroke-width:2;"/>
    </g>
    <g id="line2d_40">
     <g>
      <use style="fill:#e78ac3;stroke:#e78ac3;stroke-linejoin:miter;" x="424.307812" xlink:href="#m9c68ec7fd7" y="276.179688"/>
     </g>
    </g>
    <g id="text_20">
     <!-- +Noisy -->
     <g transform="translate(442.307812 279.679688)scale(0.1 -0.1)">
      <defs>
       <path d="M 5.609375 2.875 
L 5.609375 14.984375 
L 10.796875 14.984375 
Q 10.984375 9.1875 14.421875 6.296875 
Q 17.875 3.421875 24.609375 3.421875 
Q 30.671875 3.421875 33.84375 5.6875 
Q 37.015625 7.953125 37.015625 12.3125 
Q 37.015625 15.71875 34.6875 17.8125 
Q 32.375 19.921875 24.90625 22.3125 
L 18.40625 24.515625 
Q 11.71875 26.65625 8.71875 29.875 
Q 5.71875 33.109375 5.71875 38.09375 
Q 5.71875 45.21875 10.9375 49.265625 
Q 16.15625 53.328125 25.390625 53.328125 
Q 29.5 53.328125 34.03125 52.25 
Q 38.578125 51.171875 43.40625 49.125 
L 43.40625 37.796875 
L 38.234375 37.796875 
Q 38.03125 42.828125 34.703125 45.65625 
Q 31.390625 48.484375 25.6875 48.484375 
Q 20.015625 48.484375 17.109375 46.484375 
Q 14.203125 44.484375 14.203125 40.484375 
Q 14.203125 37.203125 16.40625 35.21875 
Q 18.609375 33.25 25.203125 31.203125 
L 32.328125 29 
Q 39.703125 26.703125 42.9375 23.265625 
Q 46.1875 19.828125 46.1875 14.40625 
Q 46.1875 7.03125 40.546875 2.796875 
Q 34.90625 -1.421875 25 -1.421875 
Q 19.96875 -1.421875 15.1875 -0.34375 
Q 10.40625 0.734375 5.609375 2.875 
z
" id="DejaVuSerif-115"/>
       <path d="M 21.578125 -9.515625 
L 25 -0.875 
L 5.609375 46.6875 
L -0.296875 46.6875 
L -0.296875 51.90625 
L 23.578125 51.90625 
L 23.578125 46.6875 
L 15.28125 46.6875 
L 29.890625 10.984375 
L 44.484375 46.6875 
L 36.71875 46.6875 
L 36.71875 51.90625 
L 56.203125 51.90625 
L 56.203125 46.6875 
L 50.390625 46.6875 
L 26.609375 -11.71875 
Q 24.171875 -17.78125 21.1875 -20 
Q 18.21875 -22.21875 12.796875 -22.21875 
Q 10.5 -22.21875 8.078125 -21.828125 
Q 5.671875 -21.4375 3.21875 -20.703125 
L 3.21875 -10.796875 
L 7.8125 -10.796875 
Q 8.109375 -14.109375 9.5 -15.546875 
Q 10.890625 -17 13.8125 -17 
Q 16.5 -17 18.140625 -15.5 
Q 19.78125 -14.015625 21.578125 -9.515625 
z
" id="DejaVuSerif-121"/>
      </defs>
      <use xlink:href="#DejaVuSerif-43"/>
      <use x="83.789062" xlink:href="#DejaVuSerif-78"/>
      <use x="171.289062" xlink:href="#DejaVuSerif-111"/>
      <use x="231.494141" xlink:href="#DejaVuSerif-105"/>
      <use x="263.476562" xlink:href="#DejaVuSerif-115"/>
      <use x="314.794922" xlink:href="#DejaVuSerif-121"/>
     </g>
    </g>
    <g id="line2d_41">
     <path d="M 414.307812 291 
L 434.307812 291 
" style="fill:none;stroke:#a6d854;stroke-linecap:square;stroke-width:2;"/>
    </g>
    <g id="line2d_42">
     <g>
      <use style="fill:#a6d854;stroke:#a6d854;stroke-linejoin:bevel;" x="424.307812" xlink:href="#maa4f230b94" y="291"/>
     </g>
    </g>
    <g id="text_21">
     <!-- +NSteps -->
     <g transform="translate(442.307812 294.5)scale(0.1 -0.1)">
      <defs>
       <path d="M 9.28125 3.515625 
L 9.28125 20.125 
L 14.890625 20.0625 
Q 15.140625 11.765625 19.703125 7.78125 
Q 24.265625 3.8125 33.59375 3.8125 
Q 42.28125 3.8125 46.84375 7.25 
Q 51.421875 10.6875 51.421875 17.28125 
Q 51.421875 22.5625 48.65625 25.390625 
Q 45.90625 28.21875 37.015625 30.90625 
L 27.390625 33.796875 
Q 16.9375 36.96875 12.671875 41.703125 
Q 8.40625 46.4375 8.40625 54.6875 
Q 8.40625 63.96875 14.984375 69.09375 
Q 21.578125 74.21875 33.5 74.21875 
Q 38.578125 74.21875 44.625 73.109375 
Q 50.6875 72.015625 57.515625 69.921875 
L 57.515625 54.390625 
L 52 54.390625 
Q 51.171875 62.109375 46.84375 65.546875 
Q 42.53125 69 33.6875 69 
Q 25.984375 69 21.953125 65.84375 
Q 17.921875 62.703125 17.921875 56.6875 
Q 17.921875 51.46875 20.9375 48.484375 
Q 23.96875 45.515625 33.796875 42.578125 
L 42.828125 39.890625 
Q 52.734375 36.921875 56.953125 32.296875 
Q 61.1875 27.6875 61.1875 19.921875 
Q 61.1875 9.328125 54.390625 3.953125 
Q 47.609375 -1.421875 34.1875 -1.421875 
Q 28.171875 -1.421875 21.9375 -0.1875 
Q 15.71875 1.03125 9.28125 3.515625 
z
" id="DejaVuSerif-83"/>
      </defs>
      <use xlink:href="#DejaVuSerif-43"/>
      <use x="83.789062" xlink:href="#DejaVuSerif-78"/>
      <use x="171.289062" xlink:href="#DejaVuSerif-83"/>
      <use x="239.794922" xlink:href="#DejaVuSerif-116"/>
      <use x="279.980469" xlink:href="#DejaVuSerif-101"/>
      <use x="339.160156" xlink:href="#DejaVuSerif-112"/>
      <use x="403.173828" xlink:href="#DejaVuSerif-115"/>
     </g>
    </g>
    <g id="line2d_43">
     <path d="M 414.307812 305.678125 
L 434.307812 305.678125 
" style="fill:none;stroke:#ffd92f;stroke-linecap:square;stroke-width:2;"/>
    </g>
    <g id="line2d_44">
     <g>
      <use style="fill:#ffd92f;stroke:#ffd92f;stroke-linejoin:miter;" x="424.307812" xlink:href="#mf636f79e05" y="305.678125"/>
     </g>
    </g>
    <g id="text_22">
     <!-- +Categorical -->
     <g transform="translate(442.307812 309.178125)scale(0.1 -0.1)">
      <defs>
       <path d="M 70.515625 19.28125 
Q 67.28125 9.078125 59.6875 3.828125 
Q 52.09375 -1.421875 40.484375 -1.421875 
Q 33.34375 -1.421875 27.234375 1.015625 
Q 21.140625 3.46875 16.40625 8.203125 
Q 10.9375 13.671875 8.265625 20.625 
Q 5.609375 27.59375 5.609375 36.375 
Q 5.609375 53.375 15.421875 63.796875 
Q 25.25 74.21875 41.3125 74.21875 
Q 47.265625 74.21875 54 72.65625 
Q 60.75 71.09375 68.5 67.921875 
L 68.5 51.125 
L 62.984375 51.125 
Q 61.1875 60.296875 55.734375 64.640625 
Q 50.296875 69 40.484375 69 
Q 28.8125 69 22.796875 60.71875 
Q 16.796875 52.4375 16.796875 36.375 
Q 16.796875 20.359375 22.796875 12.078125 
Q 28.8125 3.8125 40.484375 3.8125 
Q 48.640625 3.8125 53.90625 7.6875 
Q 59.1875 11.578125 61.53125 19.28125 
z
" id="DejaVuSerif-67"/>
      </defs>
      <use xlink:href="#DejaVuSerif-43"/>
      <use x="83.789062" xlink:href="#DejaVuSerif-67"/>
      <use x="160.302734" xlink:href="#DejaVuSerif-97"/>
      <use x="219.921875" xlink:href="#DejaVuSerif-116"/>
      <use x="260.107422" xlink:href="#DejaVuSerif-101"/>
      <use x="319.287109" xlink:href="#DejaVuSerif-103"/>
      <use x="383.300781" xlink:href="#DejaVuSerif-111"/>
      <use x="443.505859" xlink:href="#DejaVuSerif-114"/>
      <use x="491.308594" xlink:href="#DejaVuSerif-105"/>
      <use x="523.291016" xlink:href="#DejaVuSerif-99"/>
      <use x="579.296875" xlink:href="#DejaVuSerif-97"/>
      <use x="638.916016" xlink:href="#DejaVuSerif-108"/>
     </g>
    </g>
   </g>
  </g>
 </g>
 <defs>
  <clipPath id="p8c4c1dc862">
   <rect height="277.2" width="446.4" x="72" y="43.2"/>
  </clipPath>
 </defs>
</svg>
