<?xml version="1.0" encoding="utf-8" standalone="no"?>
<!DOCTYPE svg PUBLIC "-//W3C//DTD SVG 1.1//EN"
  "http://www.w3.org/Graphics/SVG/1.1/DTD/svg11.dtd">
<!-- Created with matplotlib (https://matplotlib.org/) -->
<svg height="360pt" version="1.1" viewBox="0 0 576 360" width="576pt" xmlns="http://www.w3.org/2000/svg" xmlns:xlink="http://www.w3.org/1999/xlink">
 <metadata>
  <rdf:RDF xmlns:cc="http://creativecommons.org/ns#" xmlns:dc="http://purl.org/dc/elements/1.1/" xmlns:rdf="http://www.w3.org/1999/02/22-rdf-syntax-ns#">
   <cc:Work>
    <dc:type rdf:resource="http://purl.org/dc/dcmitype/StillImage"/>
    <dc:date>2021-06-14T00:20:13.930238</dc:date>
    <dc:format>image/svg+xml</dc:format>
    <dc:creator>
     <cc:Agent>
      <dc:title>Matplotlib v3.3.2, https://matplotlib.org/</dc:title>
     </cc:Agent>
    </dc:creator>
   </cc:Work>
  </rdf:RDF>
 </metadata>
 <defs>
  <style type="text/css">*{stroke-linecap:butt;stroke-linejoin:round;}</style>
 </defs>
 <g id="figure_1">
  <g id="patch_1">
   <path d="M 0 360 
L 576 360 
L 576 0 
L 0 0 
z
" style="fill:#ffffff;"/>
  </g>
  <g id="axes_1">
   <g id="patch_2">
    <path d="M 72 320.4 
L 518.4 320.4 
L 518.4 43.2 
L 72 43.2 
z
" style="fill:#ffffff;"/>
   </g>
   <g id="matplotlib.axis_1">
    <g id="xtick_1">
     <g id="line2d_1">
      <path clip-path="url(#p9f10498fec)" d="M 92.260373 320.4 
L 92.260373 43.2 
" style="fill:none;stroke:#b0b0b0;stroke-linecap:square;stroke-width:0.8;"/>
     </g>
     <g id="line2d_2">
      <defs>
       <path d="M 0 0 
L 0 3.5 
" id="m5e771d888a" style="stroke:#000000;stroke-width:0.8;"/>
      </defs>
      <g>
       <use style="stroke:#000000;stroke-width:0.8;" x="92.260373" xlink:href="#m5e771d888a" y="320.4"/>
      </g>
     </g>
     <g id="text_1">
      <!-- 0 -->
      <g transform="translate(89.079123 334.998438)scale(0.1 -0.1)">
       <defs>
        <path d="M 31.78125 3.421875 
Q 39.265625 3.421875 42.96875 11.625 
Q 46.6875 19.828125 46.6875 36.375 
Q 46.6875 52.984375 42.96875 61.1875 
Q 39.265625 69.390625 31.78125 69.390625 
Q 24.3125 69.390625 20.59375 61.1875 
Q 16.890625 52.984375 16.890625 36.375 
Q 16.890625 19.828125 20.59375 11.625 
Q 24.3125 3.421875 31.78125 3.421875 
z
M 31.78125 -1.421875 
Q 19.921875 -1.421875 13.25 8.53125 
Q 6.59375 18.5 6.59375 36.375 
Q 6.59375 54.296875 13.25 64.25 
Q 19.921875 74.21875 31.78125 74.21875 
Q 43.703125 74.21875 50.34375 64.25 
Q 56.984375 54.296875 56.984375 36.375 
Q 56.984375 18.5 50.34375 8.53125 
Q 43.703125 -1.421875 31.78125 -1.421875 
z
" id="DejaVuSerif-48"/>
       </defs>
       <use xlink:href="#DejaVuSerif-48"/>
      </g>
     </g>
    </g>
    <g id="xtick_2">
     <g id="line2d_3">
      <path clip-path="url(#p9f10498fec)" d="M 153.331582 320.4 
L 153.331582 43.2 
" style="fill:none;stroke:#b0b0b0;stroke-linecap:square;stroke-width:0.8;"/>
     </g>
     <g id="line2d_4">
      <g>
       <use style="stroke:#000000;stroke-width:0.8;" x="153.331582" xlink:href="#m5e771d888a" y="320.4"/>
      </g>
     </g>
     <g id="text_2">
      <!-- 2000 -->
      <g transform="translate(140.606582 334.998438)scale(0.1 -0.1)">
       <defs>
        <path d="M 12.796875 55.515625 
L 7.328125 55.515625 
L 7.328125 68.5 
Q 12.546875 71.296875 17.84375 72.75 
Q 23.140625 74.21875 28.21875 74.21875 
Q 39.59375 74.21875 46.1875 68.703125 
Q 52.78125 63.1875 52.78125 53.71875 
Q 52.78125 43.015625 37.84375 28.125 
Q 36.671875 27 36.078125 26.421875 
L 17.671875 8.015625 
L 48.09375 8.015625 
L 48.09375 17 
L 53.8125 17 
L 53.8125 0 
L 6.78125 0 
L 6.78125 5.328125 
L 28.90625 27.390625 
Q 36.234375 34.71875 39.359375 40.84375 
Q 42.484375 46.96875 42.484375 53.71875 
Q 42.484375 61.078125 38.640625 65.234375 
Q 34.8125 69.390625 28.078125 69.390625 
Q 21.09375 69.390625 17.28125 65.921875 
Q 13.484375 62.453125 12.796875 55.515625 
z
" id="DejaVuSerif-50"/>
       </defs>
       <use xlink:href="#DejaVuSerif-50"/>
       <use x="63.623047" xlink:href="#DejaVuSerif-48"/>
       <use x="127.246094" xlink:href="#DejaVuSerif-48"/>
       <use x="190.869141" xlink:href="#DejaVuSerif-48"/>
      </g>
     </g>
    </g>
    <g id="xtick_3">
     <g id="line2d_5">
      <path clip-path="url(#p9f10498fec)" d="M 214.402791 320.4 
L 214.402791 43.2 
" style="fill:none;stroke:#b0b0b0;stroke-linecap:square;stroke-width:0.8;"/>
     </g>
     <g id="line2d_6">
      <g>
       <use style="stroke:#000000;stroke-width:0.8;" x="214.402791" xlink:href="#m5e771d888a" y="320.4"/>
      </g>
     </g>
     <g id="text_3">
      <!-- 4000 -->
      <g transform="translate(201.677791 334.998438)scale(0.1 -0.1)">
       <defs>
        <path d="M 34.90625 24.703125 
L 34.90625 63.484375 
L 10.015625 24.703125 
z
M 56.390625 0 
L 23.1875 0 
L 23.1875 5.171875 
L 34.90625 5.171875 
L 34.90625 19.484375 
L 3.078125 19.484375 
L 3.078125 24.8125 
L 35.015625 74.21875 
L 44.671875 74.21875 
L 44.671875 24.703125 
L 58.59375 24.703125 
L 58.59375 19.484375 
L 44.671875 19.484375 
L 44.671875 5.171875 
L 56.390625 5.171875 
z
" id="DejaVuSerif-52"/>
       </defs>
       <use xlink:href="#DejaVuSerif-52"/>
       <use x="63.623047" xlink:href="#DejaVuSerif-48"/>
       <use x="127.246094" xlink:href="#DejaVuSerif-48"/>
       <use x="190.869141" xlink:href="#DejaVuSerif-48"/>
      </g>
     </g>
    </g>
    <g id="xtick_4">
     <g id="line2d_7">
      <path clip-path="url(#p9f10498fec)" d="M 275.474 320.4 
L 275.474 43.2 
" style="fill:none;stroke:#b0b0b0;stroke-linecap:square;stroke-width:0.8;"/>
     </g>
     <g id="line2d_8">
      <g>
       <use style="stroke:#000000;stroke-width:0.8;" x="275.474" xlink:href="#m5e771d888a" y="320.4"/>
      </g>
     </g>
     <g id="text_4">
      <!-- 6000 -->
      <g transform="translate(262.749 334.998438)scale(0.1 -0.1)">
       <defs>
        <path d="M 32.71875 3.421875 
Q 39.59375 3.421875 43.296875 8.46875 
Q 47.015625 13.53125 47.015625 23 
Q 47.015625 32.46875 43.296875 37.515625 
Q 39.59375 42.578125 32.71875 42.578125 
Q 25.734375 42.578125 22.0625 37.6875 
Q 18.40625 32.8125 18.40625 23.578125 
Q 18.40625 13.875 22.109375 8.640625 
Q 25.828125 3.421875 32.71875 3.421875 
z
M 16.796875 40.140625 
Q 20.125 43.796875 24.3125 45.59375 
Q 28.515625 47.40625 33.796875 47.40625 
Q 44.671875 47.40625 51 40.859375 
Q 57.328125 34.328125 57.328125 23 
Q 57.328125 11.921875 50.515625 5.25 
Q 43.703125 -1.421875 32.328125 -1.421875 
Q 19.96875 -1.421875 13.328125 7.78125 
Q 6.6875 17 6.6875 34.078125 
Q 6.6875 53.21875 14.546875 63.71875 
Q 22.40625 74.21875 36.71875 74.21875 
Q 40.578125 74.21875 44.828125 73.484375 
Q 49.078125 72.75 53.515625 71.296875 
L 53.515625 59.28125 
L 48 59.28125 
Q 47.40625 64.203125 44.234375 66.796875 
Q 41.0625 69.390625 35.6875 69.390625 
Q 26.21875 69.390625 21.578125 62.203125 
Q 16.9375 55.03125 16.796875 40.140625 
z
" id="DejaVuSerif-54"/>
       </defs>
       <use xlink:href="#DejaVuSerif-54"/>
       <use x="63.623047" xlink:href="#DejaVuSerif-48"/>
       <use x="127.246094" xlink:href="#DejaVuSerif-48"/>
       <use x="190.869141" xlink:href="#DejaVuSerif-48"/>
      </g>
     </g>
    </g>
    <g id="xtick_5">
     <g id="line2d_9">
      <path clip-path="url(#p9f10498fec)" d="M 336.545208 320.4 
L 336.545208 43.2 
" style="fill:none;stroke:#b0b0b0;stroke-linecap:square;stroke-width:0.8;"/>
     </g>
     <g id="line2d_10">
      <g>
       <use style="stroke:#000000;stroke-width:0.8;" x="336.545208" xlink:href="#m5e771d888a" y="320.4"/>
      </g>
     </g>
     <g id="text_5">
      <!-- 8000 -->
      <g transform="translate(323.820208 334.998438)scale(0.1 -0.1)">
       <defs>
        <path d="M 46.578125 19.921875 
Q 46.578125 27.734375 42.6875 32.046875 
Q 38.8125 36.375 31.78125 36.375 
Q 24.75 36.375 20.875 32.046875 
Q 17 27.734375 17 19.921875 
Q 17 12.0625 20.875 7.734375 
Q 24.75 3.421875 31.78125 3.421875 
Q 38.8125 3.421875 42.6875 7.734375 
Q 46.578125 12.0625 46.578125 19.921875 
z
M 44.578125 55.328125 
Q 44.578125 61.96875 41.203125 65.671875 
Q 37.84375 69.390625 31.78125 69.390625 
Q 25.78125 69.390625 22.390625 65.671875 
Q 19 61.96875 19 55.328125 
Q 19 48.640625 22.390625 44.921875 
Q 25.78125 41.21875 31.78125 41.21875 
Q 37.84375 41.21875 41.203125 44.921875 
Q 44.578125 48.640625 44.578125 55.328125 
z
M 39.3125 38.8125 
Q 47.609375 37.703125 52.25 32.6875 
Q 56.890625 27.6875 56.890625 19.921875 
Q 56.890625 9.671875 50.390625 4.125 
Q 43.890625 -1.421875 31.78125 -1.421875 
Q 19.734375 -1.421875 13.203125 4.125 
Q 6.6875 9.671875 6.6875 19.921875 
Q 6.6875 27.6875 11.328125 32.6875 
Q 15.96875 37.703125 24.3125 38.8125 
Q 16.9375 40.140625 13 44.40625 
Q 9.078125 48.6875 9.078125 55.328125 
Q 9.078125 64.109375 15.125 69.15625 
Q 21.1875 74.21875 31.78125 74.21875 
Q 42.390625 74.21875 48.4375 69.15625 
Q 54.5 64.109375 54.5 55.328125 
Q 54.5 48.6875 50.5625 44.40625 
Q 46.625 40.140625 39.3125 38.8125 
z
" id="DejaVuSerif-56"/>
       </defs>
       <use xlink:href="#DejaVuSerif-56"/>
       <use x="63.623047" xlink:href="#DejaVuSerif-48"/>
       <use x="127.246094" xlink:href="#DejaVuSerif-48"/>
       <use x="190.869141" xlink:href="#DejaVuSerif-48"/>
      </g>
     </g>
    </g>
    <g id="xtick_6">
     <g id="line2d_11">
      <path clip-path="url(#p9f10498fec)" d="M 397.616417 320.4 
L 397.616417 43.2 
" style="fill:none;stroke:#b0b0b0;stroke-linecap:square;stroke-width:0.8;"/>
     </g>
     <g id="line2d_12">
      <g>
       <use style="stroke:#000000;stroke-width:0.8;" x="397.616417" xlink:href="#m5e771d888a" y="320.4"/>
      </g>
     </g>
     <g id="text_6">
      <!-- 10000 -->
      <g transform="translate(381.710167 334.998438)scale(0.1 -0.1)">
       <defs>
        <path d="M 14.203125 0 
L 14.203125 5.171875 
L 26.90625 5.171875 
L 26.90625 65.828125 
L 12.203125 56.296875 
L 12.203125 62.703125 
L 29.984375 74.21875 
L 36.71875 74.21875 
L 36.71875 5.171875 
L 49.421875 5.171875 
L 49.421875 0 
z
" id="DejaVuSerif-49"/>
       </defs>
       <use xlink:href="#DejaVuSerif-49"/>
       <use x="63.623047" xlink:href="#DejaVuSerif-48"/>
       <use x="127.246094" xlink:href="#DejaVuSerif-48"/>
       <use x="190.869141" xlink:href="#DejaVuSerif-48"/>
       <use x="254.492188" xlink:href="#DejaVuSerif-48"/>
      </g>
     </g>
    </g>
    <g id="xtick_7">
     <g id="line2d_13">
      <path clip-path="url(#p9f10498fec)" d="M 458.687626 320.4 
L 458.687626 43.2 
" style="fill:none;stroke:#b0b0b0;stroke-linecap:square;stroke-width:0.8;"/>
     </g>
     <g id="line2d_14">
      <g>
       <use style="stroke:#000000;stroke-width:0.8;" x="458.687626" xlink:href="#m5e771d888a" y="320.4"/>
      </g>
     </g>
     <g id="text_7">
      <!-- 12000 -->
      <g transform="translate(442.781376 334.998438)scale(0.1 -0.1)">
       <use xlink:href="#DejaVuSerif-49"/>
       <use x="63.623047" xlink:href="#DejaVuSerif-50"/>
       <use x="127.246094" xlink:href="#DejaVuSerif-48"/>
       <use x="190.869141" xlink:href="#DejaVuSerif-48"/>
       <use x="254.492188" xlink:href="#DejaVuSerif-48"/>
      </g>
     </g>
    </g>
    <g id="text_8">
     <!-- Epoch -->
     <g transform="translate(279.31875 348.676562)scale(0.1 -0.1)">
      <defs>
       <path d="M 5.515625 0 
L 5.515625 5.171875 
L 14.796875 5.171875 
L 14.796875 67.671875 
L 5.515625 67.671875 
L 5.515625 72.90625 
L 64.203125 72.90625 
L 64.203125 56.6875 
L 58.203125 56.6875 
L 58.203125 66.890625 
L 24.703125 66.890625 
L 24.703125 42.484375 
L 48.578125 42.484375 
L 48.578125 51.609375 
L 54.59375 51.609375 
L 54.59375 27.390625 
L 48.578125 27.390625 
L 48.578125 36.53125 
L 24.703125 36.53125 
L 24.703125 6 
L 58.984375 6 
L 58.984375 16.21875 
L 64.984375 16.21875 
L 64.984375 0 
z
" id="DejaVuSerif-69"/>
       <path d="M 20.515625 28.515625 
L 20.515625 23.390625 
Q 20.515625 14.015625 24.09375 9.109375 
Q 27.6875 4.203125 34.515625 4.203125 
Q 41.40625 4.203125 44.9375 9.71875 
Q 48.484375 15.234375 48.484375 25.984375 
Q 48.484375 36.765625 44.9375 42.234375 
Q 41.40625 47.703125 34.515625 47.703125 
Q 27.6875 47.703125 24.09375 42.765625 
Q 20.515625 37.84375 20.515625 28.515625 
z
M 11.53125 46.6875 
L 2.875 46.6875 
L 2.875 51.90625 
L 20.515625 51.90625 
L 20.515625 43.796875 
Q 23.140625 48.6875 27.21875 51 
Q 31.296875 53.328125 37.3125 53.328125 
Q 46.875 53.328125 52.921875 45.75 
Q 58.984375 38.1875 58.984375 25.984375 
Q 58.984375 13.765625 52.921875 6.171875 
Q 46.875 -1.421875 37.3125 -1.421875 
Q 31.296875 -1.421875 27.21875 0.890625 
Q 23.140625 3.21875 20.515625 8.109375 
L 20.515625 -15.578125 
L 29 -15.578125 
L 29 -20.796875 
L 2.875 -20.796875 
L 2.875 -15.578125 
L 11.53125 -15.578125 
z
" id="DejaVuSerif-112"/>
       <path d="M 30.078125 3.421875 
Q 37.3125 3.421875 40.984375 9.125 
Q 44.671875 14.84375 44.671875 25.984375 
Q 44.671875 37.109375 40.984375 42.796875 
Q 37.3125 48.484375 30.078125 48.484375 
Q 22.859375 48.484375 19.171875 42.796875 
Q 15.484375 37.109375 15.484375 25.984375 
Q 15.484375 14.84375 19.1875 9.125 
Q 22.90625 3.421875 30.078125 3.421875 
z
M 30.078125 -1.421875 
Q 18.75 -1.421875 11.859375 6.078125 
Q 4.984375 13.578125 4.984375 25.984375 
Q 4.984375 38.375 11.84375 45.84375 
Q 18.703125 53.328125 30.078125 53.328125 
Q 41.453125 53.328125 48.3125 45.84375 
Q 55.171875 38.375 55.171875 25.984375 
Q 55.171875 13.578125 48.3125 6.078125 
Q 41.453125 -1.421875 30.078125 -1.421875 
z
" id="DejaVuSerif-111"/>
       <path d="M 51.421875 15.578125 
Q 49.515625 7.28125 44.09375 2.921875 
Q 38.671875 -1.421875 30.078125 -1.421875 
Q 18.75 -1.421875 11.859375 6.078125 
Q 4.984375 13.578125 4.984375 25.984375 
Q 4.984375 38.421875 11.859375 45.875 
Q 18.75 53.328125 30.078125 53.328125 
Q 35.015625 53.328125 39.890625 52.171875 
Q 44.78125 51.03125 49.703125 48.6875 
L 49.703125 35.40625 
L 44.484375 35.40625 
Q 43.453125 42.234375 40.015625 45.359375 
Q 36.578125 48.484375 30.171875 48.484375 
Q 22.90625 48.484375 19.1875 42.84375 
Q 15.484375 37.203125 15.484375 25.984375 
Q 15.484375 14.75 19.171875 9.078125 
Q 22.859375 3.421875 30.171875 3.421875 
Q 35.984375 3.421875 39.453125 6.4375 
Q 42.921875 9.46875 44.1875 15.578125 
z
" id="DejaVuSerif-99"/>
       <path d="M 4.109375 0 
L 4.109375 5.171875 
L 12.203125 5.171875 
L 12.203125 70.796875 
L 3.609375 70.796875 
L 3.609375 75.984375 
L 21.1875 75.984375 
L 21.1875 42.671875 
Q 23.6875 47.953125 27.65625 50.640625 
Q 31.640625 53.328125 36.921875 53.328125 
Q 45.515625 53.328125 49.5625 48.390625 
Q 53.609375 43.453125 53.609375 33.015625 
L 53.609375 5.171875 
L 61.625 5.171875 
L 61.625 0 
L 36.8125 0 
L 36.8125 5.171875 
L 44.578125 5.171875 
L 44.578125 30.171875 
Q 44.578125 39.703125 42.25 43.1875 
Q 39.9375 46.6875 33.984375 46.6875 
Q 27.734375 46.6875 24.453125 42.140625 
Q 21.1875 37.59375 21.1875 28.90625 
L 21.1875 5.171875 
L 29 5.171875 
L 29 0 
z
" id="DejaVuSerif-104"/>
      </defs>
      <use xlink:href="#DejaVuSerif-69"/>
      <use x="72.998047" xlink:href="#DejaVuSerif-112"/>
      <use x="137.011719" xlink:href="#DejaVuSerif-111"/>
      <use x="197.216797" xlink:href="#DejaVuSerif-99"/>
      <use x="253.222656" xlink:href="#DejaVuSerif-104"/>
     </g>
    </g>
   </g>
   <g id="matplotlib.axis_2">
    <g id="ytick_1">
     <g id="line2d_15">
      <path clip-path="url(#p9f10498fec)" d="M 72 313.996721 
L 518.4 313.996721 
" style="fill:none;stroke:#b0b0b0;stroke-linecap:square;stroke-width:0.8;"/>
     </g>
     <g id="line2d_16">
      <defs>
       <path d="M 0 0 
L -3.5 0 
" id="m89c27907a9" style="stroke:#000000;stroke-width:0.8;"/>
      </defs>
      <g>
       <use style="stroke:#000000;stroke-width:0.8;" x="72" xlink:href="#m89c27907a9" y="313.996721"/>
      </g>
     </g>
     <g id="text_9">
      <!-- 0.0 -->
      <g transform="translate(49.096875 317.79594)scale(0.1 -0.1)">
       <defs>
        <path d="M 9.421875 5.078125 
Q 9.421875 7.8125 11.28125 9.71875 
Q 13.140625 11.625 15.921875 11.625 
Q 18.609375 11.625 20.5 9.71875 
Q 22.40625 7.8125 22.40625 5.078125 
Q 22.40625 2.390625 20.5 0.484375 
Q 18.609375 -1.421875 15.921875 -1.421875 
Q 13.140625 -1.421875 11.28125 0.453125 
Q 9.421875 2.34375 9.421875 5.078125 
z
" id="DejaVuSerif-46"/>
       </defs>
       <use xlink:href="#DejaVuSerif-48"/>
       <use x="63.623047" xlink:href="#DejaVuSerif-46"/>
       <use x="95.410156" xlink:href="#DejaVuSerif-48"/>
      </g>
     </g>
    </g>
    <g id="ytick_2">
     <g id="line2d_17">
      <path clip-path="url(#p9f10498fec)" d="M 72 267.051863 
L 518.4 267.051863 
" style="fill:none;stroke:#b0b0b0;stroke-linecap:square;stroke-width:0.8;"/>
     </g>
     <g id="line2d_18">
      <g>
       <use style="stroke:#000000;stroke-width:0.8;" x="72" xlink:href="#m89c27907a9" y="267.051863"/>
      </g>
     </g>
     <g id="text_10">
      <!-- 0.2 -->
      <g transform="translate(49.096875 270.851082)scale(0.1 -0.1)">
       <use xlink:href="#DejaVuSerif-48"/>
       <use x="63.623047" xlink:href="#DejaVuSerif-46"/>
       <use x="95.410156" xlink:href="#DejaVuSerif-50"/>
      </g>
     </g>
    </g>
    <g id="ytick_3">
     <g id="line2d_19">
      <path clip-path="url(#p9f10498fec)" d="M 72 220.107004 
L 518.4 220.107004 
" style="fill:none;stroke:#b0b0b0;stroke-linecap:square;stroke-width:0.8;"/>
     </g>
     <g id="line2d_20">
      <g>
       <use style="stroke:#000000;stroke-width:0.8;" x="72" xlink:href="#m89c27907a9" y="220.107004"/>
      </g>
     </g>
     <g id="text_11">
      <!-- 0.4 -->
      <g transform="translate(49.096875 223.906223)scale(0.1 -0.1)">
       <use xlink:href="#DejaVuSerif-48"/>
       <use x="63.623047" xlink:href="#DejaVuSerif-46"/>
       <use x="95.410156" xlink:href="#DejaVuSerif-52"/>
      </g>
     </g>
    </g>
    <g id="ytick_4">
     <g id="line2d_21">
      <path clip-path="url(#p9f10498fec)" d="M 72 173.162146 
L 518.4 173.162146 
" style="fill:none;stroke:#b0b0b0;stroke-linecap:square;stroke-width:0.8;"/>
     </g>
     <g id="line2d_22">
      <g>
       <use style="stroke:#000000;stroke-width:0.8;" x="72" xlink:href="#m89c27907a9" y="173.162146"/>
      </g>
     </g>
     <g id="text_12">
      <!-- 0.6 -->
      <g transform="translate(49.096875 176.961365)scale(0.1 -0.1)">
       <use xlink:href="#DejaVuSerif-48"/>
       <use x="63.623047" xlink:href="#DejaVuSerif-46"/>
       <use x="95.410156" xlink:href="#DejaVuSerif-54"/>
      </g>
     </g>
    </g>
    <g id="ytick_5">
     <g id="line2d_23">
      <path clip-path="url(#p9f10498fec)" d="M 72 126.217288 
L 518.4 126.217288 
" style="fill:none;stroke:#b0b0b0;stroke-linecap:square;stroke-width:0.8;"/>
     </g>
     <g id="line2d_24">
      <g>
       <use style="stroke:#000000;stroke-width:0.8;" x="72" xlink:href="#m89c27907a9" y="126.217288"/>
      </g>
     </g>
     <g id="text_13">
      <!-- 0.8 -->
      <g transform="translate(49.096875 130.016506)scale(0.1 -0.1)">
       <use xlink:href="#DejaVuSerif-48"/>
       <use x="63.623047" xlink:href="#DejaVuSerif-46"/>
       <use x="95.410156" xlink:href="#DejaVuSerif-56"/>
      </g>
     </g>
    </g>
    <g id="ytick_6">
     <g id="line2d_25">
      <path clip-path="url(#p9f10498fec)" d="M 72 79.272429 
L 518.4 79.272429 
" style="fill:none;stroke:#b0b0b0;stroke-linecap:square;stroke-width:0.8;"/>
     </g>
     <g id="line2d_26">
      <g>
       <use style="stroke:#000000;stroke-width:0.8;" x="72" xlink:href="#m89c27907a9" y="79.272429"/>
      </g>
     </g>
     <g id="text_14">
      <!-- 1.0 -->
      <g transform="translate(49.096875 83.071648)scale(0.1 -0.1)">
       <use xlink:href="#DejaVuSerif-49"/>
       <use x="63.623047" xlink:href="#DejaVuSerif-46"/>
       <use x="95.410156" xlink:href="#DejaVuSerif-48"/>
      </g>
     </g>
    </g>
    <g id="text_15">
     <!-- Win Rate -->
     <g transform="translate(43.017187 205.0875)rotate(-90)scale(0.1 -0.1)">
      <defs>
       <path d="M 76.21875 0 
L 68.21875 0 
L 51.515625 59.28125 
L 34.8125 0 
L 26.8125 0 
L 7.71875 67.671875 
L 0.484375 67.671875 
L 0.484375 72.90625 
L 27.09375 72.90625 
L 27.09375 67.671875 
L 18.015625 67.671875 
L 33.203125 13.8125 
L 49.8125 72.90625 
L 57.71875 72.90625 
L 74.609375 13.1875 
L 89.890625 67.671875 
L 81.5 67.671875 
L 81.5 72.90625 
L 102.484375 72.90625 
L 102.484375 67.671875 
L 95.3125 67.671875 
z
" id="DejaVuSerif-87"/>
       <path d="M 9.71875 68.015625 
Q 9.71875 70.265625 11.34375 71.921875 
Q 12.984375 73.578125 15.28125 73.578125 
Q 17.53125 73.578125 19.15625 71.921875 
Q 20.796875 70.265625 20.796875 68.015625 
Q 20.796875 65.71875 19.1875 64.109375 
Q 17.578125 62.5 15.28125 62.5 
Q 12.984375 62.5 11.34375 64.109375 
Q 9.71875 65.71875 9.71875 68.015625 
z
M 21.1875 5.171875 
L 29.6875 5.171875 
L 29.6875 0 
L 3.609375 0 
L 3.609375 5.171875 
L 12.203125 5.171875 
L 12.203125 46.6875 
L 3.609375 46.6875 
L 3.609375 51.90625 
L 21.1875 51.90625 
z
" id="DejaVuSerif-105"/>
       <path d="M 4.109375 0 
L 4.109375 5.171875 
L 12.203125 5.171875 
L 12.203125 46.6875 
L 3.609375 46.6875 
L 3.609375 51.90625 
L 21.1875 51.90625 
L 21.1875 42.671875 
Q 23.6875 47.953125 27.65625 50.640625 
Q 31.640625 53.328125 36.921875 53.328125 
Q 45.515625 53.328125 49.5625 48.390625 
Q 53.609375 43.453125 53.609375 33.015625 
L 53.609375 5.171875 
L 61.625 5.171875 
L 61.625 0 
L 36.8125 0 
L 36.8125 5.171875 
L 44.578125 5.171875 
L 44.578125 30.171875 
Q 44.578125 39.703125 42.234375 43.234375 
Q 39.890625 46.78125 33.984375 46.78125 
Q 27.734375 46.78125 24.453125 42.203125 
Q 21.1875 37.640625 21.1875 28.90625 
L 21.1875 5.171875 
L 29 5.171875 
L 29 0 
z
" id="DejaVuSerif-110"/>
       <path id="DejaVuSerif-32"/>
       <path d="M 47.90625 36.1875 
Q 51.3125 35.25 53.78125 33.03125 
Q 56.25 30.8125 58.203125 26.8125 
L 68.796875 5.171875 
L 77.6875 5.171875 
L 77.6875 0 
L 60.5 0 
L 49.125 23.1875 
Q 45.84375 29.9375 43.109375 31.90625 
Q 40.375 33.890625 35.59375 33.890625 
L 24.703125 33.890625 
L 24.703125 5.171875 
L 35.015625 5.171875 
L 35.015625 0 
L 5.515625 0 
L 5.515625 5.171875 
L 14.796875 5.171875 
L 14.796875 67.671875 
L 5.515625 67.671875 
L 5.515625 72.90625 
L 42.484375 72.90625 
Q 53.125 72.90625 58.90625 67.828125 
Q 64.703125 62.75 64.703125 53.421875 
Q 64.703125 45.90625 60.46875 41.578125 
Q 56.25 37.25 47.90625 36.1875 
z
M 24.703125 39.109375 
L 39.109375 39.109375 
Q 46.484375 39.109375 50 42.59375 
Q 53.515625 46.09375 53.515625 53.421875 
Q 53.515625 60.75 50 64.203125 
Q 46.484375 67.671875 39.109375 67.671875 
L 24.703125 67.671875 
z
" id="DejaVuSerif-82"/>
       <path d="M 39.796875 16.3125 
L 39.796875 27.296875 
L 28.21875 27.296875 
Q 21.53125 27.296875 18.25 24.40625 
Q 14.984375 21.53125 14.984375 15.578125 
Q 14.984375 10.15625 18.296875 6.984375 
Q 21.625 3.8125 27.296875 3.8125 
Q 32.90625 3.8125 36.34375 7.28125 
Q 39.796875 10.75 39.796875 16.3125 
z
M 48.78125 32.421875 
L 48.78125 5.171875 
L 56.78125 5.171875 
L 56.78125 0 
L 39.796875 0 
L 39.796875 5.609375 
Q 36.8125 2 32.90625 0.28125 
Q 29 -1.421875 23.78125 -1.421875 
Q 15.140625 -1.421875 10.0625 3.171875 
Q 4.984375 7.765625 4.984375 15.578125 
Q 4.984375 23.640625 10.796875 28.078125 
Q 16.609375 32.515625 27.203125 32.515625 
L 39.796875 32.515625 
L 39.796875 36.078125 
Q 39.796875 42 36.203125 45.234375 
Q 32.625 48.484375 26.125 48.484375 
Q 20.75 48.484375 17.578125 46.046875 
Q 14.40625 43.609375 13.625 38.8125 
L 8.984375 38.8125 
L 8.984375 49.3125 
Q 13.671875 51.3125 18.09375 52.3125 
Q 22.515625 53.328125 26.703125 53.328125 
Q 37.5 53.328125 43.140625 47.96875 
Q 48.78125 42.625 48.78125 32.421875 
z
" id="DejaVuSerif-97"/>
       <path d="M 10.796875 46.6875 
L 2.875 46.6875 
L 2.875 51.90625 
L 10.796875 51.90625 
L 10.796875 68.015625 
L 19.828125 68.015625 
L 19.828125 51.90625 
L 36.71875 51.90625 
L 36.71875 46.6875 
L 19.828125 46.6875 
L 19.828125 13.71875 
Q 19.828125 7.125 21.09375 5.265625 
Q 22.359375 3.421875 25.78125 3.421875 
Q 29.296875 3.421875 30.90625 5.484375 
Q 32.515625 7.5625 32.625 12.203125 
L 39.40625 12.203125 
Q 39.015625 5.125 35.546875 1.84375 
Q 32.078125 -1.421875 25 -1.421875 
Q 17.234375 -1.421875 14.015625 2.015625 
Q 10.796875 5.46875 10.796875 13.71875 
z
" id="DejaVuSerif-116"/>
       <path d="M 54.203125 25 
L 15.484375 25 
L 15.484375 24.609375 
Q 15.484375 14.109375 19.4375 8.765625 
Q 23.390625 3.421875 31.109375 3.421875 
Q 37.015625 3.421875 40.796875 6.515625 
Q 44.578125 9.625 46.09375 15.71875 
L 53.328125 15.71875 
Q 51.171875 7.171875 45.375 2.875 
Q 39.59375 -1.421875 30.171875 -1.421875 
Q 18.796875 -1.421875 11.890625 6.078125 
Q 4.984375 13.578125 4.984375 25.984375 
Q 4.984375 38.28125 11.765625 45.796875 
Q 18.5625 53.328125 29.59375 53.328125 
Q 41.359375 53.328125 47.65625 46.0625 
Q 53.953125 38.8125 54.203125 25 
z
M 43.609375 30.171875 
Q 43.3125 39.265625 39.765625 43.875 
Q 36.234375 48.484375 29.59375 48.484375 
Q 23.390625 48.484375 19.828125 43.84375 
Q 16.265625 39.203125 15.484375 30.171875 
z
" id="DejaVuSerif-101"/>
      </defs>
      <use xlink:href="#DejaVuSerif-87"/>
      <use x="101.033203" xlink:href="#DejaVuSerif-105"/>
      <use x="133.015625" xlink:href="#DejaVuSerif-110"/>
      <use x="197.419922" xlink:href="#DejaVuSerif-32"/>
      <use x="229.207031" xlink:href="#DejaVuSerif-82"/>
      <use x="306.75" xlink:href="#DejaVuSerif-97"/>
      <use x="366.369141" xlink:href="#DejaVuSerif-116"/>
      <use x="406.554688" xlink:href="#DejaVuSerif-101"/>
     </g>
    </g>
   </g>
   <g id="LineCollection_1">
    <path clip-path="url(#p9f10498fec)" d="M 119.162241 220.107004 
L 119.162241 173.162146 
" style="fill:none;stroke:#66c2a5;stroke-dasharray:7.4,3.2;stroke-dashoffset:0;stroke-opacity:0.5;stroke-width:2;"/>
   </g>
   <g id="LineCollection_2">
    <path clip-path="url(#p9f10498fec)" d="M 150.308557 116.828316 
L 150.308557 69.883458 
" style="fill:none;stroke:#66c2a5;stroke-dasharray:7.4,3.2;stroke-dashoffset:0;stroke-opacity:0.5;stroke-width:2;"/>
   </g>
   <g id="LineCollection_3">
    <path clip-path="url(#p9f10498fec)" d="M 116.10868 220.107004 
L 116.10868 173.162146 
" style="fill:none;stroke:#fc8d62;stroke-dasharray:7.4,3.2;stroke-dashoffset:0;stroke-opacity:0.5;stroke-width:2;"/>
   </g>
   <g id="LineCollection_4">
    <path clip-path="url(#p9f10498fec)" d="M 174.737041 109.78658 
L 174.737041 62.841722 
" style="fill:none;stroke:#fc8d62;stroke-dasharray:7.4,3.2;stroke-dashoffset:0;stroke-opacity:0.5;stroke-width:2;"/>
   </g>
   <g id="LineCollection_5">
    <path clip-path="url(#p9f10498fec)" d="M 113.360476 220.107004 
L 113.360476 173.162146 
" style="fill:none;stroke:#8da0cb;stroke-dasharray:7.4,3.2;stroke-dashoffset:0;stroke-opacity:0.5;stroke-width:2;"/>
   </g>
   <g id="LineCollection_6">
    <path clip-path="url(#p9f10498fec)" d="M 179.317381 102.744858 
L 179.317381 55.8 
" style="fill:none;stroke:#8da0cb;stroke-dasharray:7.4,3.2;stroke-dashoffset:0;stroke-opacity:0.5;stroke-width:2;"/>
   </g>
   <g id="LineCollection_7">
    <path clip-path="url(#p9f10498fec)" d="M 105.115863 220.107004 
L 105.115863 173.162146 
" style="fill:none;stroke:#e78ac3;stroke-dasharray:7.4,3.2;stroke-dashoffset:0;stroke-opacity:0.5;stroke-width:2;"/>
   </g>
   <g id="LineCollection_8">
    <path clip-path="url(#p9f10498fec)" d="M 180.23345 102.744858 
L 180.23345 55.8 
" style="fill:none;stroke:#e78ac3;stroke-dasharray:7.4,3.2;stroke-dashoffset:0;stroke-opacity:0.5;stroke-width:2;"/>
   </g>
   <g id="LineCollection_9">
    <path clip-path="url(#p9f10498fec)" d="M 103.283727 220.107004 
L 103.283727 173.162146 
" style="fill:none;stroke:#a6d854;stroke-dasharray:7.4,3.2;stroke-dashoffset:0;stroke-opacity:0.5;stroke-width:2;"/>
   </g>
   <g id="LineCollection_10">
    <path clip-path="url(#p9f10498fec)" d="M 293.825898 102.744858 
L 293.825898 55.8 
" style="fill:none;stroke:#a6d854;stroke-dasharray:7.4,3.2;stroke-dashoffset:0;stroke-opacity:0.5;stroke-width:2;"/>
   </g>
   <g id="LineCollection_11">
    <path clip-path="url(#p9f10498fec)" d="M 99.619454 220.107004 
L 99.619454 173.162146 
" style="fill:none;stroke:#ffd92f;stroke-dasharray:7.4,3.2;stroke-dashoffset:0;stroke-opacity:0.5;stroke-width:2;"/>
   </g>
   <g id="LineCollection_12">
    <path clip-path="url(#p9f10498fec)" d="M 163.744223 105.092099 
L 163.744223 58.147241 
" style="fill:none;stroke:#ffd92f;stroke-dasharray:7.4,3.2;stroke-dashoffset:0;stroke-opacity:0.5;stroke-width:2;"/>
   </g>
   <g id="line2d_27">
    <path clip-path="url(#p9f10498fec)" d="M 92.290909 307.8 
L 93.512333 306.767213 
L 94.123045 306.297765 
L 94.733757 305.452757 
L 95.34447 303.856632 
L 95.955182 303.105514 
L 97.176606 302.072727 
L 97.787318 300.758271 
L 98.39803 300.288823 
L 99.008742 298.880477 
L 100.840878 295.969896 
L 101.45159 294.56155 
L 103.283727 292.589866 
L 103.894439 291.08763 
L 104.505151 290.430402 
L 105.115863 290.242623 
L 105.726575 287.80149 
L 106.337287 286.393144 
L 106.947999 283.200894 
L 108.169423 279.726975 
L 108.780135 275.408048 
L 110.00156 270.619672 
L 110.612272 266.864084 
L 111.222984 264.047392 
L 112.444408 255.597318 
L 113.05512 252.217288 
L 115.497968 235.03547 
L 119.772953 198.042921 
L 120.383665 191.658421 
L 120.994377 187.339494 
L 121.605089 181.518332 
L 122.215801 177.199405 
L 123.437226 166.777646 
L 124.047938 164.430403 
L 125.269362 154.759762 
L 125.880074 152.694188 
L 126.490786 148.187482 
L 127.101498 145.37079 
L 127.71221 143.211326 
L 128.322922 139.267958 
L 128.933634 136.263487 
L 130.155058 131.94456 
L 130.765771 127.531744 
L 131.987195 126.123399 
L 132.597907 123.588376 
L 133.208619 121.616692 
L 133.819331 120.771685 
L 135.040755 117.767214 
L 135.651467 117.109986 
L 136.262179 115.70164 
L 136.872891 114.950522 
L 137.483604 114.668852 
L 138.705028 112.697168 
L 139.31574 110.443815 
L 139.926452 109.411028 
L 141.147876 106.124888 
L 141.758588 105.279881 
L 142.3693 103.683755 
L 142.980012 101.712071 
L 143.590724 101.712071 
L 144.812149 99.177049 
L 145.422861 98.989269 
L 146.033573 99.458718 
L 146.644285 97.580923 
L 147.254997 96.078688 
L 148.476421 95.609239 
L 149.087133 94.576452 
L 150.308557 93.168106 
L 150.919269 92.886436 
L 151.529982 92.792547 
L 152.140694 92.323099 
L 152.751406 91.384201 
L 153.97283 90.163635 
L 154.583542 90.539194 
L 155.194254 90.351414 
L 155.804966 90.445304 
L 156.415678 90.726973 
L 157.02639 90.445304 
L 157.637102 90.539193 
L 158.247814 90.445304 
L 158.858527 89.975855 
L 159.469239 89.881965 
L 160.690663 88.661399 
L 161.301375 88.004171 
L 161.912087 87.816391 
L 162.522799 88.473619 
L 163.744223 87.534722 
L 164.354935 87.628612 
L 164.965647 87.534722 
L 165.57636 87.159163 
L 166.797784 85.750817 
L 167.408496 85.750817 
L 168.62992 85.469149 
L 170.462056 85.281369 
L 171.072768 85.750818 
L 171.68348 85.281369 
L 172.294192 85.375259 
L 173.515617 84.9997 
L 174.126329 85.09359 
L 174.737041 84.9997 
L 175.958465 85.09359 
L 177.179889 84.718031 
L 177.790601 84.060803 
L 179.012025 84.248582 
L 179.622738 83.779134 
L 180.23345 83.966913 
L 180.844162 83.873024 
L 182.065586 84.060803 
L 182.676298 83.685244 
L 183.28701 83.873023 
L 183.897722 83.779134 
L 184.508434 83.873023 
L 185.119146 83.685243 
L 185.729858 83.779133 
L 186.34057 83.309684 
L 188.172707 83.028015 
L 190.004843 82.276898 
L 190.615555 82.183008 
L 191.836979 82.370787 
L 197.333388 81.61967 
L 199.776236 81.901339 
L 203.440509 81.995228 
L 205.272645 82.183008 
L 210.158342 82.183008 
L 210.158342 82.183008 
" style="fill:none;stroke:#66c2a5;stroke-linecap:square;stroke-width:2;"/>
    <defs>
     <path d="M 0 3 
C 0.795609 3 1.55874 2.683901 2.12132 2.12132 
C 2.683901 1.55874 3 0.795609 3 0 
C 3 -0.795609 2.683901 -1.55874 2.12132 -2.12132 
C 1.55874 -2.683901 0.795609 -3 0 -3 
C -0.795609 -3 -1.55874 -2.683901 -2.12132 -2.12132 
C -2.683901 -1.55874 -3 -0.795609 -3 0 
C -3 0.795609 -2.683901 1.55874 -2.12132 2.12132 
C -1.55874 2.683901 -0.795609 3 0 3 
z
" id="mfe6fc54a5d" style="stroke:#66c2a5;"/>
    </defs>
    <g clip-path="url(#p9f10498fec)">
     <use style="fill:#66c2a5;stroke:#66c2a5;" x="92.290909" xlink:href="#mfe6fc54a5d" y="307.8"/>
     <use style="fill:#66c2a5;stroke:#66c2a5;" x="104.505151" xlink:href="#mfe6fc54a5d" y="290.430402"/>
     <use style="fill:#66c2a5;stroke:#66c2a5;" x="116.719393" xlink:href="#mfe6fc54a5d" y="224.238152"/>
     <use style="fill:#66c2a5;stroke:#66c2a5;" x="128.933634" xlink:href="#mfe6fc54a5d" y="136.263487"/>
     <use style="fill:#66c2a5;stroke:#66c2a5;" x="141.147876" xlink:href="#mfe6fc54a5d" y="106.124888"/>
     <use style="fill:#66c2a5;stroke:#66c2a5;" x="153.362118" xlink:href="#mfe6fc54a5d" y="90.820863"/>
     <use style="fill:#66c2a5;stroke:#66c2a5;" x="165.57636" xlink:href="#mfe6fc54a5d" y="87.159163"/>
     <use style="fill:#66c2a5;stroke:#66c2a5;" x="177.790601" xlink:href="#mfe6fc54a5d" y="84.060803"/>
     <use style="fill:#66c2a5;stroke:#66c2a5;" x="190.004843" xlink:href="#mfe6fc54a5d" y="82.276898"/>
     <use style="fill:#66c2a5;stroke:#66c2a5;" x="202.219085" xlink:href="#mfe6fc54a5d" y="81.995228"/>
    </g>
   </g>
   <g id="line2d_28">
    <path clip-path="url(#p9f10498fec)" d="M 92.290909 299.725484 
L 93.206977 297.566021 
L 94.123045 295.030999 
L 95.039113 293.153204 
L 95.955182 292.026528 
L 97.787318 286.862593 
L 98.703386 285.078688 
L 99.619454 281.13532 
L 100.535522 278.600298 
L 101.45159 275.220268 
L 102.367659 270.619672 
L 104.199795 264.61073 
L 106.031931 254.282861 
L 106.947999 253.343964 
L 108.780135 244.98778 
L 111.52834 230.059314 
L 112.444408 225.364828 
L 113.360476 221.703129 
L 115.192612 208.934127 
L 116.10868 203.864083 
L 117.940817 192.315648 
L 118.856885 184.89836 
L 119.772953 179.922205 
L 120.689021 174.007153 
L 121.605089 167.247093 
L 124.353294 151.94307 
L 125.269362 147.718033 
L 126.18543 142.647988 
L 127.101498 136.920715 
L 128.933634 130.160655 
L 129.849702 125.27839 
L 130.765771 122.461699 
L 132.597907 115.607749 
L 133.513975 112.321609 
L 135.346111 106.688227 
L 136.262179 102.369299 
L 137.178247 100.209836 
L 138.094316 99.552608 
L 139.010384 98.050372 
L 139.926452 97.205364 
L 140.84252 95.890908 
L 141.758588 95.515349 
L 142.674656 93.731445 
L 144.506793 93.168107 
L 145.422861 93.168107 
L 146.338929 91.85365 
L 147.254997 90.914753 
L 148.171065 90.445304 
L 149.087133 89.412517 
L 150.003201 88.943069 
L 150.919269 88.191951 
L 151.835338 87.722502 
L 152.751406 86.220267 
L 154.583542 85.375259 
L 155.49961 85.18748 
L 156.415678 85.375259 
L 157.331746 85.281369 
L 158.247814 85.469149 
L 160.079951 85.18748 
L 160.996019 84.530252 
L 161.912087 84.248583 
L 165.57636 83.779134 
L 166.492428 84.060803 
L 167.408496 83.685244 
L 169.240632 83.309685 
L 171.988836 83.966913 
L 172.904905 83.779134 
L 173.820973 83.779134 
L 174.737041 83.966913 
L 176.569177 83.685244 
L 178.401313 83.591354 
L 181.149518 82.464677 
L 183.897722 82.370787 
L 184.81379 82.089119 
L 185.729858 82.089119 
L 186.645927 81.901339 
L 188.478063 81.995229 
L 189.394131 81.338001 
L 190.310199 81.338001 
L 191.226267 81.61967 
L 192.142335 82.089119 
L 194.89054 81.525781 
L 199.47088 81.61967 
L 201.303017 81.71356 
L 203.135153 81.525781 
L 204.051221 81.61967 
L 206.799425 81.431891 
L 207.715494 81.525781 
L 211.379766 81.244112 
L 212.295834 81.619671 
L 213.211902 81.713561 
L 214.12797 81.619671 
L 215.044039 81.150222 
L 219.624379 81.619671 
L 224.20472 81.150223 
L 226.036856 81.244112 
L 226.952924 81.150223 
L 227.868992 81.338002 
L 229.701129 81.431892 
L 231.533265 81.525781 
L 233.365401 81.431892 
L 234.281469 81.431892 
L 235.197537 81.150222 
L 240.693946 80.586885 
L 241.610014 80.211325 
L 249.854628 80.117436 
L 250.770696 79.929657 
L 252.602832 79.835767 
L 253.5189 79.647988 
L 258.099241 79.554098 
L 259.931377 79.460208 
L 259.931377 79.460208 
" style="fill:none;stroke:#fc8d62;stroke-linecap:square;stroke-width:2;"/>
    <defs>
     <path d="M -0 3 
L 3 -3 
L -3 -3 
z
" id="ma6ab233138" style="stroke:#fc8d62;stroke-linejoin:miter;"/>
    </defs>
    <g clip-path="url(#p9f10498fec)">
     <use style="fill:#fc8d62;stroke:#fc8d62;stroke-linejoin:miter;" x="92.290909" xlink:href="#ma6ab233138" y="299.725484"/>
     <use style="fill:#fc8d62;stroke:#fc8d62;stroke-linejoin:miter;" x="110.612272" xlink:href="#ma6ab233138" y="234.94158"/>
     <use style="fill:#fc8d62;stroke:#fc8d62;stroke-linejoin:miter;" x="128.933634" xlink:href="#ma6ab233138" y="130.160655"/>
     <use style="fill:#fc8d62;stroke:#fc8d62;stroke-linejoin:miter;" x="147.254997" xlink:href="#ma6ab233138" y="90.914753"/>
     <use style="fill:#fc8d62;stroke:#fc8d62;stroke-linejoin:miter;" x="165.57636" xlink:href="#ma6ab233138" y="83.779134"/>
     <use style="fill:#fc8d62;stroke:#fc8d62;stroke-linejoin:miter;" x="183.897722" xlink:href="#ma6ab233138" y="82.370787"/>
     <use style="fill:#fc8d62;stroke:#fc8d62;stroke-linejoin:miter;" x="202.219085" xlink:href="#ma6ab233138" y="81.61967"/>
     <use style="fill:#fc8d62;stroke:#fc8d62;stroke-linejoin:miter;" x="220.540447" xlink:href="#ma6ab233138" y="81.525781"/>
     <use style="fill:#fc8d62;stroke:#fc8d62;stroke-linejoin:miter;" x="238.86181" xlink:href="#ma6ab233138" y="80.774664"/>
     <use style="fill:#fc8d62;stroke:#fc8d62;stroke-linejoin:miter;" x="257.183173" xlink:href="#ma6ab233138" y="79.647988"/>
    </g>
   </g>
   <g id="line2d_29">
    <path clip-path="url(#p9f10498fec)" d="M 92.290909 304.60775 
L 95.039113 299.068256 
L 96.87125 294.46766 
L 97.787318 291.463189 
L 98.703386 289.679285 
L 99.619454 285.923696 
L 100.535522 283.294784 
L 101.45159 278.412519 
L 102.367659 274.469151 
L 104.199795 264.422951 
L 105.115863 258.883458 
L 106.031931 252.029508 
L 106.947999 247.241133 
L 108.780135 234.659911 
L 109.696204 227.524292 
L 112.444408 209.685246 
L 114.276544 197.761252 
L 116.10868 184.241133 
L 117.024749 177.387184 
L 121.605089 147.624144 
L 122.521157 143.305217 
L 123.437226 137.484054 
L 124.353294 134.479583 
L 125.269362 129.597318 
L 127.101498 122.27392 
L 128.017566 119.457229 
L 128.933634 117.673324 
L 129.849702 114.762743 
L 130.765771 112.884949 
L 131.681839 110.537706 
L 132.597907 109.411029 
L 134.430043 105.185992 
L 136.262179 100.679285 
L 137.178247 99.552608 
L 139.010384 98.707601 
L 140.84252 97.205365 
L 141.758588 96.078689 
L 142.674656 95.233681 
L 143.590724 94.576453 
L 144.506793 94.107004 
L 145.422861 93.074217 
L 147.254997 91.290312 
L 148.171065 91.008643 
L 149.087133 90.914753 
L 150.919269 89.975856 
L 152.751406 89.600296 
L 153.667474 89.036958 
L 154.583542 88.755289 
L 155.49961 88.661399 
L 156.415678 88.285841 
L 157.331746 87.628613 
L 158.247814 88.004172 
L 160.079951 87.534723 
L 160.996019 87.440833 
L 161.912087 86.783606 
L 163.744223 86.501937 
L 164.660291 86.877496 
L 165.57636 87.065276 
L 166.492428 86.783606 
L 167.408496 86.314157 
L 168.324564 86.032489 
L 169.240632 86.314158 
L 170.1567 86.126379 
L 171.072768 86.220269 
L 171.988836 85.563041 
L 172.904905 85.563041 
L 174.737041 85.093592 
L 175.653109 85.093592 
L 176.569177 84.811923 
L 177.485245 85.65693 
L 178.401313 85.65693 
L 179.317381 85.375261 
L 180.23345 85.56304 
L 183.897722 84.905811 
L 185.729858 84.811921 
L 187.561995 84.060803 
L 189.394131 83.779134 
L 190.310199 84.060802 
L 191.226267 84.154692 
L 192.142335 83.873023 
L 193.058403 83.779132 
L 193.974472 83.497463 
L 195.806608 84.060801 
L 196.722676 84.060801 
L 197.638744 84.34247 
L 199.47088 84.248581 
L 200.386948 83.497463 
L 201.303017 83.309684 
L 203.135153 83.215794 
L 204.967289 82.934125 
L 209.54763 82.558567 
L 210.463698 82.558567 
L 212.295834 82.183008 
L 214.12797 82.558567 
L 215.044039 82.558567 
L 215.960107 82.276898 
L 217.792243 82.089119 
L 218.708311 81.71356 
L 219.624379 81.71356 
L 220.540447 81.525781 
L 223.288652 81.90134 
L 224.20472 82.183009 
L 228.785061 82.652457 
L 230.617197 82.558567 
L 231.533265 82.840236 
L 234.281469 83.028015 
L 235.197537 83.028015 
L 237.029674 82.370787 
L 239.777878 82.934125 
L 242.526082 82.652456 
L 243.442151 82.746346 
L 245.274287 82.464677 
L 246.190355 82.370787 
L 248.022491 82.464677 
L 248.938559 82.464677 
L 249.854628 82.746347 
L 251.686764 82.370788 
L 253.5189 82.370788 
L 254.434968 82.089119 
L 260.847445 81.99523 
L 261.763513 81.80745 
L 269.092058 81.713561 
L 269.092058 81.713561 
" style="fill:none;stroke:#8da0cb;stroke-linecap:square;stroke-width:2;"/>
    <defs>
     <path d="M -3 3 
L 3 3 
L 3 -3 
L -3 -3 
z
" id="m438c696427" style="stroke:#8da0cb;stroke-linejoin:miter;"/>
    </defs>
    <g clip-path="url(#p9f10498fec)">
     <use style="fill:#8da0cb;stroke:#8da0cb;stroke-linejoin:miter;" x="92.290909" xlink:href="#m438c696427" y="304.60775"/>
     <use style="fill:#8da0cb;stroke:#8da0cb;stroke-linejoin:miter;" x="110.612272" xlink:href="#m438c696427" y="221.327571"/>
     <use style="fill:#8da0cb;stroke:#8da0cb;stroke-linejoin:miter;" x="128.933634" xlink:href="#m438c696427" y="117.673324"/>
     <use style="fill:#8da0cb;stroke:#8da0cb;stroke-linejoin:miter;" x="147.254997" xlink:href="#m438c696427" y="91.290312"/>
     <use style="fill:#8da0cb;stroke:#8da0cb;stroke-linejoin:miter;" x="165.57636" xlink:href="#m438c696427" y="87.065276"/>
     <use style="fill:#8da0cb;stroke:#8da0cb;stroke-linejoin:miter;" x="183.897722" xlink:href="#m438c696427" y="84.905811"/>
     <use style="fill:#8da0cb;stroke:#8da0cb;stroke-linejoin:miter;" x="202.219085" xlink:href="#m438c696427" y="83.309684"/>
     <use style="fill:#8da0cb;stroke:#8da0cb;stroke-linejoin:miter;" x="220.540447" xlink:href="#m438c696427" y="81.525781"/>
     <use style="fill:#8da0cb;stroke:#8da0cb;stroke-linejoin:miter;" x="238.86181" xlink:href="#m438c696427" y="82.840236"/>
     <use style="fill:#8da0cb;stroke:#8da0cb;stroke-linejoin:miter;" x="257.183173" xlink:href="#m438c696427" y="81.99523"/>
    </g>
   </g>
   <g id="line2d_30">
    <path clip-path="url(#p9f10498fec)" d="M 92.290909 301.039941 
L 93.206977 296.251565 
L 94.123045 290.524292 
L 95.039113 286.111476 
L 95.955182 282.637556 
L 96.87125 278.412519 
L 97.787318 270.807452 
L 99.619454 257.569001 
L 102.367659 230.622652 
L 106.031931 193.817882 
L 106.947999 186.118925 
L 110.612272 151.47362 
L 112.444408 133.540684 
L 114.276544 119.738895 
L 115.192612 113.636063 
L 116.10868 109.129357 
L 117.024749 105.561548 
L 117.940817 100.585393 
L 118.856885 94.67034 
L 119.772953 89.506406 
L 120.689021 87.722501 
L 121.605089 84.81192 
L 122.521157 82.276898 
L 123.437226 81.52578 
L 125.269362 81.056332 
L 129.849702 80.492994 
L 130.765771 80.211325 
L 136.262179 80.117436 
L 139.926452 79.835767 
L 162.828155 79.929657 
L 164.660291 80.023546 
L 166.492428 80.117436 
L 168.324564 80.305215 
L 169.240632 80.117436 
L 176.569177 80.023546 
L 177.485245 79.835767 
L 184.81379 79.835767 
L 186.645927 79.554098 
L 189.394131 79.460208 
L 192.142335 79.272429 
L 270.924195 79.272429 
L 270.924195 79.272429 
" style="fill:none;stroke:#e78ac3;stroke-linecap:square;stroke-width:2;"/>
    <defs>
     <path d="M 0 -3 
L -2.85317 -0.927051 
L -1.763356 2.427051 
L 1.763356 2.427051 
L 2.85317 -0.927051 
z
" id="mfe9e0ff620" style="stroke:#e78ac3;stroke-linejoin:miter;"/>
    </defs>
    <g clip-path="url(#p9f10498fec)">
     <use style="fill:#e78ac3;stroke:#e78ac3;stroke-linejoin:miter;" x="92.290909" xlink:href="#mfe9e0ff620" y="301.039941"/>
     <use style="fill:#e78ac3;stroke:#e78ac3;stroke-linejoin:miter;" x="110.612272" xlink:href="#mfe9e0ff620" y="151.47362"/>
     <use style="fill:#e78ac3;stroke:#e78ac3;stroke-linejoin:miter;" x="128.933634" xlink:href="#mfe9e0ff620" y="80.680774"/>
     <use style="fill:#e78ac3;stroke:#e78ac3;stroke-linejoin:miter;" x="147.254997" xlink:href="#mfe9e0ff620" y="79.929657"/>
     <use style="fill:#e78ac3;stroke:#e78ac3;stroke-linejoin:miter;" x="165.57636" xlink:href="#mfe9e0ff620" y="80.023546"/>
     <use style="fill:#e78ac3;stroke:#e78ac3;stroke-linejoin:miter;" x="183.897722" xlink:href="#mfe9e0ff620" y="79.835767"/>
     <use style="fill:#e78ac3;stroke:#e78ac3;stroke-linejoin:miter;" x="202.219085" xlink:href="#mfe9e0ff620" y="79.366319"/>
     <use style="fill:#e78ac3;stroke:#e78ac3;stroke-linejoin:miter;" x="220.540447" xlink:href="#mfe9e0ff620" y="79.366319"/>
     <use style="fill:#e78ac3;stroke:#e78ac3;stroke-linejoin:miter;" x="238.86181" xlink:href="#mfe9e0ff620" y="79.272429"/>
     <use style="fill:#e78ac3;stroke:#e78ac3;stroke-linejoin:miter;" x="257.183173" xlink:href="#mfe9e0ff620" y="79.272429"/>
    </g>
   </g>
   <g id="line2d_31">
    <path clip-path="url(#p9f10498fec)" d="M 92.290909 287.144262 
L 93.206977 282.637556 
L 94.123045 276.534725 
L 95.955182 267.145753 
L 98.703386 245.08167 
L 102.367659 213.065276 
L 104.199795 196.352907 
L 108.780135 155.60477 
L 110.612272 143.305217 
L 111.52834 139.08018 
L 113.360476 128.658421 
L 114.276544 124.808943 
L 115.192612 122.180031 
L 116.10868 118.048883 
L 117.024749 115.044412 
L 117.940817 111.101043 
L 118.856885 106.594337 
L 119.772953 104.622653 
L 121.605089 101.99374 
L 122.521157 100.960953 
L 123.437226 99.740387 
L 124.353294 99.083159 
L 126.18543 98.332041 
L 130.765771 95.139791 
L 132.597907 93.919224 
L 133.513975 93.731445 
L 135.346111 92.604768 
L 136.262179 92.323099 
L 137.178247 91.85365 
L 138.094316 90.820863 
L 139.010384 90.351415 
L 140.84252 90.257525 
L 142.674656 89.975856 
L 143.590724 89.788077 
L 144.506793 89.130849 
L 146.338929 88.6614 
L 147.254997 88.098062 
L 148.171065 88.191952 
L 149.087133 88.473621 
L 150.003201 87.722503 
L 150.919269 87.346944 
L 151.835338 86.783606 
L 153.667474 86.689716 
L 154.583542 86.314157 
L 155.49961 86.220267 
L 156.415678 85.750819 
L 158.247814 85.469149 
L 159.163883 85.28137 
L 160.996019 84.624141 
L 161.912087 84.624141 
L 164.660291 83.779134 
L 165.57636 83.779134 
L 166.492428 83.497464 
L 168.324564 83.403574 
L 171.072768 83.028015 
L 171.988836 82.558566 
L 174.737041 82.652456 
L 176.569177 82.183008 
L 178.401313 82.276897 
L 180.23345 81.807449 
L 182.065586 81.71356 
L 182.981654 81.71356 
L 184.81379 81.338001 
L 185.729858 81.338001 
L 186.645927 81.150222 
L 190.310199 81.056332 
L 191.226267 80.774663 
L 193.058403 80.492994 
L 193.974472 80.211325 
L 195.806608 80.305215 
L 196.722676 80.117436 
L 198.554812 80.211325 
L 201.303017 80.023546 
L 202.219085 80.117436 
L 204.967289 79.929657 
L 215.044039 79.929657 
L 215.960107 80.117436 
L 231.533265 80.023546 
L 233.365401 79.929657 
L 237.029674 79.835767 
L 237.945742 79.647988 
L 239.777878 79.647988 
L 240.693946 79.366319 
L 380.85237 79.460208 
L 382.684506 79.554098 
L 393.677324 79.460208 
L 395.50946 79.366319 
L 420.2433 79.460208 
L 422.075436 79.554098 
L 430.320049 79.460208 
L 432.152186 79.366319 
L 498.109091 79.272429 
L 498.109091 79.272429 
" style="fill:none;stroke:#a6d854;stroke-linecap:square;stroke-width:2;"/>
    <defs>
     <path d="M 0 -3 
L -0.673542 -0.927051 
L -2.85317 -0.927051 
L -1.089814 0.354102 
L -1.763356 2.427051 
L -0 1.145898 
L 1.763356 2.427051 
L 1.089814 0.354102 
L 2.85317 -0.927051 
L 0.673542 -0.927051 
z
" id="m1227a811b5" style="stroke:#a6d854;stroke-linejoin:bevel;"/>
    </defs>
    <g clip-path="url(#p9f10498fec)">
     <use style="fill:#a6d854;stroke:#a6d854;stroke-linejoin:bevel;" x="92.290909" xlink:href="#m1227a811b5" y="287.144262"/>
     <use style="fill:#a6d854;stroke:#a6d854;stroke-linejoin:bevel;" x="110.612272" xlink:href="#m1227a811b5" y="143.305217"/>
     <use style="fill:#a6d854;stroke:#a6d854;stroke-linejoin:bevel;" x="128.933634" xlink:href="#m1227a811b5" y="96.360357"/>
     <use style="fill:#a6d854;stroke:#a6d854;stroke-linejoin:bevel;" x="147.254997" xlink:href="#m1227a811b5" y="88.098062"/>
     <use style="fill:#a6d854;stroke:#a6d854;stroke-linejoin:bevel;" x="165.57636" xlink:href="#m1227a811b5" y="83.779134"/>
     <use style="fill:#a6d854;stroke:#a6d854;stroke-linejoin:bevel;" x="183.897722" xlink:href="#m1227a811b5" y="81.52578"/>
     <use style="fill:#a6d854;stroke:#a6d854;stroke-linejoin:bevel;" x="202.219085" xlink:href="#m1227a811b5" y="80.117436"/>
     <use style="fill:#a6d854;stroke:#a6d854;stroke-linejoin:bevel;" x="220.540447" xlink:href="#m1227a811b5" y="80.023546"/>
     <use style="fill:#a6d854;stroke:#a6d854;stroke-linejoin:bevel;" x="237.945742" xlink:href="#m1227a811b5" y="79.647988"/>
     <use style="fill:#a6d854;stroke:#a6d854;stroke-linejoin:bevel;" x="256.267104" xlink:href="#m1227a811b5" y="79.272429"/>
     <use style="fill:#a6d854;stroke:#a6d854;stroke-linejoin:bevel;" x="274.588467" xlink:href="#m1227a811b5" y="79.272429"/>
     <use style="fill:#a6d854;stroke:#a6d854;stroke-linejoin:bevel;" x="292.90983" xlink:href="#m1227a811b5" y="79.366319"/>
     <use style="fill:#a6d854;stroke:#a6d854;stroke-linejoin:bevel;" x="311.231192" xlink:href="#m1227a811b5" y="79.272429"/>
     <use style="fill:#a6d854;stroke:#a6d854;stroke-linejoin:bevel;" x="329.552555" xlink:href="#m1227a811b5" y="79.366319"/>
     <use style="fill:#a6d854;stroke:#a6d854;stroke-linejoin:bevel;" x="347.873918" xlink:href="#m1227a811b5" y="79.272429"/>
     <use style="fill:#a6d854;stroke:#a6d854;stroke-linejoin:bevel;" x="366.19528" xlink:href="#m1227a811b5" y="79.272429"/>
     <use style="fill:#a6d854;stroke:#a6d854;stroke-linejoin:bevel;" x="383.600575" xlink:href="#m1227a811b5" y="79.554098"/>
     <use style="fill:#a6d854;stroke:#a6d854;stroke-linejoin:bevel;" x="401.921937" xlink:href="#m1227a811b5" y="79.366319"/>
     <use style="fill:#a6d854;stroke:#a6d854;stroke-linejoin:bevel;" x="420.2433" xlink:href="#m1227a811b5" y="79.460208"/>
     <use style="fill:#a6d854;stroke:#a6d854;stroke-linejoin:bevel;" x="438.564662" xlink:href="#m1227a811b5" y="79.366319"/>
     <use style="fill:#a6d854;stroke:#a6d854;stroke-linejoin:bevel;" x="456.886025" xlink:href="#m1227a811b5" y="79.272429"/>
     <use style="fill:#a6d854;stroke:#a6d854;stroke-linejoin:bevel;" x="475.207388" xlink:href="#m1227a811b5" y="79.272429"/>
     <use style="fill:#a6d854;stroke:#a6d854;stroke-linejoin:bevel;" x="493.52875" xlink:href="#m1227a811b5" y="79.272429"/>
    </g>
   </g>
   <g id="line2d_32">
    <path clip-path="url(#p9f10498fec)" d="M 92.290909 269.211327 
L 95.039113 246.396125 
L 107.864067 132.789569 
L 108.780135 126.686737 
L 111.52834 111.007155 
L 112.444408 108.566022 
L 113.360476 106.969897 
L 114.276544 105.092102 
L 117.024749 101.524293 
L 117.940817 99.740388 
L 119.772953 97.393145 
L 120.689021 97.111475 
L 121.605089 95.42146 
L 122.521157 94.107004 
L 124.353294 92.604769 
L 126.18543 90.445305 
L 127.101498 90.163636 
L 128.017566 89.318628 
L 128.933634 89.130848 
L 129.849702 88.6614 
L 130.765771 88.004172 
L 131.681839 87.722502 
L 133.513975 86.501936 
L 136.262179 84.342472 
L 137.178247 84.060804 
L 139.010384 82.840237 
L 140.84252 82.746348 
L 141.758588 82.652458 
L 144.506793 81.90134 
L 145.422861 82.183009 
L 147.254997 81.525781 
L 148.171065 81.525781 
L 149.087133 81.80745 
L 150.919269 81.80745 
L 151.835338 81.61967 
L 153.667474 81.80745 
L 154.583542 81.71356 
L 157.331746 82.370788 
L 158.247814 82.276898 
L 159.163883 82.464678 
L 163.744223 82.558567 
L 167.408496 82.934126 
L 168.324564 82.652456 
L 170.1567 82.558567 
L 172.904905 82.464677 
L 174.737041 82.370787 
L 178.401313 82.276898 
L 179.317381 82.183008 
L 180.23345 81.901339 
L 184.81379 82.276897 
L 185.729858 82.276897 
L 186.645927 82.089118 
L 187.561995 82.089118 
L 189.394131 81.807449 
L 191.226267 81.61967 
L 192.142335 81.71356 
L 194.89054 81.244111 
L 197.638744 81.431891 
L 201.303017 81.150222 
L 202.219085 81.244111 
L 203.135153 81.150222 
L 204.051221 81.244111 
L 206.799425 80.586884 
L 207.715494 80.868553 
L 208.631562 80.774663 
L 210.463698 80.962442 
L 211.379766 80.868553 
L 212.295834 81.150222 
L 213.211902 81.056333 
L 214.12797 81.150222 
L 215.044039 81.056333 
L 215.960107 81.338002 
L 217.792243 81.431891 
L 221.456515 81.525781 
L 223.288652 81.61967 
L 226.036856 81.525781 
L 226.952924 81.431891 
L 229.701129 81.71356 
L 230.617197 81.525781 
L 234.281469 81.525781 
L 235.197537 81.244111 
L 237.029674 81.338001 
L 237.945742 81.338001 
L 238.86181 81.150222 
L 238.86181 81.150222 
" style="fill:none;stroke:#ffd92f;stroke-linecap:square;stroke-width:2;"/>
    <defs>
     <path d="M 0 4.242641 
L 4.242641 0 
L 0 -4.242641 
L -4.242641 0 
z
" id="m0c22a33eea" style="stroke:#ffd92f;stroke-linejoin:miter;"/>
    </defs>
    <g clip-path="url(#p9f10498fec)">
     <use style="fill:#ffd92f;stroke:#ffd92f;stroke-linejoin:miter;" x="92.290909" xlink:href="#m0c22a33eea" y="269.211327"/>
     <use style="fill:#ffd92f;stroke:#ffd92f;stroke-linejoin:miter;" x="110.612272" xlink:href="#m0c22a33eea" y="116.828317"/>
     <use style="fill:#ffd92f;stroke:#ffd92f;stroke-linejoin:miter;" x="128.933634" xlink:href="#m0c22a33eea" y="89.130848"/>
     <use style="fill:#ffd92f;stroke:#ffd92f;stroke-linejoin:miter;" x="147.254997" xlink:href="#m0c22a33eea" y="81.525781"/>
     <use style="fill:#ffd92f;stroke:#ffd92f;stroke-linejoin:miter;" x="165.57636" xlink:href="#m0c22a33eea" y="82.840236"/>
     <use style="fill:#ffd92f;stroke:#ffd92f;stroke-linejoin:miter;" x="183.897722" xlink:href="#m0c22a33eea" y="82.370787"/>
     <use style="fill:#ffd92f;stroke:#ffd92f;stroke-linejoin:miter;" x="202.219085" xlink:href="#m0c22a33eea" y="81.244111"/>
     <use style="fill:#ffd92f;stroke:#ffd92f;stroke-linejoin:miter;" x="220.540447" xlink:href="#m0c22a33eea" y="81.525781"/>
     <use style="fill:#ffd92f;stroke:#ffd92f;stroke-linejoin:miter;" x="238.86181" xlink:href="#m0c22a33eea" y="81.150222"/>
    </g>
   </g>
   <g id="patch_3">
    <path d="M 72 320.4 
L 72 43.2 
" style="fill:none;stroke:#000000;stroke-linecap:square;stroke-linejoin:miter;stroke-width:0.8;"/>
   </g>
   <g id="patch_4">
    <path d="M 518.4 320.4 
L 518.4 43.2 
" style="fill:none;stroke:#000000;stroke-linecap:square;stroke-linejoin:miter;stroke-width:0.8;"/>
   </g>
   <g id="patch_5">
    <path d="M 72 320.4 
L 518.4 320.4 
" style="fill:none;stroke:#000000;stroke-linecap:square;stroke-linejoin:miter;stroke-width:0.8;"/>
   </g>
   <g id="patch_6">
    <path d="M 72 43.2 
L 518.4 43.2 
" style="fill:none;stroke:#000000;stroke-linecap:square;stroke-linejoin:miter;stroke-width:0.8;"/>
   </g>
   <g id="text_16">
    <!-- Win Rate Of Different Method -->
    <g transform="translate(203.55375 37.2)scale(0.12 -0.12)">
     <defs>
      <path d="M 41.015625 3.8125 
Q 52.984375 3.8125 59.078125 12.03125 
Q 65.1875 20.265625 65.1875 36.375 
Q 65.1875 52.546875 59.078125 60.765625 
Q 52.984375 69 41.015625 69 
Q 29 69 22.890625 60.765625 
Q 16.796875 52.546875 16.796875 36.375 
Q 16.796875 20.265625 22.890625 12.03125 
Q 29 3.8125 41.015625 3.8125 
z
M 41.015625 -1.421875 
Q 33.59375 -1.421875 27.359375 1.015625 
Q 21.140625 3.46875 16.40625 8.203125 
Q 10.9375 13.671875 8.265625 20.609375 
Q 5.609375 27.546875 5.609375 36.375 
Q 5.609375 45.21875 8.265625 52.171875 
Q 10.9375 59.125 16.40625 64.59375 
Q 21.1875 69.390625 27.34375 71.796875 
Q 33.5 74.21875 41.015625 74.21875 
Q 56.890625 74.21875 66.65625 63.8125 
Q 76.421875 53.421875 76.421875 36.375 
Q 76.421875 27.640625 73.734375 20.625 
Q 71.046875 13.625 65.578125 8.203125 
Q 60.796875 3.421875 54.640625 1 
Q 48.484375 -1.421875 41.015625 -1.421875 
z
" id="DejaVuSerif-79"/>
      <path d="M 43.015625 63.71875 
L 38.28125 63.71875 
Q 38.234375 67.390625 36.203125 69.28125 
Q 34.1875 71.1875 30.328125 71.1875 
Q 25.296875 71.1875 23.234375 68.421875 
Q 21.1875 65.671875 21.1875 58.59375 
L 21.1875 51.90625 
L 35.6875 51.90625 
L 35.6875 46.6875 
L 21.1875 46.6875 
L 21.1875 5.171875 
L 32.71875 5.171875 
L 32.71875 0 
L 3.609375 0 
L 3.609375 5.171875 
L 12.203125 5.171875 
L 12.203125 46.6875 
L 3.609375 46.6875 
L 3.609375 51.90625 
L 12.203125 51.90625 
L 12.203125 58.40625 
Q 12.203125 67.09375 16.71875 71.53125 
Q 21.234375 75.984375 29.984375 75.984375 
Q 33.25 75.984375 36.515625 75.390625 
Q 39.796875 74.8125 43.015625 73.578125 
z
" id="DejaVuSerif-102"/>
      <path d="M 24.703125 5.171875 
L 33.796875 5.171875 
Q 48 5.171875 55.59375 13.28125 
Q 63.1875 21.390625 63.1875 36.53125 
Q 63.1875 51.65625 55.609375 59.65625 
Q 48.046875 67.671875 33.796875 67.671875 
L 24.703125 67.671875 
z
M 5.515625 0 
L 5.515625 5.171875 
L 14.796875 5.171875 
L 14.796875 67.671875 
L 5.515625 67.671875 
L 5.515625 72.90625 
L 34.515625 72.90625 
Q 53.375 72.90625 63.890625 63.28125 
Q 74.421875 53.65625 74.421875 36.53125 
Q 74.421875 19.34375 63.875 9.671875 
Q 53.328125 0 34.515625 0 
z
" id="DejaVuSerif-68"/>
      <path d="M 47.796875 52 
L 47.796875 39.015625 
L 42.625 39.015625 
Q 42.390625 42.875 40.484375 44.78125 
Q 38.578125 46.6875 34.90625 46.6875 
Q 28.265625 46.6875 24.71875 42.09375 
Q 21.1875 37.5 21.1875 28.90625 
L 21.1875 5.171875 
L 31.59375 5.171875 
L 31.59375 0 
L 4.109375 0 
L 4.109375 5.171875 
L 12.203125 5.171875 
L 12.203125 46.78125 
L 3.609375 46.78125 
L 3.609375 51.90625 
L 21.1875 51.90625 
L 21.1875 42.671875 
Q 23.828125 48.09375 27.96875 50.703125 
Q 32.125 53.328125 38.09375 53.328125 
Q 40.28125 53.328125 42.703125 52.984375 
Q 45.125 52.640625 47.796875 52 
z
" id="DejaVuSerif-114"/>
      <path d="M 5.515625 0 
L 5.515625 5.171875 
L 14.796875 5.171875 
L 14.796875 67.671875 
L 4.984375 67.671875 
L 4.984375 72.90625 
L 26.21875 72.90625 
L 51.8125 21 
L 77.390625 72.90625 
L 97.3125 72.90625 
L 97.3125 67.671875 
L 87.59375 67.671875 
L 87.59375 5.171875 
L 96.921875 5.171875 
L 96.921875 0 
L 68.40625 0 
L 68.40625 5.171875 
L 77.6875 5.171875 
L 77.6875 61.53125 
L 52.6875 10.6875 
L 45.796875 10.6875 
L 20.796875 61.53125 
L 20.796875 5.171875 
L 30.078125 5.171875 
L 30.078125 0 
z
" id="DejaVuSerif-77"/>
      <path d="M 52.484375 5.171875 
L 61.078125 5.171875 
L 61.078125 0 
L 43.5 0 
L 43.5 8.109375 
Q 40.875 3.21875 36.796875 0.890625 
Q 32.71875 -1.421875 26.703125 -1.421875 
Q 17.140625 -1.421875 11.0625 6.171875 
Q 4.984375 13.765625 4.984375 25.984375 
Q 4.984375 38.1875 11.03125 45.75 
Q 17.09375 53.328125 26.703125 53.328125 
Q 32.71875 53.328125 36.796875 51 
Q 40.875 48.6875 43.5 43.796875 
L 43.5 70.796875 
L 35.015625 70.796875 
L 35.015625 75.984375 
L 52.484375 75.984375 
z
M 43.5 23.390625 
L 43.5 28.515625 
Q 43.5 37.84375 39.90625 42.765625 
Q 36.328125 47.703125 29.5 47.703125 
Q 22.5625 47.703125 19.015625 42.234375 
Q 15.484375 36.765625 15.484375 25.984375 
Q 15.484375 15.234375 19.015625 9.71875 
Q 22.5625 4.203125 29.5 4.203125 
Q 36.328125 4.203125 39.90625 9.109375 
Q 43.5 14.015625 43.5 23.390625 
z
" id="DejaVuSerif-100"/>
     </defs>
     <use xlink:href="#DejaVuSerif-87"/>
     <use x="101.033203" xlink:href="#DejaVuSerif-105"/>
     <use x="133.015625" xlink:href="#DejaVuSerif-110"/>
     <use x="197.419922" xlink:href="#DejaVuSerif-32"/>
     <use x="229.207031" xlink:href="#DejaVuSerif-82"/>
     <use x="306.75" xlink:href="#DejaVuSerif-97"/>
     <use x="366.369141" xlink:href="#DejaVuSerif-116"/>
     <use x="406.554688" xlink:href="#DejaVuSerif-101"/>
     <use x="465.734375" xlink:href="#DejaVuSerif-32"/>
     <use x="497.521484" xlink:href="#DejaVuSerif-79"/>
     <use x="579.503906" xlink:href="#DejaVuSerif-102"/>
     <use x="616.515625" xlink:href="#DejaVuSerif-32"/>
     <use x="648.302734" xlink:href="#DejaVuSerif-68"/>
     <use x="728.478516" xlink:href="#DejaVuSerif-105"/>
     <use x="760.460938" xlink:href="#DejaVuSerif-102"/>
     <use x="797.472656" xlink:href="#DejaVuSerif-102"/>
     <use x="834.484375" xlink:href="#DejaVuSerif-101"/>
     <use x="893.664062" xlink:href="#DejaVuSerif-114"/>
     <use x="941.466797" xlink:href="#DejaVuSerif-101"/>
     <use x="1000.646484" xlink:href="#DejaVuSerif-110"/>
     <use x="1065.050781" xlink:href="#DejaVuSerif-116"/>
     <use x="1105.236328" xlink:href="#DejaVuSerif-32"/>
     <use x="1137.023438" xlink:href="#DejaVuSerif-77"/>
     <use x="1239.416016" xlink:href="#DejaVuSerif-101"/>
     <use x="1298.595703" xlink:href="#DejaVuSerif-116"/>
     <use x="1338.78125" xlink:href="#DejaVuSerif-104"/>
     <use x="1403.185547" xlink:href="#DejaVuSerif-111"/>
     <use x="1463.390625" xlink:href="#DejaVuSerif-100"/>
    </g>
   </g>
   <g id="legend_1">
    <g id="patch_7">
     <path d="M 412.307812 315.4 
L 511.4 315.4 
Q 513.4 315.4 513.4 313.4 
L 513.4 225.904687 
Q 513.4 223.904687 511.4 223.904687 
L 412.307812 223.904687 
Q 410.307812 223.904687 410.307812 225.904687 
L 410.307812 313.4 
Q 410.307812 315.4 412.307812 315.4 
z
" style="fill:#ffffff;opacity:0.8;stroke:#cccccc;stroke-linejoin:miter;"/>
    </g>
    <g id="line2d_33">
     <path d="M 414.307812 232.003125 
L 434.307812 232.003125 
" style="fill:none;stroke:#66c2a5;stroke-linecap:square;stroke-width:2;"/>
    </g>
    <g id="line2d_34">
     <g>
      <use style="fill:#66c2a5;stroke:#66c2a5;" x="424.307812" xlink:href="#mfe6fc54a5d" y="232.003125"/>
     </g>
    </g>
    <g id="text_17">
     <!-- DQN -->
     <g transform="translate(442.307812 235.503125)scale(0.1 -0.1)">
      <defs>
       <path d="M 42.1875 -1.421875 
Q 25.4375 -1.421875 15.515625 8.859375 
Q 5.609375 19.140625 5.609375 36.375 
Q 5.609375 45.21875 8.265625 52.171875 
Q 10.9375 59.125 16.40625 64.59375 
Q 21.1875 69.390625 27.34375 71.796875 
Q 33.5 74.21875 41.015625 74.21875 
Q 56.890625 74.21875 66.65625 63.8125 
Q 76.421875 53.421875 76.421875 36.375 
Q 76.421875 21.921875 69.09375 12.078125 
Q 61.765625 2.25 48.875 -0.59375 
Q 51.515625 -3.859375 55.296875 -5.421875 
Q 59.078125 -6.984375 64.40625 -6.984375 
L 65.921875 -6.984375 
L 65.921875 -16.015625 
Q 57.671875 -15.625 51.78125 -11.984375 
Q 45.90625 -8.34375 42.1875 -1.421875 
z
M 41.015625 3.8125 
Q 52.984375 3.8125 59.078125 12.03125 
Q 65.1875 20.265625 65.1875 36.375 
Q 65.1875 52.546875 59.078125 60.765625 
Q 52.984375 69 41.015625 69 
Q 29 69 22.890625 60.765625 
Q 16.796875 52.546875 16.796875 36.375 
Q 16.796875 20.265625 22.890625 12.03125 
Q 29 3.8125 41.015625 3.8125 
z
" id="DejaVuSerif-81"/>
       <path d="M 4.890625 0 
L 4.890625 5.171875 
L 14.703125 5.171875 
L 14.703125 67.671875 
L 4.890625 67.671875 
L 4.890625 72.90625 
L 23.578125 72.90625 
L 67.28125 15.375 
L 67.28125 67.671875 
L 57.515625 67.671875 
L 57.515625 72.90625 
L 83.109375 72.90625 
L 83.109375 67.671875 
L 73.296875 67.671875 
L 73.296875 -1.421875 
L 67.390625 -1.421875 
L 20.703125 60.015625 
L 20.703125 5.171875 
L 30.515625 5.171875 
L 30.515625 0 
z
" id="DejaVuSerif-78"/>
      </defs>
      <use xlink:href="#DejaVuSerif-68"/>
      <use x="80.175781" xlink:href="#DejaVuSerif-81"/>
      <use x="162.158203" xlink:href="#DejaVuSerif-78"/>
     </g>
    </g>
    <g id="line2d_35">
     <path d="M 414.307812 246.68125 
L 434.307812 246.68125 
" style="fill:none;stroke:#fc8d62;stroke-linecap:square;stroke-width:2;"/>
    </g>
    <g id="line2d_36">
     <g>
      <use style="fill:#fc8d62;stroke:#fc8d62;stroke-linejoin:miter;" x="424.307812" xlink:href="#ma6ab233138" y="246.68125"/>
     </g>
    </g>
    <g id="text_18">
     <!-- +Double -->
     <g transform="translate(442.307812 250.18125)scale(0.1 -0.1)">
      <defs>
       <path d="M 45.796875 62.703125 
L 45.796875 35.296875 
L 73.1875 35.296875 
L 73.1875 27.390625 
L 45.796875 27.390625 
L 45.796875 0 
L 37.984375 0 
L 37.984375 27.390625 
L 10.59375 27.390625 
L 10.59375 35.296875 
L 37.984375 35.296875 
L 37.984375 62.703125 
z
" id="DejaVuSerif-43"/>
       <path d="M 35.40625 51.90625 
L 52.203125 51.90625 
L 52.203125 5.171875 
L 60.6875 5.171875 
L 60.6875 0 
L 43.21875 0 
L 43.21875 9.1875 
Q 40.71875 4 36.765625 1.28125 
Q 32.8125 -1.421875 27.59375 -1.421875 
Q 18.953125 -1.421875 14.875 3.484375 
Q 10.796875 8.40625 10.796875 18.890625 
L 10.796875 46.6875 
L 2.6875 46.6875 
L 2.6875 51.90625 
L 19.828125 51.90625 
L 19.828125 21.6875 
Q 19.828125 12.203125 22.140625 8.6875 
Q 24.46875 5.171875 30.421875 5.171875 
Q 36.671875 5.171875 39.9375 9.765625 
Q 43.21875 14.359375 43.21875 23.09375 
L 43.21875 46.6875 
L 35.40625 46.6875 
z
" id="DejaVuSerif-117"/>
       <path d="M 11.53125 5.171875 
L 11.53125 70.796875 
L 2.875 70.796875 
L 2.875 75.984375 
L 20.515625 75.984375 
L 20.515625 43.796875 
Q 23.140625 48.6875 27.21875 51 
Q 31.296875 53.328125 37.3125 53.328125 
Q 46.875 53.328125 52.921875 45.75 
Q 58.984375 38.1875 58.984375 25.984375 
Q 58.984375 13.765625 52.921875 6.171875 
Q 46.875 -1.421875 37.3125 -1.421875 
Q 31.296875 -1.421875 27.21875 0.890625 
Q 23.140625 3.21875 20.515625 8.109375 
L 20.515625 0 
L 2.875 0 
L 2.875 5.171875 
z
M 20.515625 23.390625 
Q 20.515625 14.015625 24.09375 9.109375 
Q 27.6875 4.203125 34.515625 4.203125 
Q 41.40625 4.203125 44.9375 9.71875 
Q 48.484375 15.234375 48.484375 25.984375 
Q 48.484375 36.765625 44.9375 42.234375 
Q 41.40625 47.703125 34.515625 47.703125 
Q 27.6875 47.703125 24.09375 42.765625 
Q 20.515625 37.84375 20.515625 28.515625 
z
" id="DejaVuSerif-98"/>
       <path d="M 20.515625 5.171875 
L 29 5.171875 
L 29 0 
L 2.875 0 
L 2.875 5.171875 
L 11.53125 5.171875 
L 11.53125 70.796875 
L 2.875 70.796875 
L 2.875 75.984375 
L 20.515625 75.984375 
z
" id="DejaVuSerif-108"/>
      </defs>
      <use xlink:href="#DejaVuSerif-43"/>
      <use x="83.789062" xlink:href="#DejaVuSerif-68"/>
      <use x="163.964844" xlink:href="#DejaVuSerif-111"/>
      <use x="224.169922" xlink:href="#DejaVuSerif-117"/>
      <use x="288.574219" xlink:href="#DejaVuSerif-98"/>
      <use x="352.587891" xlink:href="#DejaVuSerif-108"/>
      <use x="384.570312" xlink:href="#DejaVuSerif-101"/>
     </g>
    </g>
    <g id="line2d_37">
     <path d="M 414.307812 261.359375 
L 434.307812 261.359375 
" style="fill:none;stroke:#8da0cb;stroke-linecap:square;stroke-width:2;"/>
    </g>
    <g id="line2d_38">
     <g>
      <use style="fill:#8da0cb;stroke:#8da0cb;stroke-linejoin:miter;" x="424.307812" xlink:href="#m438c696427" y="261.359375"/>
     </g>
    </g>
    <g id="text_19">
     <!-- +Dueling -->
     <g transform="translate(442.307812 264.859375)scale(0.1 -0.1)">
      <defs>
       <path d="M 52.484375 46.6875 
L 52.484375 1.125 
Q 52.484375 -10.0625 46.328125 -16.140625 
Q 40.1875 -22.21875 28.8125 -22.21875 
Q 23.6875 -22.21875 19 -21.28125 
Q 14.3125 -20.359375 10.015625 -18.5 
L 10.015625 -7.625 
L 14.703125 -7.625 
Q 15.578125 -12.703125 18.84375 -15.046875 
Q 22.125 -17.390625 28.21875 -17.390625 
Q 36.140625 -17.390625 39.8125 -12.921875 
Q 43.5 -8.453125 43.5 1.125 
L 43.5 8.109375 
Q 40.875 3.21875 36.796875 0.890625 
Q 32.71875 -1.421875 26.703125 -1.421875 
Q 17.140625 -1.421875 11.0625 6.171875 
Q 4.984375 13.765625 4.984375 25.984375 
Q 4.984375 38.1875 11.03125 45.75 
Q 17.09375 53.328125 26.703125 53.328125 
Q 32.71875 53.328125 36.796875 51 
Q 40.875 48.6875 43.5 43.796875 
L 43.5 51.90625 
L 61.078125 51.90625 
L 61.078125 46.6875 
z
M 43.5 28.515625 
Q 43.5 37.84375 39.90625 42.765625 
Q 36.328125 47.703125 29.5 47.703125 
Q 22.5625 47.703125 19.015625 42.234375 
Q 15.484375 36.765625 15.484375 25.984375 
Q 15.484375 15.234375 19.015625 9.71875 
Q 22.5625 4.203125 29.5 4.203125 
Q 36.328125 4.203125 39.90625 9.109375 
Q 43.5 14.015625 43.5 23.390625 
z
" id="DejaVuSerif-103"/>
      </defs>
      <use xlink:href="#DejaVuSerif-43"/>
      <use x="83.789062" xlink:href="#DejaVuSerif-68"/>
      <use x="163.964844" xlink:href="#DejaVuSerif-117"/>
      <use x="228.369141" xlink:href="#DejaVuSerif-101"/>
      <use x="287.548828" xlink:href="#DejaVuSerif-108"/>
      <use x="319.53125" xlink:href="#DejaVuSerif-105"/>
      <use x="351.513672" xlink:href="#DejaVuSerif-110"/>
      <use x="415.917969" xlink:href="#DejaVuSerif-103"/>
     </g>
    </g>
    <g id="line2d_39">
     <path d="M 414.307812 276.179688 
L 434.307812 276.179688 
" style="fill:none;stroke:#e78ac3;stroke-linecap:square;stroke-width:2;"/>
    </g>
    <g id="line2d_40">
     <g>
      <use style="fill:#e78ac3;stroke:#e78ac3;stroke-linejoin:miter;" x="424.307812" xlink:href="#mfe9e0ff620" y="276.179688"/>
     </g>
    </g>
    <g id="text_20">
     <!-- +Noisy -->
     <g transform="translate(442.307812 279.679688)scale(0.1 -0.1)">
      <defs>
       <path d="M 5.609375 2.875 
L 5.609375 14.984375 
L 10.796875 14.984375 
Q 10.984375 9.1875 14.421875 6.296875 
Q 17.875 3.421875 24.609375 3.421875 
Q 30.671875 3.421875 33.84375 5.6875 
Q 37.015625 7.953125 37.015625 12.3125 
Q 37.015625 15.71875 34.6875 17.8125 
Q 32.375 19.921875 24.90625 22.3125 
L 18.40625 24.515625 
Q 11.71875 26.65625 8.71875 29.875 
Q 5.71875 33.109375 5.71875 38.09375 
Q 5.71875 45.21875 10.9375 49.265625 
Q 16.15625 53.328125 25.390625 53.328125 
Q 29.5 53.328125 34.03125 52.25 
Q 38.578125 51.171875 43.40625 49.125 
L 43.40625 37.796875 
L 38.234375 37.796875 
Q 38.03125 42.828125 34.703125 45.65625 
Q 31.390625 48.484375 25.6875 48.484375 
Q 20.015625 48.484375 17.109375 46.484375 
Q 14.203125 44.484375 14.203125 40.484375 
Q 14.203125 37.203125 16.40625 35.21875 
Q 18.609375 33.25 25.203125 31.203125 
L 32.328125 29 
Q 39.703125 26.703125 42.9375 23.265625 
Q 46.1875 19.828125 46.1875 14.40625 
Q 46.1875 7.03125 40.546875 2.796875 
Q 34.90625 -1.421875 25 -1.421875 
Q 19.96875 -1.421875 15.1875 -0.34375 
Q 10.40625 0.734375 5.609375 2.875 
z
" id="DejaVuSerif-115"/>
       <path d="M 21.578125 -9.515625 
L 25 -0.875 
L 5.609375 46.6875 
L -0.296875 46.6875 
L -0.296875 51.90625 
L 23.578125 51.90625 
L 23.578125 46.6875 
L 15.28125 46.6875 
L 29.890625 10.984375 
L 44.484375 46.6875 
L 36.71875 46.6875 
L 36.71875 51.90625 
L 56.203125 51.90625 
L 56.203125 46.6875 
L 50.390625 46.6875 
L 26.609375 -11.71875 
Q 24.171875 -17.78125 21.1875 -20 
Q 18.21875 -22.21875 12.796875 -22.21875 
Q 10.5 -22.21875 8.078125 -21.828125 
Q 5.671875 -21.4375 3.21875 -20.703125 
L 3.21875 -10.796875 
L 7.8125 -10.796875 
Q 8.109375 -14.109375 9.5 -15.546875 
Q 10.890625 -17 13.8125 -17 
Q 16.5 -17 18.140625 -15.5 
Q 19.78125 -14.015625 21.578125 -9.515625 
z
" id="DejaVuSerif-121"/>
      </defs>
      <use xlink:href="#DejaVuSerif-43"/>
      <use x="83.789062" xlink:href="#DejaVuSerif-78"/>
      <use x="171.289062" xlink:href="#DejaVuSerif-111"/>
      <use x="231.494141" xlink:href="#DejaVuSerif-105"/>
      <use x="263.476562" xlink:href="#DejaVuSerif-115"/>
      <use x="314.794922" xlink:href="#DejaVuSerif-121"/>
     </g>
    </g>
    <g id="line2d_41">
     <path d="M 414.307812 291 
L 434.307812 291 
" style="fill:none;stroke:#a6d854;stroke-linecap:square;stroke-width:2;"/>
    </g>
    <g id="line2d_42">
     <g>
      <use style="fill:#a6d854;stroke:#a6d854;stroke-linejoin:bevel;" x="424.307812" xlink:href="#m1227a811b5" y="291"/>
     </g>
    </g>
    <g id="text_21">
     <!-- +NSteps -->
     <g transform="translate(442.307812 294.5)scale(0.1 -0.1)">
      <defs>
       <path d="M 9.28125 3.515625 
L 9.28125 20.125 
L 14.890625 20.0625 
Q 15.140625 11.765625 19.703125 7.78125 
Q 24.265625 3.8125 33.59375 3.8125 
Q 42.28125 3.8125 46.84375 7.25 
Q 51.421875 10.6875 51.421875 17.28125 
Q 51.421875 22.5625 48.65625 25.390625 
Q 45.90625 28.21875 37.015625 30.90625 
L 27.390625 33.796875 
Q 16.9375 36.96875 12.671875 41.703125 
Q 8.40625 46.4375 8.40625 54.6875 
Q 8.40625 63.96875 14.984375 69.09375 
Q 21.578125 74.21875 33.5 74.21875 
Q 38.578125 74.21875 44.625 73.109375 
Q 50.6875 72.015625 57.515625 69.921875 
L 57.515625 54.390625 
L 52 54.390625 
Q 51.171875 62.109375 46.84375 65.546875 
Q 42.53125 69 33.6875 69 
Q 25.984375 69 21.953125 65.84375 
Q 17.921875 62.703125 17.921875 56.6875 
Q 17.921875 51.46875 20.9375 48.484375 
Q 23.96875 45.515625 33.796875 42.578125 
L 42.828125 39.890625 
Q 52.734375 36.921875 56.953125 32.296875 
Q 61.1875 27.6875 61.1875 19.921875 
Q 61.1875 9.328125 54.390625 3.953125 
Q 47.609375 -1.421875 34.1875 -1.421875 
Q 28.171875 -1.421875 21.9375 -0.1875 
Q 15.71875 1.03125 9.28125 3.515625 
z
" id="DejaVuSerif-83"/>
      </defs>
      <use xlink:href="#DejaVuSerif-43"/>
      <use x="83.789062" xlink:href="#DejaVuSerif-78"/>
      <use x="171.289062" xlink:href="#DejaVuSerif-83"/>
      <use x="239.794922" xlink:href="#DejaVuSerif-116"/>
      <use x="279.980469" xlink:href="#DejaVuSerif-101"/>
      <use x="339.160156" xlink:href="#DejaVuSerif-112"/>
      <use x="403.173828" xlink:href="#DejaVuSerif-115"/>
     </g>
    </g>
    <g id="line2d_43">
     <path d="M 414.307812 305.678125 
L 434.307812 305.678125 
" style="fill:none;stroke:#ffd92f;stroke-linecap:square;stroke-width:2;"/>
    </g>
    <g id="line2d_44">
     <g>
      <use style="fill:#ffd92f;stroke:#ffd92f;stroke-linejoin:miter;" x="424.307812" xlink:href="#m0c22a33eea" y="305.678125"/>
     </g>
    </g>
    <g id="text_22">
     <!-- +Categorical -->
     <g transform="translate(442.307812 309.178125)scale(0.1 -0.1)">
      <defs>
       <path d="M 70.515625 19.28125 
Q 67.28125 9.078125 59.6875 3.828125 
Q 52.09375 -1.421875 40.484375 -1.421875 
Q 33.34375 -1.421875 27.234375 1.015625 
Q 21.140625 3.46875 16.40625 8.203125 
Q 10.9375 13.671875 8.265625 20.625 
Q 5.609375 27.59375 5.609375 36.375 
Q 5.609375 53.375 15.421875 63.796875 
Q 25.25 74.21875 41.3125 74.21875 
Q 47.265625 74.21875 54 72.65625 
Q 60.75 71.09375 68.5 67.921875 
L 68.5 51.125 
L 62.984375 51.125 
Q 61.1875 60.296875 55.734375 64.640625 
Q 50.296875 69 40.484375 69 
Q 28.8125 69 22.796875 60.71875 
Q 16.796875 52.4375 16.796875 36.375 
Q 16.796875 20.359375 22.796875 12.078125 
Q 28.8125 3.8125 40.484375 3.8125 
Q 48.640625 3.8125 53.90625 7.6875 
Q 59.1875 11.578125 61.53125 19.28125 
z
" id="DejaVuSerif-67"/>
      </defs>
      <use xlink:href="#DejaVuSerif-43"/>
      <use x="83.789062" xlink:href="#DejaVuSerif-67"/>
      <use x="160.302734" xlink:href="#DejaVuSerif-97"/>
      <use x="219.921875" xlink:href="#DejaVuSerif-116"/>
      <use x="260.107422" xlink:href="#DejaVuSerif-101"/>
      <use x="319.287109" xlink:href="#DejaVuSerif-103"/>
      <use x="383.300781" xlink:href="#DejaVuSerif-111"/>
      <use x="443.505859" xlink:href="#DejaVuSerif-114"/>
      <use x="491.308594" xlink:href="#DejaVuSerif-105"/>
      <use x="523.291016" xlink:href="#DejaVuSerif-99"/>
      <use x="579.296875" xlink:href="#DejaVuSerif-97"/>
      <use x="638.916016" xlink:href="#DejaVuSerif-108"/>
     </g>
    </g>
   </g>
  </g>
 </g>
 <defs>
  <clipPath id="p9f10498fec">
   <rect height="277.2" width="446.4" x="72" y="43.2"/>
  </clipPath>
 </defs>
</svg>
